<svg width="16" height="16" viewBox="0 0 16 16" fill="none" xmlns="http://www.w3.org/2000/svg">
<path d="M14.9885 7.47652V8.48073H12.4562V7.56385C12.2815 5.2498 10.3167 3.41602 7.95903 3.41602C5.42668 3.41602 3.41826 5.4681 3.41826 7.9568C3.41826 10.4892 5.47034 12.4976 7.95903 12.4976C8.04636 12.4976 8.13368 12.4867 8.221 12.4757C8.30832 12.4648 8.39565 12.4539 8.48297 12.4539C10.0111 12.2793 11.321 11.3624 12.0195 10.0089L12.9364 10.4455C12.1069 12.1483 10.4914 13.2835 8.61395 13.5018V14.9863H7.60974V13.5018C4.90274 13.2835 2.76334 11.1441 2.50137 8.48073H1.06055V7.47652H2.50137C2.76334 4.76952 4.90274 2.67378 7.60974 2.45547V1.01465H8.61395V2.49913C11.19 2.7611 13.2857 4.85684 13.504 7.47652H14.9885Z" fill="black"/>
<path fill-rule="evenodd" clip-rule="evenodd" d="M5.77599 7.9568C5.77599 9.17931 6.7802 10.1835 8.00272 10.1835C9.22523 10.1835 10.2294 9.17931 10.2294 7.9568C10.2294 6.73428 9.22523 5.73007 8.00272 5.73007C6.7802 5.73007 5.77599 6.73428 5.77599 7.9568ZM6.82386 7.91314C6.82386 7.25822 7.3478 6.73428 8.00272 6.73428C8.65764 6.73428 9.18157 7.25822 9.18157 7.91314C9.18157 8.56806 8.65764 9.09199 8.00272 9.09199C7.3478 9.09199 6.82386 8.56806 6.82386 7.91314Z" fill="black"/>
</svg>
