<svg width="16" height="16" viewBox="0 0 16 16" fill="none" xmlns="http://www.w3.org/2000/svg">
<path fill-rule="evenodd" clip-rule="evenodd" d="M3.2 3.78492L8 2.13413L12.8 3.78492V10.2928L8 13.7595L3.2 10.2928V3.78492ZM8.26018 0.954622C8.09157 0.896637 7.90843 0.896636 7.73982 0.954622L2.53982 2.74298C2.21684 2.85406 2 3.15794 2 3.49949V10.344C2 10.6972 2.16962 11.0289 2.45596 11.2357L7.53161 14.9015C7.81122 15.1034 8.18878 15.1034 8.46839 14.9015L13.544 11.2357C13.8304 11.0289 14 10.6972 14 10.344V3.49949C14 3.15794 13.7832 2.85406 13.4602 2.74298L8.26018 0.954622ZM11.639 6.40867C11.8649 6.16624 11.8515 5.78657 11.6091 5.56067C11.3666 5.33477 10.987 5.34817 10.7611 5.5906L7.48388 9.1076L5.64905 7.03749C5.42925 6.78951 5.05004 6.76666 4.80206 6.98646C4.55407 7.20625 4.53123 7.58547 4.75102 7.83345L7.02376 10.3976C7.13591 10.5241 7.29624 10.5975 7.4653 10.5996C7.63437 10.6017 7.79647 10.5324 7.91174 10.4087L11.639 6.40867Z" fill="black"/>
</svg>
