<svg width="16" height="16" viewBox="0 0 16 16" fill="none" xmlns="http://www.w3.org/2000/svg">
<path fill-rule="evenodd" clip-rule="evenodd" d="M7.99933 13.55L7.98726 13.55L7.92972 13.5496C6.60566 13.5331 5.39327 13.053 4.44741 12.2642C5.08661 10.9461 6.43832 10.0382 7.99975 10.0382C9.56116 10.0382 10.9129 10.946 11.5521 12.2641C10.7958 12.8951 9.8704 13.3279 8.85349 13.4848C8.5751 13.5277 8.28984 13.55 7.99933 13.55ZM7.99975 8.83823C6.11931 8.83823 4.47447 9.84699 3.57687 11.3529C2.86969 10.4214 2.45 9.25971 2.45 8C2.45 4.93482 4.93482 2.45 8 2.45C11.0652 2.45 13.55 4.93482 13.55 8C13.55 9.25988 13.1302 10.4217 12.4229 11.3532C11.5253 9.84715 9.88035 8.83823 7.99975 8.83823ZM1.25 8C1.25 9.7704 1.93157 11.3816 3.04664 12.5855L3.04649 12.5861C4.27596 13.9133 6.03228 14.7454 7.98301 14.75L8 14.75C11.7279 14.75 14.75 11.7279 14.75 8C14.75 4.27208 11.7279 1.25 8 1.25C4.27208 1.25 1.25 4.27208 1.25 8ZM9.29951 5.82938C9.29951 6.54735 8.71748 7.12938 7.99951 7.12938C7.28154 7.12938 6.69951 6.54735 6.69951 5.82938C6.69951 5.11141 7.28154 4.52938 7.99951 4.52938C8.71748 4.52938 9.29951 5.11141 9.29951 5.82938ZM10.4995 5.82938C10.4995 7.2101 9.38022 8.32938 7.99951 8.32938C6.6188 8.32938 5.49951 7.2101 5.49951 5.82938C5.49951 4.44867 6.6188 3.32938 7.99951 3.32938C9.38022 3.32938 10.4995 4.44867 10.4995 5.82938Z" fill="black"/>
</svg>
