<svg width="16" height="16" viewBox="0 0 16 16" fill="none" xmlns="http://www.w3.org/2000/svg">
<path fill-rule="evenodd" clip-rule="evenodd" d="M5.91379 12.8227H1.52148V2.99609H5.91379V12.8227ZM2.10176 12.2551H5.36316V3.56367H2.08905L2.10176 12.2551ZM4.749 6.49893H2.69051V7.13003H4.749V6.49893ZM2.69051 7.59593H4.749V8.22704H2.69051V7.59593ZM4.749 8.69296H2.69051V9.32406H4.749V8.69296ZM2.69051 9.78996H4.749V10.4211H2.69051V9.78996ZM4.749 10.887H2.69051V11.5181H4.749V10.887ZM10.0816 12.8227H14.4781V2.99609H10.0816V12.8227ZM13.8936 12.2551H10.6661L10.6322 3.56367H13.8936V12.2551ZM13.3091 6.49893H11.2506V7.13003H13.3091V6.49893ZM2.69051 5.3426H4.749V5.9737H2.69051V5.3426ZM13.3091 5.3426H11.2506V5.9737H13.3091V5.3426ZM2.69051 4.18629H4.749V4.81739H2.69051V4.18629ZM13.3091 4.18629H11.2506V4.81739H13.3091V4.18629ZM11.2506 7.59593H13.3091V8.22704H11.2506V7.59593ZM13.3091 8.69296H11.2506V9.32406H13.3091V8.69296ZM11.2506 9.78996H13.3091V10.4211H11.2506V9.78996ZM13.3091 10.887H11.2506V11.5181H13.3091V10.887ZM6.20604 3.06809H6.34582V3.49165H6.20604V3.06809ZM6.92609 3.74579H6.63384V3.06809H6.92609V3.74579ZM7.21411 3.74579H7.50213V3.06809H7.21411V3.74579ZM8.07817 3.74579H7.79015V3.06809H8.07817V3.74579ZM8.38737 3.74579H8.65845L8.67539 3.06809H8.38737V3.74579ZM8.94647 3.74579H9.23449V3.06809H8.94647V3.74579ZM9.52251 3.06809H9.66228V3.49165H9.52251V3.06809ZM6.34582 4.37266H6.20604V4.79622H6.34582V4.37266ZM6.63384 5.05035H6.92609V4.37266H6.63384V5.05035ZM7.50213 5.05035H7.21411V4.37266H7.50213V5.05035ZM7.79015 5.05035H8.07817V4.37266H7.79015V5.05035ZM8.65845 5.05035H8.38737V4.37266H8.67539L8.65845 5.05035ZM9.23449 5.05035H8.94647V4.37266H9.23449V5.05035ZM9.66228 4.37266H9.52251V4.79622H9.66228V4.37266ZM6.20604 12.3271H6.34582V12.7507H6.20604V12.3271ZM6.92609 13.0048H6.63384V12.3271H6.92609V13.0048ZM7.21411 13.0048H7.50213V12.3271H7.21411V13.0048ZM8.07817 13.0048H7.79015V12.3271H8.07817V13.0048ZM8.38737 13.0048H8.65845L8.67539 12.3271H8.38737V13.0048ZM8.94647 13.0048H9.23449V12.3271H8.94647V13.0048ZM9.52251 12.3271H9.66228V12.7507H9.52251V12.3271ZM6.34582 11.1665H6.20604V11.5901H6.34582V11.1665ZM6.63384 11.8442H6.92609V11.1665H6.63384V11.8442ZM7.50213 11.8442H7.21411V11.1665H7.50213V11.8442ZM7.79015 11.8442H8.07817V11.1665H7.79015V11.8442ZM8.65845 11.8442H8.38737V11.1665H8.67539L8.65845 11.8442ZM9.23449 11.8442H8.94647V11.1665H9.23449V11.8442ZM9.66228 11.1665H9.52251V11.5901H9.66228V11.1665Z" fill="black"/>
</svg>
