<svg width="16" height="16" viewBox="0 0 16 16" fill="none" xmlns="http://www.w3.org/2000/svg">
<path fill-rule="evenodd" clip-rule="evenodd" d="M11.7871 3.82129C12.3394 3.82129 12.7871 3.37357 12.7871 2.82129C12.7871 2.269 12.3394 1.82129 11.7871 1.82129C11.2348 1.82129 10.7871 2.269 10.7871 2.82129C10.7871 3.37357 11.2348 3.82129 11.7871 3.82129ZM8.32664 7.1211C8.32664 5.82116 8.33837 3.72114 9.58664 3.72106C10.2866 3.72102 10.4866 4.98777 10.4866 5.32116C11.1783 5.2347 11.7952 5.31269 12.3374 5.43235C12.4644 5.46039 12.5866 5.36512 12.5866 5.235V4.52827C12.5866 4.39566 12.534 4.26848 12.4402 4.17471L12.4331 4.16761C12.3393 4.07384 12.2121 4.02116 12.0795 4.02116H11.3866C10.7984 3.64694 10.674 3.15655 10.5751 2.76688C10.4891 2.42792 10.4225 2.16517 10.0866 2.12135C7.98687 1.92129 7.10706 5.49116 8.32664 7.1211Z" fill="#FFC813"/>
<path fill-rule="evenodd" clip-rule="evenodd" d="M5.96448 2.74993C6.1624 2.23433 5.90487 1.6559 5.38927 1.45798C4.87367 1.26006 4.29524 1.51759 4.09732 2.0332C3.8994 2.5488 4.15693 3.12722 4.67253 3.32514C5.18814 3.52306 5.76656 3.26553 5.96448 2.74993ZM7.80451 7.16305C6.59091 6.6972 4.63458 5.93367 5.08185 4.76828C5.33266 4.11476 6.58696 4.38201 6.8982 4.50148C7.06535 3.82477 7.35925 3.27678 7.66525 2.8135C7.73696 2.70493 7.69181 2.55672 7.57034 2.51009L6.91054 2.25682C6.78674 2.20929 6.64913 2.2129 6.52799 2.26683L6.51881 2.27092C6.39766 2.32486 6.30291 2.42471 6.25538 2.54851L6.00707 3.19538C5.44689 3.61049 4.94449 3.55089 4.54527 3.50353C4.19801 3.46234 3.92882 3.4304 3.76757 3.72821C2.82831 5.61682 5.84577 7.71751 7.80451 7.16305Z" fill="#FF4749"/>
<path fill-rule="evenodd" clip-rule="evenodd" d="M3.13406 8.00086C2.73678 7.61721 2.10371 7.62826 1.72006 8.02554C1.33641 8.42282 1.34746 9.05589 1.74474 9.43954C2.14202 9.82319 2.77509 9.81214 3.15874 9.41486C3.54239 9.01758 3.53134 8.38451 3.13406 8.00086ZM7.91455 8.03099C7.01153 8.96609 5.5443 10.4686 4.64632 9.60151C4.14275 9.11528 4.87885 8.06512 5.11044 7.8253C4.55283 7.40702 4.16324 6.92237 3.85635 6.45968C3.78443 6.35125 3.63036 6.3349 3.53997 6.4285L3.04903 6.93688C2.95692 7.03227 2.90646 7.16035 2.90878 7.29294L2.90895 7.30299C2.91127 7.43557 2.96616 7.56181 3.06155 7.65393L3.55997 8.13525C3.7232 8.8131 3.47203 9.25227 3.27245 9.60125C3.09885 9.90481 2.96427 10.1401 3.1754 10.4049C4.54687 12.0075 7.65959 10.0507 7.91455 8.03099Z" fill="#0069D9"/>
<path fill-rule="evenodd" clip-rule="evenodd" d="M7.28584 12.6621C6.80834 12.9396 6.64622 13.5517 6.92374 14.0292C7.20125 14.5067 7.81331 14.6688 8.29081 14.3913C8.76831 14.1138 8.93042 13.5017 8.65291 13.0242C8.37539 12.5467 7.76333 12.3846 7.28584 12.6621ZM8.61901 8.07146C9.27221 9.19538 10.3173 11.0169 9.23811 11.6442C8.63292 11.996 7.82348 11.0013 7.65596 10.713C7.10139 11.1353 6.52883 11.3779 5.99995 11.5469C5.87601 11.5865 5.81824 11.7303 5.88362 11.8427L6.23875 12.4538C6.30538 12.5684 6.41483 12.6519 6.54302 12.6859L6.55273 12.6884C6.68092 12.7224 6.81735 12.704 6.932 12.6374L7.53106 12.2892C8.22773 12.3172 8.5817 12.6786 8.86297 12.9659C9.10764 13.2157 9.2973 13.4094 9.60965 13.2785C11.5256 12.3964 10.4925 8.86786 8.61901 8.07146Z" fill="#22C5FF"/>
<path fill-rule="evenodd" clip-rule="evenodd" d="M12.798 10.0344C12.9296 10.5708 13.471 10.8989 14.0074 10.7674C14.5438 10.6358 14.872 10.0943 14.7404 9.55795C14.6089 9.02156 14.0674 8.69338 13.531 8.82494C12.9946 8.9565 12.6664 9.49798 12.798 10.0344ZM8.77079 7.46042C10.0333 7.15076 12.0757 6.66191 12.3731 7.87423C12.5399 8.55407 11.3572 9.05006 11.0334 9.12948C11.2822 9.78064 11.3534 10.3984 11.3663 10.9534C11.3694 11.0835 11.491 11.1795 11.6174 11.1485L12.3038 10.9802C12.4325 10.9486 12.5435 10.8671 12.6122 10.7537L12.6175 10.7451C12.6862 10.6317 12.7071 10.4956 12.6755 10.3668L12.5104 9.6939C12.7337 9.03341 13.1804 8.79577 13.5353 8.60694C13.844 8.44268 14.0833 8.31535 14.0459 7.97877C13.74 5.89179 10.0633 5.88768 8.77079 7.46042Z" fill="#86D92F"/>
</svg>
