<svg width="16" height="16" viewBox="0 0 16 16" fill="none" xmlns="http://www.w3.org/2000/svg">
<path d="M4.72063 8.43269C3.83713 8.43269 3.12063 9.1492 3.12063 10.0327C3.12063 10.8762 3.77312 11.5672 4.60113 11.6282L4.72063 11.6327H10.4856C10.6556 10.9322 11.2876 10.4117 12.0406 10.4117C12.9241 10.4117 13.6406 11.1282 13.6406 12.0117C13.6406 12.8952 12.9241 13.6117 12.0406 13.6117C11.3031 13.6117 10.6816 13.1122 10.4966 12.4332L4.72063 12.4327C3.39513 12.4327 2.32063 11.3582 2.32063 10.0327C2.32063 8.7547 3.31962 7.7097 4.57962 7.6367L4.72063 7.6327H11.5206C12.4041 7.6327 13.1206 6.9162 13.1206 6.0327C13.1206 5.1892 12.4681 4.4982 11.6401 4.4372L11.5206 4.4327L5.21512 4.4332C5.02212 5.1002 4.40712 5.5877 3.67812 5.5877C2.79462 5.5877 2.07812 4.8712 2.07812 3.9877C2.07812 3.1042 2.79462 2.3877 3.67812 2.3877C4.43962 2.3877 5.07712 2.9202 5.23862 3.6327L11.5206 3.6322C12.8461 3.6322 13.9206 4.7067 13.9206 6.0322C13.9206 7.31019 12.9216 8.3552 11.6616 8.4282L11.5206 8.4322L4.72063 8.43269ZM12.0406 11.2117C11.5986 11.2117 11.2406 11.5697 11.2406 12.0117C11.2406 12.4537 11.5986 12.8117 12.0406 12.8117C12.4826 12.8117 12.8406 12.4537 12.8406 12.0117C12.8406 11.5697 12.4826 11.2117 12.0406 11.2117ZM3.67812 3.1877C3.23612 3.1877 2.87812 3.5457 2.87812 3.9877C2.87812 4.4297 3.23612 4.7877 3.67812 4.7877C4.12012 4.7877 4.47812 4.4297 4.47812 3.9877C4.47812 3.5457 4.12012 3.1877 3.67812 3.1877Z" fill="black"/>
</svg>
