<svg width="16" height="16" viewBox="0 0 16 16" fill="none" xmlns="http://www.w3.org/2000/svg">
<path d="M13.4917 11.2614C13.474 11.3145 13.197 12.273 12.5164 13.2589C11.9269 14.1095 11.3171 14.9671 10.3551 14.9821C9.40806 14.999 9.10537 14.4219 8.02471 14.4219C6.94582 14.4219 6.60685 14.9671 5.71205 14.999C4.78717 15.0361 4.0747 14.0696 3.48436 13.2235C2.27449 11.4897 1.34429 8.31058 2.59222 6.18024C3.20734 5.11375 4.31101 4.43668 5.51292 4.41721C6.41922 4.40039 7.28126 5.02613 7.83177 5.02613C8.39732 5.02613 9.43992 4.2694 10.54 4.38269C11.0003 4.40216 12.2889 4.57298 13.1191 5.76692C13.0545 5.81117 11.5773 6.67499 11.5941 8.43449C11.6163 10.5577 13.4722 11.2543 13.4917 11.2614ZM9.82049 3.24451C10.3161 2.64444 10.6427 1.81956 10.5569 1C9.84881 1.02744 8.985 1.46643 8.47255 2.06384C8.01851 2.58425 7.61935 3.4224 7.73087 4.23223C8.51769 4.27914 9.32663 3.82333 9.81961 3.24451" fill="black"/>
</svg>
