<svg width="16" height="16" viewBox="0 0 16 16" fill="none" xmlns="http://www.w3.org/2000/svg">
<path fill-rule="evenodd" clip-rule="evenodd" d="M2.31676 12.2524H14.4949V13.1029H1.50488V2.89648H14.4543V10.8753H13.6424V3.74702H2.31676V12.2524ZM4.63058 10.2273H3.94049C3.94049 9.45776 4.34643 8.76923 5.03652 8.44522C4.67118 8.1212 4.46821 7.71619 4.46821 7.23017C4.46821 6.37963 5.23949 5.6506 6.09196 5.6506C6.94442 5.6506 7.67511 6.33913 7.67511 7.23017C7.67511 7.71619 7.43155 8.16171 7.1068 8.44522C7.7563 8.80973 8.16224 9.45776 8.16224 10.2273H7.47214C7.47214 9.45776 6.82264 8.80973 6.05136 8.80973C5.28008 8.80973 4.63058 9.45776 4.63058 10.2273ZM6.01078 6.33916C5.52365 6.33916 5.11772 6.74418 5.11772 7.2302C5.11772 7.71622 5.52365 8.12123 6.01078 8.12123C6.4979 8.12123 6.90384 7.71622 6.90384 7.2302C6.90384 6.74418 6.4979 6.33916 6.01078 6.33916ZM9.21768 5.97462H11.8157V6.66315H9.21768V5.97462ZM11.8157 7.75672H9.21768V8.44525H11.8157V7.75672ZM9.21768 9.53875H11.8157V10.2273H9.21768V9.53875Z" fill="black"/>
</svg>
