<svg width="16" height="16" viewBox="0 0 16 16" fill="none" xmlns="http://www.w3.org/2000/svg">
<path fill-rule="evenodd" clip-rule="evenodd" d="M8.37468 1.87207C8.5956 1.87207 8.77468 2.05116 8.77468 2.27207L8.77449 10.1209L10.1359 10.1211C10.3568 10.1211 10.5359 10.3002 10.5359 10.5211L10.5353 12.5478L12.2178 12.5484C12.4387 12.5484 12.6178 12.7275 12.6178 12.9484V13.7283C12.6178 13.9492 12.4387 14.1283 12.2178 14.1283H4.2428C4.02189 14.1283 3.8428 13.9492 3.8428 13.7283V12.9484C3.8428 12.7275 4.02189 12.5484 4.2428 12.5484L5.92409 12.5478L5.92464 10.5211C5.92464 10.3002 6.10372 10.1211 6.32464 10.1211L7.68569 10.1209L7.68588 2.27207C7.68588 2.05116 7.86496 1.87207 8.08588 1.87207H8.37468ZM7.249 4.03521H4.39298L5.93762 6.16565C5.95975 6.19616 5.97004 6.23164 5.96936 6.26663L5.99011 6.26666V7.97457C5.99011 8.80509 5.14297 9.47837 4.09797 9.47837H3.72124C2.67624 9.47837 1.8291 8.80509 1.8291 7.97457V6.26666L1.85221 6.26663C1.85153 6.23164 1.86182 6.19616 1.88395 6.16565L3.60629 3.79012C3.54384 3.69928 3.50729 3.58926 3.50729 3.4707C3.50729 3.15893 3.76003 2.90619 4.0718 2.90619H7.249V4.03521ZM12.3888 2.90619C12.7005 2.90619 12.9533 3.15893 12.9533 3.4707C12.9533 3.58926 12.9167 3.69928 12.8543 3.79011L14.5766 6.16565C14.5987 6.19616 14.609 6.23164 14.6084 6.26663L14.6291 6.26666V7.97457C14.6291 8.80509 13.782 9.47837 12.737 9.47837H12.3602C11.3152 9.47837 10.4681 8.80509 10.4681 7.97457V6.26666L10.4912 6.26663C10.4905 6.23164 10.5008 6.19616 10.5229 6.16565L12.0676 4.03521H9.21156V2.90619H12.3888ZM3.9107 4.1416L2.3683 6.2664H5.4523L3.9107 4.1416ZM11.0073 6.2664L12.5497 4.1416L14.0913 6.2664H11.0073Z" fill="black"/>
</svg>
