<svg width="16" height="16" viewBox="0 0 16 16" fill="none" xmlns="http://www.w3.org/2000/svg">
<path fill-rule="evenodd" clip-rule="evenodd" d="M1 1.40039V2.60039H2.43875L3.20118 14.0403C3.22219 14.3555 3.48397 14.6004 3.79985 14.6004H5.8601V13.4004H4.3612L4.1725 10.5691H5.8601V9.36914H4.09253L3.89134 6.35039H12.1087L11.9546 8.6602H13.1573L13.5614 2.60039H15V1.40039H1ZM3.64142 2.60039H12.3588L12.1887 5.15039H3.81136L3.64142 2.60039Z" fill="black"/>
<path fill-rule="evenodd" clip-rule="evenodd" d="M14.2667 9.40034C14.3551 9.40034 14.4399 9.43546 14.5024 9.49797C14.5649 9.56049 14.6 9.64527 14.6 9.73368V14.267C14.6 14.3554 14.5649 14.4402 14.5024 14.5027C14.4399 14.5652 14.3551 14.6003 14.2667 14.6003H7.13338C7.04497 14.6003 6.96019 14.5652 6.89768 14.5027C6.83517 14.4402 6.80005 14.3554 6.80005 14.267V9.73368C6.80005 9.64527 6.83517 9.56049 6.89768 9.49797C6.96019 9.43546 7.04497 9.40034 7.13338 9.40034H14.2667ZM13.4166 10.587H7.98663V13.417H13.4166V10.587Z" fill="black"/>
<path d="M9.00415 11.403H10.2041V12.603H9.00415V11.403Z" fill="black"/>
<path d="M11.2041 11.403H12.4041V12.603H11.2041V11.403Z" fill="black"/>
</svg>
