<svg width="20" height="20" viewBox="0 0 20 20" fill="none" xmlns="http://www.w3.org/2000/svg">
<path fill-rule="evenodd" clip-rule="evenodd" d="M5.72814 3.86444V3.86394C6.58262 3.16496 7.67008 2.85447 8.91255 2.85447C10.0775 2.85447 11.2425 3.24296 12.0969 3.94194H12.1744L12.8734 3.39846L12.7959 3.32096C11.7126 2.46401 10.3713 1.99865 8.99004 2.00049C7.51459 2.00049 6.19413 2.46648 5.10666 3.24296C5.02917 3.24296 5.02917 3.32046 5.02917 3.39846L5.70615 3.92483C5.70355 3.92779 5.7011 3.93023 5.69908 3.93225C5.69556 3.93577 5.69332 3.93801 5.69376 3.93944C5.69452 3.94194 5.70348 3.94194 5.72814 3.94194L5.70615 3.92483C5.71601 3.91364 5.72814 3.89511 5.72814 3.86444ZM6.27213 4.48542C6.97111 4.01944 7.90308 3.63095 8.83505 3.63095C9.76702 3.63095 10.699 3.94194 11.398 4.48542L10.699 5.0289C10.1555 4.71841 9.53403 4.48542 8.83505 4.48542C8.21357 4.48542 7.43709 4.64042 6.97111 5.0289L6.27213 4.48542ZM15.2813 7.43683C15.2813 8.5093 12.3254 9.37827 8.67955 9.37827C5.03367 9.37827 2.07776 8.5088 2.07776 7.43683C2.07776 6.36436 5.03367 5.49539 8.67955 5.49539C12.3254 5.49539 15.2813 6.36486 15.2813 7.43683ZM17.8443 15.3586H8.83505V17.9995H17.8443V15.3586ZM11.7085 17.145H10.699V16.446H10.932V16.2131H11.4755V16.446H11.7085V17.145ZM12.2524 17.145H13.2619V16.446H13.0289V16.2131H12.4854V16.446H12.2524V17.145ZM16.1358 16.679C16.1358 16.8345 15.9803 17.0675 15.7473 17.0675C15.5143 17.0675 15.3588 16.912 15.3588 16.679C15.3588 16.446 15.5143 16.2906 15.7473 16.2906C15.9803 16.2906 16.1358 16.446 16.1358 16.679ZM8.67955 10.2332V10.2327C5.02917 10.2327 2.07776 9.37827 2.07776 8.2913V11.3982C2.07776 12.4857 5.02917 13.3401 8.67955 13.3401C12.3299 13.3401 15.2813 12.4857 15.2813 11.3982V8.2913C15.2813 9.30077 12.3299 10.2332 8.67955 10.2332ZM6.82064 14.1167C6.81913 14.1165 6.81762 14.1163 6.81611 14.1161C4.17519 13.8831 2.15626 13.1067 2.15626 12.2522V16.0581C2.15626 17.0675 4.87467 17.922 8.29206 18V14.8156H15.3598V12.2527C15.2823 12.7187 14.7384 13.1072 13.8064 13.4951C13.5729 13.5721 13.2624 13.6501 12.9514 13.7276C12.2116 13.9144 11.4586 14.0442 10.699 14.1161C10.3886 14.1161 10.0587 14.1411 9.72868 14.1661H9.72867H9.72866C9.61267 14.1749 9.49667 14.1837 9.38151 14.1914C9.17936 14.1936 8.97213 14.1936 8.75755 14.1936C8.50884 14.1936 8.26995 14.1936 8.0374 14.1901C7.9285 14.1827 7.81888 14.1744 7.70926 14.1661H7.70924H7.70923H7.70922C7.40816 14.1433 7.10705 14.1205 6.82064 14.1167ZM12.8739 13.7276C13.1844 13.6501 13.4954 13.5721 13.7284 13.4946C13.4954 13.5721 13.1849 13.6501 12.8739 13.7276Z" fill="black"/>
</svg>
