<svg width="16" height="16" viewBox="0 0 16 16" fill="none" xmlns="http://www.w3.org/2000/svg">
<path d="M14.4991 6.86086L14.4982 7.99993L14.5 8L14.4991 10.6811L14.5 10.6804V12.2046C14.5 12.6173 14.209 12.9999 13.628 13.3523C13.047 13.7048 12.2575 13.9849 11.2585 14.1907C10.2605 14.3966 9.17432 14.5 8.00095 14.5C6.82757 14.5 5.7414 14.3966 4.74242 14.1907C3.74344 13.9849 2.95392 13.7048 2.37292 13.3523C1.79192 12.9999 1.50095 12.6173 1.50095 12.2046L1.5009 11.8284L1.5 11.8291V6.86086C2.17104 7.3629 3.08851 7.74245 4.25051 7.9995C5.41346 8.25655 6.66266 8.38507 8 8.38507C9.33734 8.38507 10.5865 8.25655 11.7485 7.9995C12.9105 7.74245 13.828 7.3629 14.4991 6.86086ZM8 1.5C9.17337 1.5 10.2596 1.60342 11.2585 1.80926C12.2575 2.0151 13.047 2.29524 13.628 2.64768C14.209 3.00012 14.5 3.38268 14.5 3.79536V4.94304C14.5 5.35572 14.209 5.73828 13.628 6.09072C13.047 6.44315 12.2575 6.72229 11.2585 6.92913C10.2596 7.13497 9.17337 7.23739 8 7.23739C6.82663 7.23739 5.74045 7.13397 4.74147 6.92813C3.74249 6.72229 2.95297 6.44215 2.37197 6.08971C1.79097 5.73727 1.5 5.35472 1.5 4.94203V3.79536C1.5 3.38268 1.79097 3.00012 2.37197 2.64768C2.95297 2.29524 3.74249 2.0151 4.74147 1.80926C5.74045 1.60342 6.82663 1.5 8 1.5ZM8 2.63788C5.64399 2.63788 3.73406 3.28025 3.73406 4.07265C3.73406 4.86506 5.64399 5.50743 8 5.50743C10.356 5.50743 12.2659 4.86506 12.2659 4.07265C12.2659 3.28025 10.356 2.63788 8 2.63788Z" fill="black"/>
</svg>
