<svg width="20" height="20" viewBox="0 0 20 20" fill="none" xmlns="http://www.w3.org/2000/svg">
<mask id="path-1-inside-1_11_2092" fill="white">
<path fill-rule="evenodd" clip-rule="evenodd" d="M4.48263 6.8458L10 3.68388L15.5174 6.8458V13.1543L10 16.3162L4.48263 13.1543V6.8458ZM9.50278 2.58575C9.81076 2.40924 10.1892 2.40924 10.4972 2.58575L16.2146 5.86228C16.5256 6.04049 16.7174 6.37149 16.7174 6.7299V13.2702C16.7174 13.6286 16.5256 13.9596 16.2146 14.1378L10.4972 17.4143C10.1892 17.5908 9.81076 17.5908 9.50278 17.4143L3.7854 14.1378C3.47444 13.9596 3.28262 13.6286 3.28262 13.2702V6.7299C3.28262 6.37149 3.47444 6.04049 3.7854 5.86228L9.50278 2.58575ZM10.4972 5.27551C10.1892 5.099 9.81077 5.099 9.50278 5.27551L6.13215 7.20716C5.82118 7.38537 5.62937 7.71637 5.62937 8.07478V11.9253C5.62937 12.2837 5.82118 12.6147 6.13215 12.7929L9.50278 14.7246C9.81077 14.9011 10.1892 14.9011 10.4972 14.7246L13.8679 12.7929C14.1788 12.6147 14.3706 12.2837 14.3706 11.9253V8.07478C14.3706 7.71637 14.1788 7.38537 13.8679 7.20716L10.4972 5.27551Z"/>
</mask>
<path fill-rule="evenodd" clip-rule="evenodd" d="M4.48263 6.8458L10 3.68388L15.5174 6.8458V13.1543L10 16.3162L4.48263 13.1543V6.8458ZM9.50278 2.58575C9.81076 2.40924 10.1892 2.40924 10.4972 2.58575L16.2146 5.86228C16.5256 6.04049 16.7174 6.37149 16.7174 6.7299V13.2702C16.7174 13.6286 16.5256 13.9596 16.2146 14.1378L10.4972 17.4143C10.1892 17.5908 9.81076 17.5908 9.50278 17.4143L3.7854 14.1378C3.47444 13.9596 3.28262 13.6286 3.28262 13.2702V6.7299C3.28262 6.37149 3.47444 6.04049 3.7854 5.86228L9.50278 2.58575ZM10.4972 5.27551C10.1892 5.099 9.81077 5.099 9.50278 5.27551L6.13215 7.20716C5.82118 7.38537 5.62937 7.71637 5.62937 8.07478V11.9253C5.62937 12.2837 5.82118 12.6147 6.13215 12.7929L9.50278 14.7246C9.81077 14.9011 10.1892 14.9011 10.4972 14.7246L13.8679 12.7929C14.1788 12.6147 14.3706 12.2837 14.3706 11.9253V8.07478C14.3706 7.71637 14.1788 7.38537 13.8679 7.20716L10.4972 5.27551Z" fill="#7855FA"/>
<path d="M10 3.68388L10.4972 2.81626L10 2.53131L9.50278 2.81626L10 3.68388ZM4.48263 6.8458L3.9854 5.97818L3.48263 6.26631V6.8458H4.48263ZM15.5174 6.8458H16.5174V6.26631L16.0146 5.97818L15.5174 6.8458ZM15.5174 13.1543L16.0146 14.0219L16.5174 13.7337V13.1543H15.5174ZM10 16.3162L9.50278 17.1838L10 17.4688L10.4972 17.1838L10 16.3162ZM4.48263 13.1543H3.48263V13.7337L3.9854 14.0219L4.48263 13.1543ZM10.4972 2.58575L10 3.45337L10 3.45337L10.4972 2.58575ZM9.50278 2.58575L10 3.45337L10 3.45337L9.50278 2.58575ZM16.2146 5.86228L15.7174 6.7299H15.7174L16.2146 5.86228ZM16.2146 14.1378L15.7174 13.2702H15.7174L16.2146 14.1378ZM10.4972 17.4143L10.9944 18.2819L10.4972 17.4143ZM9.50278 17.4143L9.00556 18.2819L9.50278 17.4143ZM3.7854 14.1378L3.28818 15.0054L3.28818 15.0054L3.7854 14.1378ZM3.7854 5.86228L4.28262 6.7299L3.7854 5.86228ZM9.50278 5.27551L9.00556 4.40788V4.40788L9.50278 5.27551ZM10.4972 5.27551L10.9944 4.40788L10.4972 5.27551ZM6.13215 7.20716L5.63493 6.33953L5.63493 6.33954L6.13215 7.20716ZM6.13215 12.7929L5.63493 13.6605L5.63493 13.6605L6.13215 12.7929ZM9.50278 14.7246L9.00556 15.5922L9.50278 14.7246ZM10.4972 14.7246L10 13.8569L10 13.8569L10.4972 14.7246ZM13.8679 12.7929L14.3651 13.6605L14.3651 13.6605L13.8679 12.7929ZM13.8679 7.20716L14.3651 6.33954L13.8679 7.20716ZM9.50278 2.81626L3.9854 5.97818L4.97985 7.71342L10.4972 4.55151L9.50278 2.81626ZM16.0146 5.97818L10.4972 2.81626L9.50278 4.55151L15.0202 7.71342L16.0146 5.97818ZM16.5174 13.1543V6.8458H14.5174V13.1543H16.5174ZM10.4972 17.1838L16.0146 14.0219L15.0202 12.2866L9.50278 15.4486L10.4972 17.1838ZM3.9854 14.0219L9.50278 17.1838L10.4972 15.4486L4.97985 12.2866L3.9854 14.0219ZM3.48263 6.8458V13.1543H5.48263V6.8458H3.48263ZM10.9944 1.71812C10.3785 1.36512 9.62153 1.36512 9.00556 1.71812L10 3.45337L10 3.45337L10.9944 1.71812ZM16.7118 4.99465L10.9944 1.71812L10 3.45337L15.7174 6.7299L16.7118 4.99465ZM17.7174 6.7299C17.7174 6.01308 17.3337 5.35107 16.7118 4.99465L15.7174 6.7299H15.7174H17.7174ZM17.7174 13.2702V6.7299H15.7174V13.2702H17.7174ZM16.7118 15.0054C17.3337 14.649 17.7174 13.987 17.7174 13.2702H15.7174H15.7174L16.7118 15.0054ZM10.9944 18.2819L16.7118 15.0054L15.7174 13.2702L10 16.5467L10.9944 18.2819ZM9.00556 18.2819C9.62153 18.6349 10.3785 18.6349 10.9944 18.2819L10 16.5467L9.00556 18.2819ZM3.28818 15.0054L9.00556 18.2819L10 16.5467L4.28262 13.2702L3.28818 15.0054ZM2.28262 13.2702C2.28262 13.987 2.66625 14.649 3.28818 15.0054L4.28263 13.2702L4.28262 13.2702H2.28262ZM2.28262 6.7299V13.2702H4.28262V6.7299H2.28262ZM3.28818 4.99465C2.66625 5.35107 2.28262 6.01308 2.28262 6.7299H4.28262H4.28262L3.28818 4.99465ZM9.00556 1.71812L3.28818 4.99465L4.28262 6.7299L10 3.45337L9.00556 1.71812ZM10 6.14313L10 6.14313L10.9944 4.40788C10.3785 4.05488 9.62153 4.05488 9.00556 4.40788L10 6.14313ZM6.62937 8.07478L10 6.14313L9.00556 4.40788L5.63493 6.33953L6.62937 8.07478ZM6.62937 8.07478L6.62937 8.07478L5.63493 6.33954C5.013 6.69595 4.62937 7.35796 4.62937 8.07478H6.62937ZM6.62937 11.9253V8.07478H4.62937V11.9253H6.62937ZM6.62937 11.9253L6.62937 11.9253H4.62937C4.62937 12.6421 5.013 13.3041 5.63493 13.6605L6.62937 11.9253ZM10 13.8569L6.62937 11.9253L5.63493 13.6605L9.00556 15.5922L10 13.8569ZM10 13.8569L10 13.8569L9.00556 15.5922C9.62153 15.9452 10.3785 15.9452 10.9944 15.5922L10 13.8569ZM13.3706 11.9253L10 13.8569L10.9944 15.5922L14.3651 13.6605L13.3706 11.9253ZM13.3706 11.9253L13.3706 11.9253L14.3651 13.6605C14.987 13.3041 15.3706 12.6421 15.3706 11.9253H13.3706ZM13.3706 8.07478V11.9253H15.3706V8.07478H13.3706ZM13.3706 8.07478L13.3706 8.07478H15.3706C15.3706 7.35796 14.987 6.69595 14.3651 6.33954L13.3706 8.07478ZM10 6.14313L13.3706 8.07478L14.3651 6.33954L10.9944 4.40788L10 6.14313Z" fill="#7855FA" mask="url(#path-1-inside-1_11_2092)"/>
<path d="M9.75104 7.70778C9.90503 7.61953 10.0943 7.61953 10.2483 7.70778L11.8726 8.63864C12.028 8.72775 12.124 8.89325 12.124 9.07245V10.9278C12.124 11.107 12.028 11.2725 11.8726 11.3616L10.2483 12.2924C10.0943 12.3807 9.90503 12.3807 9.75104 12.2924L8.12674 11.3616C7.97126 11.2725 7.87535 11.107 7.87535 10.9278V9.07245C7.87535 8.89325 7.97126 8.72775 8.12674 8.63864L9.75104 7.70778Z" fill="#C6C3FF"/>
</svg>
