<svg width="16" height="16" viewBox="0 0 16 16" fill="none" xmlns="http://www.w3.org/2000/svg">
<path d="M2.86914 3.0459V11.3438L4.50293 12.8428L6.05566 11.3516V3.0459H2.86914ZM7.25488 11.3516C7.25488 11.678 7.12203 11.9906 6.88672 12.2168L5.13281 13.9033C4.79028 14.2327 4.25053 14.2392 3.90039 13.918L2.05859 12.2275C1.811 12.0003 1.67002 11.6798 1.66992 11.3438V3.0459C1.67013 2.38347 2.20671 1.84689 2.86914 1.84668H6.05566C6.7181 1.84689 7.25467 2.38347 7.25488 3.0459V11.3516Z" fill="black"/>
<path d="M6.05566 4.56543V5.76465H2.86914V4.56543H6.05566Z" fill="black"/>
<path d="M6.05566 8.82129V10.0205H2.86914V8.82129H6.05566Z" fill="black"/>
<path d="M9.92188 12.6465H13.1299V3.04688H9.92188V12.6465ZM14.3301 12.8467C14.3301 13.399 13.8824 13.8467 13.3301 13.8467H9.72168L9.61914 13.8418C9.14871 13.7939 8.77446 13.4196 8.72656 12.9492L8.72168 12.8467V2.84668C8.72168 2.329 9.11501 1.90289 9.61914 1.85156L9.72168 1.84668H13.3301C13.8824 1.84668 14.3301 2.29439 14.3301 2.84668V12.8467Z" fill="black"/>
<path d="M9.92188 4.56504H10.92C11.2513 4.56504 11.52 4.83367 11.52 5.16504L-nan -nanL11.52 5.16504C11.52 5.49641 11.2513 5.76504 10.92 5.76504H9.92188V4.56504Z" fill="black"/>
<path d="M9.92188 10.0787H10.7831C11.1145 10.0787 11.3831 10.3473 11.3831 10.6787L-nan -nanL11.3831 10.6787C11.3831 11.01 11.1145 11.2787 10.7831 11.2787H9.92188V10.0787Z" fill="black"/>
<path d="M9.92188 7.32227L11.7492 7.33838C12.0806 7.33838 12.3492 7.60701 12.3492 7.93838L-nan -nanL12.3492 7.93838C12.3492 8.26975 12.0806 8.53838 11.7492 8.53838L9.92188 8.52227V7.32227Z" fill="black"/>
</svg>
