<svg width="16" height="16" viewBox="0 0 16 16" fill="none" xmlns="http://www.w3.org/2000/svg">
<path d="M14.6663 11.3343C14.666 12.246 14.3544 13.1303 13.783 13.8408C13.2116 14.5512 12.4148 15.0452 11.5243 15.241L11.099 13.965C11.4885 13.9009 11.8589 13.7511 12.1835 13.5265C12.5082 13.302 12.7789 13.0082 12.9763 12.6663H11.333C10.9794 12.6663 10.6402 12.5259 10.3902 12.2758C10.1402 12.0258 9.99967 11.6866 9.99967 11.333V8.66634C9.99967 8.31272 10.1402 7.97358 10.3902 7.72353C10.6402 7.47348 10.9794 7.33301 11.333 7.33301H13.2917C13.129 6.04427 12.5016 4.85919 11.5273 4.00013C10.553 3.14106 9.29864 2.66706 7.99967 2.66706C6.70071 2.66706 5.44639 3.14106 4.47206 4.00013C3.49773 4.85919 2.87036 6.04427 2.70767 7.33301H4.66634C5.01996 7.33301 5.3591 7.47348 5.60915 7.72353C5.8592 7.97358 5.99967 8.31272 5.99967 8.66634V11.333C5.99967 11.6866 5.8592 12.0258 5.60915 12.2758C5.3591 12.5259 5.01996 12.6663 4.66634 12.6663H2.66634C2.31272 12.6663 1.97358 12.5259 1.72353 12.2758C1.47348 12.0258 1.33301 11.6866 1.33301 11.333V7.99967C1.33301 4.31767 4.31767 1.33301 7.99967 1.33301C11.6817 1.33301 14.6663 4.31767 14.6663 7.99967V11.3343ZM13.333 11.333V8.66634H11.333V11.333H13.333ZM2.66634 8.66634V11.333H4.66634V8.66634H2.66634Z" fill="black"/>
</svg>
