<svg width="16" height="16" viewBox="0 0 16 16" fill="none" xmlns="http://www.w3.org/2000/svg">
<path fill-rule="evenodd" clip-rule="evenodd" d="M4.53518 2.5C4.20083 2.5 3.8886 2.6671 3.70313 2.9453L2.16795 5.24808C2.05844 5.41234 2 5.60535 2 5.80278V12.5C2 13.0523 2.44772 13.5 3 13.5H13C13.5523 13.5 14 13.0523 14 12.5V5.80278C14 5.60535 13.9416 5.41234 13.8321 5.24808L12.2969 2.9453C12.1114 2.6671 11.7992 2.5 11.4648 2.5H4.53518ZM4.47221 3.55528C4.48915 3.5214 4.52378 3.5 4.56165 3.5H7.39985C7.45508 3.5 7.49985 3.54477 7.49985 3.6V5.4C7.49985 5.45523 7.45508 5.5 7.39985 5.5H3.66165C3.58731 5.5 3.53896 5.42177 3.57221 5.35528L4.47221 3.55528ZM5.49985 7.2C5.49985 6.92386 5.72371 6.7 5.99985 6.7H9.99985C10.276 6.7 10.4998 6.92386 10.4998 7.2C10.4998 7.47614 10.276 7.7 9.99985 7.7H5.99985C5.72371 7.7 5.49985 7.47614 5.49985 7.2ZM11.438 3.5C11.4759 3.5 11.5105 3.5214 11.5275 3.55528L12.4275 5.35528C12.4607 5.42177 12.4124 5.5 12.338 5.5H8.59985C8.54462 5.5 8.49985 5.45523 8.49985 5.4V3.6C8.49985 3.54477 8.54462 3.5 8.59985 3.5H11.438Z" fill="black"/>
</svg>
