<svg width="16" height="16" viewBox="0 0 16 16" fill="none" xmlns="http://www.w3.org/2000/svg">
<path d="M14.3725 13.8264H13.8263V2.53767C13.8263 1.73653 13.1708 1.08105 12.3697 1.08105H7.27157C6.47043 1.08105 5.81495 1.73653 5.81495 2.53767V3.99428H6.90741C8.32761 3.99428 9.45648 5.12315 9.45648 6.54335V14.9189H14.3725C14.6639 14.9189 14.9188 14.664 14.9188 14.3726C14.9188 14.0813 14.6639 13.8264 14.3725 13.8264ZM11.8235 10.1849H11.0952C10.8038 10.1849 10.5489 9.92997 10.5489 9.63865C10.5489 9.34733 10.8038 9.09242 11.0952 9.09242H11.8235C12.1148 9.09242 12.3697 9.34733 12.3697 9.63865C12.3697 9.92997 12.1148 10.1849 11.8235 10.1849ZM11.8235 7.99996H11.0952C10.8038 7.99996 10.5489 7.74505 10.5489 7.45373C10.5489 7.16241 10.8038 6.9075 11.0952 6.9075H11.8235C12.1148 6.9075 12.3697 7.16241 12.3697 7.45373C12.3697 7.74505 12.1148 7.99996 11.8235 7.99996ZM11.8235 5.81504H11.0952C10.8038 5.81504 10.5489 5.56014 10.5489 5.26881C10.5489 4.97749 10.8038 4.72258 11.0952 4.72258H11.8235C12.1148 4.72258 12.3697 4.97749 12.3697 5.26881C12.3697 5.56014 12.1148 5.81504 11.8235 5.81504Z" fill="black"/>
<path d="M6.9075 5.08683H3.63013C2.82899 5.08683 2.17351 5.7423 2.17351 6.54344V13.8265H1.62728C1.33596 13.8265 1.08105 14.0814 1.08105 14.3727C1.08105 14.6641 1.33596 14.919 1.62728 14.919H8.36411V6.54344C8.36411 5.7423 7.70864 5.08683 6.9075 5.08683ZM6.36127 12.3699H4.17635C3.88503 12.3699 3.63013 12.115 3.63013 11.8237C3.63013 11.5323 3.88503 11.2774 4.17635 11.2774H6.36127C6.6526 11.2774 6.9075 11.5323 6.9075 11.8237C6.9075 12.115 6.6526 12.3699 6.36127 12.3699ZM6.36127 10.185H4.17635C3.88503 10.185 3.63013 9.93006 3.63013 9.63874C3.63013 9.34742 3.88503 9.09251 4.17635 9.09251H6.36127C6.6526 9.09251 6.9075 9.34742 6.9075 9.63874C6.9075 9.93006 6.6526 10.185 6.36127 10.185ZM6.36127 8.00005H4.17635C3.88503 8.00005 3.63013 7.74514 3.63013 7.45382C3.63013 7.1625 3.88503 6.90759 4.17635 6.90759H6.36127C6.6526 6.90759 6.9075 7.1625 6.9075 7.45382C6.9075 7.74514 6.6526 8.00005 6.36127 8.00005Z" fill="black"/>
</svg>
