<svg width="16" height="16" viewBox="0 0 16 16" fill="none" xmlns="http://www.w3.org/2000/svg">
<path fill-rule="evenodd" clip-rule="evenodd" d="M1.8002 1.06641C1.46882 1.06641 1.2002 1.33504 1.2002 1.66641V4.00255V6.07142V8.26641C1.2002 8.59778 1.46882 8.86641 1.8002 8.86641H7.10019C7.43157 8.86641 7.70019 8.59778 7.70019 8.26641V6.07142V4.00255V1.66641C7.70019 1.33504 7.43157 1.06641 7.10019 1.06641H1.8002ZM2.4002 3.40255V2.26641H6.5002V3.40255H2.4002ZM2.4002 4.60255H6.5002V5.47142H2.4002V4.60255ZM2.4002 6.67142H6.5002V7.66641H2.4002V6.67142ZM10.2702 2.93315H12.6669C13.0719 2.93315 13.4002 3.26148 13.4002 3.66649V6.23315H14.6002V3.66649C14.6002 2.59873 13.7346 1.73315 12.6669 1.73315H10.2702V2.93315ZM2.60015 12.9999V10.6032H1.40015V12.9999C1.40015 14.0676 2.26573 14.9332 3.33348 14.9332H5.73015V13.7332H3.33348C2.92847 13.7332 2.60015 13.4049 2.60015 12.9999ZM8.37592 9.10372C8.48845 8.9912 8.64106 8.92798 8.8002 8.92798H10.6305C10.7851 8.92798 10.9338 8.98767 11.0455 9.09461L11.9212 9.93316H14.2002C14.5316 9.93316 14.8002 10.2018 14.8002 10.5332V14.3332C14.8002 14.6645 14.5316 14.9332 14.2002 14.9332H8.80034C8.46898 14.9332 8.20035 14.6645 8.20034 14.3332L8.2002 9.528C8.20019 9.36886 8.2634 9.21625 8.37592 9.10372ZM9.40021 10.128L9.40032 13.7332H13.6002V11.1332H11.6803C11.5256 11.1332 11.377 11.0735 11.2653 10.9665L10.3896 10.128H9.40021Z" fill="black"/>
</svg>
