<svg width="16" height="16" viewBox="0 0 16 16" fill="none" xmlns="http://www.w3.org/2000/svg">
<path fill-rule="evenodd" clip-rule="evenodd" d="M3.32767 6.33275L7.8906 2.9983L12.629 6.33275H14.1646L7.8906 1.94531L1.83594 6.33275H3.32767ZM9.7772 6.81536V6.46436H6.22338V6.81536H6.00401V6.24498H9.99658L9.99658 6.81536H9.7772ZM9.99658 6.94698H9.7772V7.29797H6.22338V6.94698H6.00401V8.74586H6.22338V8.39487H9.7772V8.74586H9.99658V6.94698ZM9.99658 8.87749H9.7772V9.22848H6.22338V8.87749H6.00401V10.6763H6.22338V10.3253H9.7772V10.6763H9.99658V8.87749ZM9.99658 10.808H9.7772V11.159H6.22338V10.808H6.00401V12.6068H6.22338V12.2558H9.7772V12.6068H9.99658V10.808ZM9.99658 12.7384H9.7772V13.0894H6.22338V12.7384H6.00401V13.3526H9.99658L9.99658 12.7384ZM6.57438 6.94579H6.7048V6.81537H6.57438V6.94579ZM7.01192 6.94579H6.8815V6.81537H7.01192V6.94579ZM7.3641 7.16637H7.49572V6.63988H7.3641V7.16637ZM7.71511 7.16637H7.58349V6.63988H7.71511V7.16637ZM7.80285 7.16637H7.93447V6.63988H7.80285V7.16637ZM8.15385 7.16637H8.02223V6.63988H8.15385V7.16637ZM8.24159 7.16637H8.37321V6.63988H8.24159V7.16637ZM8.59259 7.16637H8.46097V6.63988H8.59259V7.16637ZM8.68034 7.16637H8.81197V6.63988H8.68034V7.16637ZM9.03134 7.16637H8.89972V6.63988H9.03134V7.16637ZM9.11908 7.16637H9.2507V6.63988H9.11908V7.16637ZM9.47008 7.16637H9.33846V6.63988H9.47008V7.16637ZM6.7048 8.8763H6.57438V8.74588H6.7048V8.8763ZM6.8815 8.8763H7.01192V8.74588H6.8815V8.8763ZM7.49572 9.09685H7.3641V8.57036H7.49572V9.09685ZM7.58349 9.09685H7.71511V8.57036H7.58349V9.09685ZM7.93447 9.09685H7.80285V8.57036H7.93447V9.09685ZM8.02223 9.09685H8.15385V8.57036H8.02223V9.09685ZM8.37321 9.09685H8.24159V8.57036H8.37321V9.09685ZM8.46097 9.09685H8.59259V8.57036H8.46097V9.09685ZM8.81197 9.09685H8.68034V8.57036H8.81197V9.09685ZM8.89972 9.09685H9.03134V8.57036H8.89972V9.09685ZM9.2507 9.09685H9.11908V8.57036H9.2507V9.09685ZM9.33846 9.09685H9.47008V8.57036H9.33846V9.09685ZM6.57438 10.8067H6.7048V10.6763H6.57438V10.8067ZM7.01192 10.8067H6.8815V10.6763H7.01192V10.8067ZM7.3641 11.0273H7.49572V10.5008H7.3641V11.0273ZM7.71511 11.0273H7.58349V10.5008H7.71511V11.0273ZM7.80285 11.0273H7.93447V10.5008H7.80285V11.0273ZM8.15385 11.0273H8.02223V10.5008H8.15385V11.0273ZM8.24159 11.0273H8.37321V10.5008H8.24159V11.0273ZM8.59259 11.0273H8.46097V10.5008H8.59259V11.0273ZM8.68034 11.0273H8.81197V10.5008H8.68034V11.0273ZM9.03134 11.0273H8.89972V10.5008H9.03134V11.0273ZM9.11908 11.0273H9.2507V10.5008H9.11908V11.0273ZM9.47008 11.0273H9.33846V10.5008H9.47008V11.0273ZM6.7048 12.7372H6.57438V12.6068H6.7048V12.7372ZM6.8815 12.7372H7.01192V12.6068H6.8815V12.7372ZM7.49572 12.9578H7.3641V12.4313H7.49572V12.9578ZM7.58349 12.9578H7.71511V12.4313H7.58349V12.9578ZM7.93447 12.9578H7.80285V12.4313H7.93447V12.9578ZM8.02223 12.9578H8.15385V12.4313H8.02223V12.9578ZM8.37321 12.9578H8.24159V12.4313H8.37321V12.9578ZM8.46097 12.9578H8.59259V12.4313H8.46097V12.9578ZM8.81197 12.9578H8.68034V12.4313H8.81197V12.9578ZM8.89972 12.9578H9.03134V12.4313H8.89972V12.9578ZM9.2507 12.9578H9.11908V12.4313H9.2507V12.9578ZM9.33846 12.9578H9.47008V12.4313H9.33846V12.9578ZM2.01143 13.8353H5.03876V13.221L2.5818 13.2649L2.56935 11.5977H2.75729V11.9487H4.95101L4.95101 11.8171H4.81939V11.2906H4.95101L4.95101 11.1151H2.80116V11.4661H2.56837L2.54905 8.87748H2.75729V9.22848H4.95101L4.95101 9.09685H4.81939V8.57035H4.95101L4.95101 8.39487H2.80116V8.74586H2.54807L2.53792 7.38574H4.99489V6.81537H1.96755L2.01143 13.8353ZM10.6986 14.0546H5.30202V5.543H10.6986V14.0546ZM11.0057 13.8353H14.0769V6.81537H11.0496V7.38574H13.5065V13.2649L11.0057 13.221V13.8353ZM3.28258 8.8763H3.15216V8.74587H3.28258V8.8763ZM3.41541 8.8763H3.54583V8.74587H3.41541V8.8763ZM4.02966 9.09685H3.89804V8.57035H4.02966V9.09685ZM4.1174 9.09685H4.24902V8.57035H4.1174V9.09685ZM4.46838 9.09685H4.38063V8.57035H4.51226V9.09685H4.46838ZM4.60003 9.09685H4.68777H4.73165V8.57035H4.60003V9.09685ZM3.28258 11.6404H3.15216V11.5099H3.28258V11.6404ZM3.41541 11.6404H3.54583V11.5099H3.41541V11.6404ZM4.02966 11.8171H3.89804V11.2906H4.02966V11.8171ZM4.1174 11.8171H4.24902V11.2906H4.1174V11.8171ZM4.46838 11.8171H4.38063V11.2906H4.51226V11.8171H4.46838ZM4.60003 11.8171H4.68777H4.73165V11.2906H4.60003V11.8171ZM11.0496 8.39484V9.22845H13.2433V8.87745H13.4627V8.74583H13.2433V8.39484H11.0496ZM12.8045 8.74585H12.935V8.87627H12.8045V8.74585ZM12.6278 8.74585H12.4974V8.87627H12.6278V8.74585ZM12.0148 8.57032H12.1464V9.09682H12.0148V8.57032ZM11.927 8.57032H11.7954V9.09682H11.927V8.57032ZM11.576 8.57032H11.7077V9.09682H11.576V8.57032ZM11.4883 8.57032H11.3567V9.09682H11.4883V8.57032ZM11.1373 9.09682V8.57032H11.2689V9.09682H11.1373ZM11.0496 11.9487V11.115H13.2433V11.466H13.4627V11.5977H13.2433V11.9487H11.0496ZM12.8045 11.5099H12.935V11.6403H12.8045V11.5099ZM12.6278 11.5099H12.4974V11.6403H12.6278V11.5099ZM12.0148 11.2906H12.1464V11.8171H12.0148V11.2906ZM11.927 11.2906H11.7954V11.8171H11.927V11.2906ZM11.576 11.2906H11.7077V11.8171H11.576V11.2906ZM11.4883 11.2906H11.3567V11.8171H11.4883V11.2906ZM11.1373 11.8171V11.2906H11.2689V11.8171H11.1373Z" fill="black"/>
</svg>
