<svg width="16" height="16" viewBox="0 0 16 16" fill="none" xmlns="http://www.w3.org/2000/svg">
<path d="M12.6429 1.5C13.6685 1.5 14.5 2.33147 14.5 3.35714V12.6429C14.5 13.6685 13.6685 14.5 12.6429 14.5H3.35714C2.33147 14.5 1.5 13.6685 1.5 12.6429V3.35714C1.5 2.33147 2.33147 1.5 3.35714 1.5H12.6429ZM12.6429 2.42857H3.35714C2.88094 2.42857 2.48846 2.78704 2.43482 3.24885L2.42857 3.35714V12.6429C2.42857 13.1191 2.78704 13.5115 3.24885 13.5652L3.35714 13.5714H12.6429C13.1191 13.5714 13.5115 13.213 13.5652 12.7511L13.5714 12.6429V3.35714C13.5714 2.88094 13.213 2.48846 12.7511 2.43482L12.6429 2.42857ZM11.8988 10.0134C12.1552 10.0134 12.363 10.2213 12.363 10.4777C12.363 10.7056 12.1988 10.8952 11.9822 10.9345L11.8988 10.942H4.10125C3.84483 10.942 3.63696 10.7341 3.63696 10.4777C3.63696 10.2498 3.8012 10.0602 4.01779 10.0209L4.10125 10.0134H11.8988ZM11.8988 7.53571C12.1552 7.53571 12.363 7.74358 12.363 8C12.363 8.22793 12.1988 8.41749 11.9822 8.45681L11.8988 8.46429H4.10125C3.84483 8.46429 3.63696 8.25642 3.63696 8C3.63696 7.77207 3.8012 7.58251 4.01779 7.54319L4.10125 7.53571H11.8988ZM7.42381 5.05802C7.68023 5.05802 7.88809 5.26589 7.88809 5.52231C7.88809 5.75023 7.72385 5.9398 7.50726 5.97911L7.42381 5.98659H4.10125C3.84483 5.98659 3.63696 5.77873 3.63696 5.52231C3.63696 5.29438 3.8012 5.10481 4.01779 5.0655L4.10125 5.05802H7.42381Z" fill="black"/>
</svg>
