<svg width="16" height="16" viewBox="0 0 16 16" fill="none" xmlns="http://www.w3.org/2000/svg">
<path d="M6.70322 3.58085L8.09244 4.99974H12.5679C13.1079 4.99974 13.4934 5.39401 13.4934 5.94508V7.98795C12.9916 7.75804 12.4359 7.63001 11.8524 7.63001C9.62057 7.63001 7.84845 9.47905 7.84845 11.7308C7.84845 12.875 8.30603 13.9063 9.04882 14.6439H2.38064C1.84059 14.6439 1.45508 14.2496 1.45508 13.6985V4.52619C1.45508 3.97467 1.84102 3.58085 2.38064 3.58085H6.70322ZM11.8289 8.45618C13.4946 8.45574 14.8621 9.83078 14.8621 11.5367C14.863 12.3611 14.5439 13.1519 13.9748 13.7348C13.4056 14.3178 12.6338 14.6447 11.8289 14.6439C10.1384 14.6439 8.79562 13.2688 8.79562 11.5629C8.79562 9.85692 10.1379 8.45618 11.8289 8.45618ZM12.5587 9.71427C12.2079 9.71427 11.924 10.0044 11.924 10.3619C11.924 10.3823 11.9248 10.4022 11.9266 10.4226L11.1434 11.0698C11.0401 10.9958 10.9146 10.9529 10.7792 10.9529C10.4284 10.9529 10.1445 11.243 10.1445 11.6005C10.1445 11.958 10.4288 12.2482 10.7792 12.2482C10.9064 12.2482 11.0253 12.2101 11.1247 12.1441L11.924 12.8285V12.8387C11.924 13.1966 12.2083 13.4863 12.5587 13.4863C12.909 13.4863 13.1934 13.1962 13.1934 12.8387C13.1934 12.4807 12.909 12.191 12.5587 12.191C12.3941 12.191 12.2439 12.2548 12.131 12.3598L11.4004 11.7339C11.4095 11.6909 11.4139 11.6461 11.4139 11.6001C11.4139 11.5629 11.4108 11.5261 11.4047 11.4902L12.1601 10.866C12.2691 10.956 12.4076 11.0096 12.5587 11.0096C12.9094 11.0096 13.1934 10.7194 13.1934 10.3619C13.1934 10.0044 12.909 9.71427 12.5587 9.71427ZM10.6566 2.24125C11.5822 2.24125 12.3541 2.55666 13.0483 3.02933L12.3537 3.58085C11.8904 3.26588 11.3504 3.02933 10.6558 3.02933C10.0946 3.02933 9.53335 3.22446 9.08793 3.49691L8.95876 3.58085L8.26502 3.02933C8.95919 2.55666 9.80835 2.24125 10.6566 2.24125ZM10.7339 0.823242C12.0454 0.823242 13.2796 1.2175 14.2829 2.00558L14.3598 2.08443L13.7424 2.5571H13.6656C12.8941 1.84788 11.8136 1.53247 10.7335 1.53247C9.65337 1.53247 8.57282 1.84743 7.80137 2.47781L7.80224 2.47825C7.77374 2.52514 7.74234 2.54171 7.70887 2.62012L7.09399 2.15277C7.09399 2.11947 7.13484 2.06628 7.18491 2.00558C8.11047 1.2175 9.34513 0.823242 10.7339 0.823242Z" fill="black"/>
</svg>
