<svg width="16" height="16" viewBox="0 0 16 16" fill="none" xmlns="http://www.w3.org/2000/svg">
<path d="M4.76354 4.53616C4.49604 4.53616 4.28204 4.75066 4.28204 5.01516C4.28204 5.28166 4.49754 5.49466 4.76404 5.49416H11.5065C11.774 5.49416 11.988 5.27966 11.988 5.01516C11.988 4.74866 11.773 4.53616 11.5065 4.53616H4.76354Z" fill="black"/>
<path d="M4.28204 6.93216C4.28204 6.66766 4.49604 6.45316 4.76354 6.45316H11.5065C11.773 6.45316 11.988 6.66566 11.988 6.93216C11.988 7.19666 11.774 7.41116 11.5065 7.41116H4.76404C4.49754 7.41116 4.28204 7.19816 4.28204 6.93216Z" fill="black"/>
<path d="M4.76354 8.36966C4.49604 8.36966 4.28204 8.58416 4.28204 8.84866C4.28204 9.11516 4.49754 9.32766 4.76404 9.32766H11.5065C11.774 9.32766 11.988 9.11316 11.988 8.84866C11.988 8.58216 11.773 8.36966 11.5065 8.36966H4.76354Z" fill="black"/>
<path fill-rule="evenodd" clip-rule="evenodd" d="M2.95304 1.59766H13.018C13.969 1.59766 14.743 2.43116 14.743 3.45216L14.7715 10.2797C14.7715 11.3042 13.9975 12.1387 13.046 12.1387H8.43404L6.55954 14.0577C6.20304 14.4227 5.83704 14.4992 5.59254 14.4992C5.00004 14.4992 4.40104 14.0447 4.40104 13.1767V12.1392L2.98104 12.1387C2.02954 12.1387 1.25604 11.3047 1.25604 10.2837L1.22754 3.45666C1.22754 2.43116 2.00154 1.59766 2.95304 1.59766ZM13.7215 3.45666C13.7215 2.99416 13.4065 2.61966 13.018 2.61966H2.95254C2.56454 2.61966 2.25004 2.99416 2.25004 3.45666L2.27854 10.2792C2.27854 10.7412 2.59254 11.1157 2.98104 11.1157L5.42354 11.1177V13.1767C5.42354 13.3722 5.49004 13.4772 5.59304 13.4772C5.65904 13.4772 5.74054 13.4337 5.82854 13.3437L7.81004 11.3142C7.93954 11.1827 8.10654 11.1162 8.27254 11.1162H13.046C13.4345 11.1162 13.7495 10.7417 13.7495 10.2797L13.7215 3.45666Z" fill="black"/>
</svg>
