<svg width="16" height="16" viewBox="0 0 16 16" fill="none" xmlns="http://www.w3.org/2000/svg">
<path fill-rule="evenodd" clip-rule="evenodd" d="M2 2C2 1.44772 2.44772 1 3 1H13C13.5523 1 14 1.44772 14 2V14C14 14.5523 13.5523 15 13 15H3C2.44772 15 2 14.5523 2 14V2ZM12 7C12 9.20914 10.2091 11 8 11C7.86939 11 7.74025 10.9937 7.61284 10.9815L9.25113 9.18901C9.4302 8.99309 9.42341 8.69095 9.23573 8.50327C9.04805 8.31559 8.74591 8.3088 8.54998 8.48787L6.24438 10.5951C6.34778 10.6457 6.45367 10.692 6.56184 10.7337C5.06325 10.1561 4 8.7022 4 7C4 4.79086 5.79086 3 8 3C10.2091 3 12 4.79086 12 7ZM3.5 14C3.77614 14 4 13.7761 4 13.5C4 13.2239 3.77614 13 3.5 13C3.22386 13 3 13.2239 3 13.5C3 13.7761 3.22386 14 3.5 14ZM13 13.5C13 13.7761 12.7761 14 12.5 14C12.2239 14 12 13.7761 12 13.5C12 13.2239 12.2239 13 12.5 13C12.7761 13 13 13.2239 13 13.5ZM12.5 3C12.7761 3 13 2.77614 13 2.5C13 2.22386 12.7761 2 12.5 2C12.2239 2 12 2.22386 12 2.5C12 2.77614 12.2239 3 12.5 3ZM4 2.5C4 2.77614 3.77614 3 3.5 3C3.22386 3 3 2.77614 3 2.5C3 2.22386 3.22386 2 3.5 2C3.77614 2 4 2.22386 4 2.5ZM7.61273 10.9816L6.48668 12.2136C6.22506 12.4999 5.77747 12.5099 5.50326 12.2357C5.22904 11.9615 5.2391 11.5139 5.52535 11.2523L6.24427 10.5952C6.66436 10.8007 7.12579 10.9348 7.61273 10.9816ZM8 8C8.55229 8 9 7.55228 9 7C9 6.44772 8.55229 6 8 6C7.44772 6 7 6.44772 7 7C7 7.55228 7.44772 8 8 8Z" fill="black"/>
</svg>
