<svg width="16" height="16" viewBox="0 0 16 16" fill="none" xmlns="http://www.w3.org/2000/svg">
<path fill-rule="evenodd" clip-rule="evenodd" d="M1.62402 1.99902C1.62402 1.44674 2.07174 0.999023 2.62402 0.999023H12.624C13.1763 0.999023 13.624 1.44674 13.624 1.99902V9.33584C13.1694 9.11987 12.6608 8.99902 12.124 8.99902C11.719 8.99902 11.3301 9.06781 10.9683 9.19433C11.3828 8.56412 11.624 7.80974 11.624 6.99902C11.624 4.78988 9.83316 2.99902 7.62402 2.99902C5.41488 2.99902 3.62402 4.78988 3.62402 6.99902C3.62402 8.57836 4.53933 9.9439 5.86841 10.5941L8.17401 8.48689C8.36993 8.30782 8.67207 8.31461 8.85975 8.50229C9.04744 8.68998 9.05422 8.99212 8.87516 9.18804L7.23687 10.9805C7.36427 10.9928 7.49341 10.999 7.62402 10.999C8.15055 10.999 8.65332 10.8973 9.11374 10.7124C8.80267 11.2354 8.62402 11.8463 8.62402 12.499C8.62402 13.4784 9.02626 14.3638 9.67453 14.999H2.62402C2.07174 14.999 1.62402 14.5513 1.62402 13.999V1.99902ZM3.12402 13.999C3.40017 13.999 3.62402 13.7752 3.62402 13.499C3.62402 13.2229 3.40017 12.999 3.12402 12.999C2.84788 12.999 2.62402 13.2229 2.62402 13.499C2.62402 13.7752 2.84788 13.999 3.12402 13.999ZM12.124 2.99902C12.4002 2.99902 12.624 2.77517 12.624 2.49902C12.624 2.22288 12.4002 1.99902 12.124 1.99902C11.8479 1.99902 11.624 2.22288 11.624 2.49902C11.624 2.77517 11.8479 2.99902 12.124 2.99902ZM3.62402 2.49902C3.62402 2.77517 3.40017 2.99902 3.12402 2.99902C2.84788 2.99902 2.62402 2.77517 2.62402 2.49902C2.62402 2.22288 2.84788 1.99902 3.12402 1.99902C3.40017 1.99902 3.62402 2.22288 3.62402 2.49902ZM7.23675 10.9806L6.1107 12.2127C5.84908 12.4989 5.40149 12.509 5.12728 12.2347C4.85307 11.9605 4.86312 11.5129 5.14937 11.2513L5.86829 10.5942C6.28839 10.7998 6.74982 10.9338 7.23675 10.9806ZM7.62402 7.99902C8.17631 7.99902 8.62402 7.55131 8.62402 6.99902C8.62402 6.44674 8.17631 5.99902 7.62402 5.99902C7.07174 5.99902 6.62402 6.44674 6.62402 6.99902C6.62402 7.55131 7.07174 7.99902 7.62402 7.99902ZM12.5109 10.0517C12.1736 9.9813 11.8254 9.98147 11.4881 10.0522V10.0524C11.4656 10.2007 11.41 10.3419 11.3254 10.4657C11.2409 10.5895 11.1295 10.6926 10.9996 10.7675C10.8697 10.8426 10.7246 10.8874 10.575 10.8987C10.4254 10.91 10.2752 10.8875 10.1355 10.8327C9.90607 11.0898 9.73195 11.3913 9.62402 11.7185C9.74129 11.8121 9.83594 11.9309 9.90095 12.0662C9.96597 12.2014 9.99967 12.3495 9.99954 12.4996C9.99965 12.6495 9.96599 12.7975 9.90107 12.9326C9.83615 13.0677 9.74163 13.1865 9.62452 13.2801C9.73178 13.6077 9.90569 13.9095 10.1353 14.1666C10.275 14.1118 10.4252 14.0892 10.5749 14.1005C10.7245 14.1117 10.8697 14.1566 10.9996 14.2316C11.1297 14.3066 11.2412 14.4099 11.3258 14.5339C11.4104 14.658 11.466 14.7995 11.4884 14.9479C11.8257 15.0182 12.174 15.0178 12.5112 14.9469C12.5337 14.7987 12.5893 14.6575 12.6739 14.5337C12.7584 14.4099 12.8698 14.3068 12.9997 14.2319C13.1296 14.1568 13.2747 14.1119 13.4243 14.1006C13.5739 14.0893 13.7241 14.1119 13.8637 14.1666C14.0932 13.9096 14.2673 13.6081 14.3753 13.2809C14.1462 13.0976 13.9997 12.8158 13.9997 12.4998C13.9996 12.3498 14.0332 12.2017 14.0981 12.0665C14.163 11.9313 14.2576 11.8124 14.3748 11.7188C14.2675 11.3913 14.0936 11.0895 13.864 10.8325C13.7243 10.8873 13.574 10.9098 13.4244 10.8985C13.2748 10.8872 13.1296 10.8424 12.9997 10.7672C12.8697 10.6923 12.7582 10.5891 12.6736 10.4653C12.589 10.3414 12.5334 10.2 12.5109 10.0517ZM12.53 13.0302C12.3893 13.1708 12.1986 13.2498 11.9996 13.2498C11.8007 13.2498 11.6099 13.1708 11.4693 13.0302C11.3286 12.8895 11.2496 12.6987 11.2496 12.4998C11.2496 12.3009 11.3286 12.1101 11.4693 11.9695C11.6099 11.8288 11.8007 11.7498 11.9996 11.7498C12.1986 11.7498 12.3893 11.8288 12.53 11.9695C12.6707 12.1101 12.7497 12.3009 12.7497 12.4998C12.7497 12.6987 12.6707 12.8895 12.53 13.0302Z" fill="black"/>
</svg>
