<svg width="16" height="16" viewBox="0 0 16 16" fill="none" xmlns="http://www.w3.org/2000/svg">
<path fill-rule="evenodd" clip-rule="evenodd" d="M13.8 8C13.8 11.2033 11.2033 13.8 8 13.8C4.79675 13.8 2.2 11.2033 2.2 8C2.2 4.79675 4.79675 2.2 8 2.2C11.2033 2.2 13.8 4.79675 13.8 8ZM15 8C15 11.866 11.866 15 8 15C4.13401 15 1 11.866 1 8C1 4.13401 4.13401 1 8 1C11.866 1 15 4.13401 15 8ZM7.11614 11.3234L11.783 6.65645L10.9345 5.80792L7.11614 9.6263L5.06553 7.5757L4.21701 8.42423L7.11614 11.3234Z" fill="black"/>
</svg>
