<svg width="16" height="16" viewBox="0 0 16 16" fill="none" xmlns="http://www.w3.org/2000/svg">
<path d="M3.20039 13.1998H6.35039L7.30039 14.1498H3.20039C2.60039 14.1498 2.15039 13.6498 2.15039 13.0998V1.8498C2.15039 1.2498 2.65039 0.799805 3.20039 0.799805H11.5504C12.1504 0.799805 12.6004 1.2998 12.6004 1.8498V8.0498L11.6504 7.0998V1.8498C11.6504 1.7998 11.6004 1.7498 11.5504 1.7498H3.20039C3.15039 1.7498 3.10039 1.7998 3.10039 1.8498V13.0998C3.10039 13.1498 3.15039 13.1998 3.20039 13.1998Z" fill="black"/>
<path fill-rule="evenodd" clip-rule="evenodd" d="M12.5504 12.8998L14.7004 15.0498L14.4004 15.3498C14.3004 15.4498 14.2004 15.4998 14.0504 15.4998C13.9504 15.4998 13.8504 15.4498 13.7504 15.3998L11.9004 13.5498C11.3504 13.9998 10.7004 14.2498 9.95039 14.2498C8.20039 14.2498 6.75039 12.7998 6.75039 11.0498C6.75039 9.2998 8.20039 7.8498 9.95039 7.8498C11.7004 7.8498 13.1504 9.2998 13.1504 11.0498C13.1504 11.7498 12.9004 12.3998 12.5504 12.8998ZM7.75039 11.0998C7.75039 12.3498 8.75039 13.3498 10.0004 13.3498C11.2504 13.3498 12.2504 12.2998 12.2504 11.0998C12.2504 9.8498 11.2504 8.8498 10.0004 8.8498C8.75039 8.8498 7.75039 9.8498 7.75039 11.0998Z" fill="black"/>
</svg>
