<svg width="16" height="16" viewBox="0 0 16 16" fill="none" xmlns="http://www.w3.org/2000/svg">
<g clip-path="url(#clip0_1_1529)">
<path d="M7.99983 15.0016C4.13286 15.0016 0.998047 11.8668 0.998047 7.99983C0.998047 4.13286 4.13284 0.998047 7.99983 0.998047C11.8668 0.998047 15.0016 4.13284 15.0016 7.99983C15.0016 11.8668 11.8668 15.0016 7.99983 15.0016ZM5.04475 6.00048C5.65254 5.00418 6.74965 4.33901 8.00209 4.33901C9.91393 4.33901 11.4638 5.88885 11.4638 7.8007C11.4638 7.80489 11.4638 7.80909 11.4638 7.81328H12.4708C12.4708 7.80909 12.4708 7.80489 12.4708 7.8007C12.4708 5.3327 10.4701 3.33198 8.00209 3.33198C6.46392 3.33198 5.10726 4.10912 4.30335 5.29218L3.33198 4.36419V6.88179H5.96725L5.04475 6.00049V6.00048ZM11.6886 10.3271L12.6677 11.2624V8.74479H10.0324L10.948 9.61952C10.338 10.6055 9.24675 11.2624 8.00209 11.2624C6.09026 11.2624 4.5404 9.71253 4.5404 7.80068C4.5404 7.79649 4.5404 7.79229 4.54042 7.7881H3.53339C3.53337 7.79229 3.53337 7.79649 3.53337 7.80068C3.53337 10.2687 5.53409 12.2694 8.00209 12.2694C9.53249 12.2694 10.8832 11.5001 11.6886 10.3271V10.3271ZM7.74268 8.02924C7.75812 8.17252 7.78389 8.27923 7.81996 8.34932C7.85602 8.41941 7.92042 8.45447 8.01316 8.45447C8.10418 8.45447 8.16944 8.41826 8.20896 8.34585C8.24847 8.27345 8.27421 8.16944 8.28623 8.03387L8.397 6.89452C8.40902 6.78974 8.41503 6.68652 8.41503 6.58482C8.41503 6.41225 8.39013 6.28015 8.34033 6.18848C8.29053 6.09682 8.19178 6.05097 8.04409 6.05097C7.92214 6.05097 7.82382 6.08678 7.74912 6.15844C7.67441 6.23009 7.63705 6.32983 7.63705 6.45771C7.63705 6.55168 7.64478 6.70654 7.66025 6.92223L7.74268 8.02924ZM8.02862 9.54994C8.13166 9.54994 8.22183 9.51913 8.2991 9.4575C8.37638 9.39587 8.41503 9.31114 8.41503 9.20328C8.41503 9.10774 8.37683 9.02649 8.30042 8.95946C8.224 8.89243 8.13168 8.85894 8.02348 8.85894C7.91528 8.85894 7.82384 8.89245 7.74912 8.95946C7.67439 9.02647 7.63707 9.10774 7.63707 9.20328C7.63707 9.31267 7.67615 9.39778 7.75428 9.45865C7.83241 9.51951 7.92387 9.54994 8.02862 9.54994Z" fill="black"/>
</g>
<defs>
<clipPath id="clip0_1_1529">
<rect width="16" height="16" fill="white"/>
</clipPath>
</defs>
</svg>
