<svg width="16" height="16" viewBox="0 0 16 16" fill="none" xmlns="http://www.w3.org/2000/svg">
<path fill-rule="evenodd" clip-rule="evenodd" d="M6.75 3.25C6.75 2.55964 6.19036 2 5.5 2C4.80964 2 4.25 2.55964 4.25 3.25C4.25 3.94036 4.80964 4.5 5.5 4.5C6.19036 4.5 6.75 3.94036 6.75 3.25ZM6.75 8C6.75 7.30964 6.19036 6.75 5.5 6.75C4.80964 6.75 4.25 7.30964 4.25 8C4.25 8.69036 4.80964 9.25 5.5 9.25C6.19036 9.25 6.75 8.69036 6.75 8ZM5.5 11.5C6.19036 11.5 6.75 12.0596 6.75 12.75C6.75 13.4404 6.19036 14 5.5 14C4.80964 14 4.25 13.4404 4.25 12.75C4.25 12.0596 4.80964 11.5 5.5 11.5ZM11.75 3.25C11.75 2.55964 11.1904 2 10.5 2C9.80964 2 9.25 2.55964 9.25 3.25C9.25 3.94036 9.80964 4.5 10.5 4.5C11.1904 4.5 11.75 3.94036 11.75 3.25ZM11.75 8C11.75 7.30964 11.1904 6.75 10.5 6.75C9.80964 6.75 9.25 7.30964 9.25 8C9.25 8.69036 9.80964 9.25 10.5 9.25C11.1904 9.25 11.75 8.69036 11.75 8ZM10.5 11.5C11.1904 11.5 11.75 12.0596 11.75 12.75C11.75 13.4404 11.1904 14 10.5 14C9.80964 14 9.25 13.4404 9.25 12.75C9.25 12.0596 9.80964 11.5 10.5 11.5Z" fill="black"/>
</svg>
