<svg width="20" height="20" viewBox="0 0 20 20" fill="none" xmlns="http://www.w3.org/2000/svg">
<path fill-rule="evenodd" clip-rule="evenodd" d="M16.3 10C16.3 13.4794 13.4794 16.3 10 16.3C6.52061 16.3 3.7 13.4794 3.7 10C3.7 6.52061 6.52061 3.7 10 3.7C13.4794 3.7 16.3 6.52061 16.3 10ZM17.5 10C17.5 14.1421 14.1421 17.5 10 17.5C5.85786 17.5 2.5 14.1421 2.5 10C2.5 5.85786 5.85786 2.5 10 2.5C14.1421 2.5 17.5 5.85786 17.5 10ZM10.0933 15.2677C12.9928 15.2677 15.3433 12.9172 15.3433 10.0177C15.3433 7.11824 12.9928 4.76773 10.0933 4.76773C7.19377 4.76773 4.84326 7.11824 4.84326 10.0177C4.84326 12.9172 7.19377 15.2677 10.0933 15.2677Z" fill="#7855FA"/>
<path fill-rule="evenodd" clip-rule="evenodd" d="M9.33464 6.4956C9.1429 6.29688 8.82637 6.29122 8.62765 6.48296C8.42893 6.6747 8.42327 6.99123 8.61501 7.18995C8.81785 7.40017 9.08686 7.56097 9.37394 7.68781L6.78615 9.18187C6.49918 9.34756 6.40085 9.71451 6.56654 10.0015C6.73222 10.2885 7.09918 10.3868 7.38615 10.2211L11.5431 7.8211C11.8301 7.65542 11.9284 7.28846 11.7627 7.00149C11.6955 6.88504 11.5951 6.79965 11.4804 6.75036C11.3524 6.67932 11.1946 6.6648 11.0485 6.72436C10.5355 6.93356 10.2038 6.93513 10.0031 6.86271C9.66253 6.73979 9.44623 6.61125 9.33464 6.4956ZM7.53554 11.4955C7.36986 11.2085 7.46818 10.8416 7.75516 10.6759L11.9121 8.27589C12.1991 8.11021 12.566 8.20853 12.7317 8.49551C12.8974 8.78248 12.7991 9.14944 12.5121 9.31512L8.35516 11.7151C8.06818 11.8808 7.70123 11.7825 7.53554 11.4955ZM8.41457 13.0415C8.24889 12.7545 8.34721 12.3876 8.63419 12.2219L12.7911 9.82188C13.0781 9.6562 13.445 9.75452 13.6107 10.0415C13.7764 10.3285 13.6781 10.6954 13.3911 10.8611L10.8367 12.3359C11.123 12.4626 11.3913 12.6231 11.5936 12.8328C11.7853 13.0315 11.7797 13.3481 11.581 13.5398C11.3822 13.7316 11.0657 13.7259 10.874 13.5272C10.7624 13.4115 10.5461 13.283 10.2055 13.1601C10.0048 13.0876 9.67308 13.0892 9.16007 13.2984C9.13526 13.3085 9.11011 13.3165 9.08483 13.3224C8.83012 13.3886 8.55255 13.2805 8.41457 13.0415Z" fill="#C6C3FF"/>
</svg>
