<svg width="16" height="16" viewBox="0 0 16 16" fill="none" xmlns="http://www.w3.org/2000/svg">
<path fill-rule="evenodd" clip-rule="evenodd" d="M13.1997 2.19961C13.1997 2.04048 13.1365 1.88787 13.024 1.77535C12.9114 1.66282 12.7588 1.59961 12.5997 1.59961H3.39971C3.06834 1.59961 2.79971 1.86824 2.79971 2.19961L2.79971 4.19946H2.19961C1.86824 4.19946 1.59961 4.46809 1.59961 4.79946V13.7995C1.59961 14.1308 1.86824 14.3995 2.19961 14.3995H13.7996C14.131 14.3995 14.3996 14.1308 14.3996 13.7995V4.79946C14.3996 4.46809 14.131 4.19946 13.7996 4.19946H13.1997L13.1997 2.19961ZM11.9997 4.19946V2.79961L3.99971 2.79961L3.99971 4.19946H4.59922C4.83628 4.19946 5.05112 4.33904 5.14745 4.55565L5.58943 5.54946H8.24961H10.4097L10.8513 4.55578C10.9476 4.3391 11.1625 4.19946 11.3996 4.19946H11.9997ZM2.79961 13.1995V5.39946H4.2094L4.65138 6.39328C4.74771 6.60988 4.96255 6.74946 5.19961 6.74946H8.24961H10.7996C11.0367 6.74946 11.2516 6.60982 11.3479 6.39315L11.7895 5.39946H13.1996V13.1995H2.79961ZM5.49961 8.40005H10.4996V9.60005H5.49961V8.40005ZM10.4996 10.5996H5.49961V11.7996H10.4996V10.5996Z" fill="black"/>
</svg>
