<svg width="16" height="16" viewBox="0 0 16 16" fill="none" xmlns="http://www.w3.org/2000/svg">
<path fill-rule="evenodd" clip-rule="evenodd" d="M1.6 1.40039C1.26863 1.40039 1 1.66902 1 2.00039V14.0004C1 14.3318 1.26863 14.6004 1.6 14.6004H14.4C14.7314 14.6004 15 14.3318 15 14.0004V2.00039C15 1.66902 14.7314 1.40039 14.4 1.40039H1.6ZM2.2 5.40049V2.60039H13.8V5.40049H2.2ZM2.2 6.60049V9.40049H13.8V6.60049H2.2ZM2.2 13.4004V10.6005H13.8V13.4004H2.2ZM11.4 3.39966C11.2895 3.39966 11.2 3.4892 11.2 3.59966V4.39966C11.2 4.51012 11.2895 4.59966 11.4 4.59966H12.2C12.3104 4.59966 12.4 4.51012 12.4 4.39966V3.59966C12.4 3.4892 12.3104 3.39966 12.2 3.39966H11.4ZM11.2 7.60039C11.2 7.48993 11.2895 7.40039 11.4 7.40039H12.2C12.3104 7.40039 12.4 7.48993 12.4 7.60039V8.40039C12.4 8.51085 12.3104 8.60039 12.2 8.60039H11.4C11.2895 8.60039 11.2 8.51085 11.2 8.40039V7.60039ZM11.4 11.4009C11.2895 11.4009 11.2 11.4904 11.2 11.6009V12.4009C11.2 12.5113 11.2895 12.6009 11.4 12.6009H12.2C12.3104 12.6009 12.4 12.5113 12.4 12.4009V11.6009C12.4 11.4904 12.3104 11.4009 12.2 11.4009H11.4Z" fill="black"/>
</svg>
