<svg width="16" height="16" viewBox="0 0 16 16" fill="none" xmlns="http://www.w3.org/2000/svg">
<path fill-rule="evenodd" clip-rule="evenodd" d="M7.56158 7.82742C7.01102 7.73387 6.51906 7.42823 6.19128 6.97609L4.23453 7.84751C4.37573 8.51514 4.00123 9.18425 3.35832 9.413C2.71541 9.64176 2.00244 9.35959 1.69019 8.75283C1.37795 8.14606 1.56276 7.40189 2.1226 7.01171C2.68244 6.62152 3.44458 6.7057 3.90577 7.20866L5.87401 6.33221C5.61541 5.46112 5.93676 4.52182 6.67474 3.99167C7.41273 3.46153 8.40547 3.45684 9.14844 3.97997C9.8914 4.50311 10.2216 5.43933 9.97128 6.31283L12.0623 7.24383C12.5059 6.72526 13.2647 6.61487 13.8376 6.98555C14.4106 7.35623 14.6209 8.09363 14.3297 8.71079C14.0385 9.32795 13.3357 9.63448 12.6852 9.42795C12.0348 9.22142 11.6376 8.56555 11.7558 7.89345L9.65975 6.95958C9.33263 7.42016 8.83624 7.73224 8.2794 7.82742V8.94936C9.15619 9.13324 9.75218 9.95004 9.65975 10.8411C9.56731 11.7322 8.81636 12.4093 7.92049 12.4093C7.02462 12.4093 6.27367 11.7322 6.18123 10.8411C6.0888 9.95004 6.68479 9.13324 7.56158 8.94936V7.82742ZM7.92048 6.79019C8.50959 6.79019 8.98715 6.31262 8.98715 5.72352C8.98715 5.13441 8.50959 4.65685 7.92048 4.65685C7.33138 4.65685 6.85382 5.13441 6.85382 5.72352C6.85382 6.31262 7.33138 6.79019 7.92048 6.79019ZM8.7948 10.6606C8.7948 11.1435 8.40336 11.5349 7.9205 11.5349V11.5342C7.44759 11.5206 7.07126 11.1334 7.07126 10.6603C7.07126 10.1872 7.44759 9.79987 7.9205 9.78632C8.40336 9.78632 8.7948 10.1778 8.7948 10.6606ZM2.90084 8.80939C3.14421 8.80939 3.3691 8.67955 3.49079 8.46879C3.61247 8.25802 3.61247 7.99834 3.49079 7.78758C3.3691 7.57681 3.14421 7.44698 2.90084 7.44698C2.52463 7.44698 2.21965 7.75197 2.21965 8.12818C2.21965 8.5044 2.52463 8.80938 2.90084 8.80939ZM13.6866 8.46879C13.5649 8.67955 13.34 8.80939 13.0966 8.80939C12.7204 8.80938 12.4154 8.5044 12.4154 8.12818C12.4154 7.75197 12.7204 7.44698 13.0966 7.44698C13.34 7.44698 13.5649 7.57681 13.6866 7.78758C13.8083 7.99834 13.8083 8.25802 13.6866 8.46879Z" fill="black"/>
</svg>
