<svg width="16" height="16" viewBox="0 0 16 16" fill="none" xmlns="http://www.w3.org/2000/svg">
<path fill-rule="evenodd" clip-rule="evenodd" d="M1.26895 1.56641C0.937574 1.56641 0.668945 1.83504 0.668945 2.16641V12.1664C0.668945 12.4978 0.937574 12.7664 1.26895 12.7664H3.69298L5.18392 14.2573C5.41823 14.4917 5.79813 14.4917 6.03244 14.2573L7.52337 12.7664H8.67854V11.5664H7.27485C7.11572 11.5664 6.9631 11.6296 6.85058 11.7421L5.60818 12.9845L4.36578 11.7421C4.25325 11.6296 4.10064 11.5664 3.94151 11.5664H1.86895V2.76641H14.0023V5.76641H15.2023V2.16641C15.2023 1.83504 14.9337 1.56641 14.6023 1.56641H1.26895ZM12.3023 9.56705L13.4578 7.96778C13.5773 7.81326 13.8214 7.76795 14.012 7.91159C14.2041 8.0563 14.2267 8.30608 14.1082 8.46339L14.0984 8.4767L13.6836 9.06136L14.6215 9.72686L15.0321 9.14815C15.5436 8.46101 15.3776 7.50066 14.7041 6.99316C14.0282 6.48384 13.0548 6.59155 12.5367 7.27921L11.3799 8.88002C11.0822 9.27855 11.0706 9.70817 11.1469 10.0715C11.2224 10.4305 11.4254 10.7654 11.7409 11.0031L12.433 10.0847C12.3453 10.0186 12.292 9.92866 12.2724 9.83501C12.2546 9.75055 12.2547 9.6966 12.2601 9.66185C12.2646 9.63245 12.2747 9.60358 12.3023 9.56705ZM12.6841 10.791C12.7824 10.6733 12.7754 10.3852 12.5859 10.2424L13.2781 9.32404C13.9493 9.83001 14.1123 10.8504 13.583 11.5083L12.4415 12.8807C11.9211 13.5572 10.9553 13.6607 10.2834 13.1544C9.59167 12.6331 9.46561 11.6099 9.97195 10.938L9.97798 10.93L10.0157 10.8818L10.1072 10.7641C10.1794 10.671 10.2633 10.5623 10.3166 10.4916L11.235 11.1837C11.1763 11.2616 11.0879 11.3761 11.0158 11.469L10.9228 11.5886L10.8881 11.6331C10.7604 11.8066 10.8004 12.104 10.9755 12.236C11.1675 12.3807 11.4139 12.3336 11.5325 12.1763C11.538 12.1689 11.5438 12.1616 11.5497 12.1545L12.6841 10.791ZM9.99981 4.59961H3.7998V5.79961H9.99981V4.59961ZM3.7998 7.39966H7.40034V8.59966H3.7998V7.39966Z" fill="black"/>
</svg>
