<svg width="16" height="16" viewBox="0 0 16 16" fill="none" xmlns="http://www.w3.org/2000/svg">
<path fill-rule="evenodd" clip-rule="evenodd" d="M14.2124 3.94824H1.7874C1.63912 3.94824 1.51758 4.08761 1.51758 4.2602V11.7392C1.51758 11.9118 1.63912 12.0511 1.7874 12.0511H14.2124C14.3607 12.0511 14.4822 11.9118 14.4822 11.7392V4.2602C14.4822 4.08761 14.3615 3.94824 14.2124 3.94824ZM2.23791 11.2409V4.75853H2.23872H13.7611V11.2409H2.23791ZM5.56905 9.62029C4.67403 9.62029 3.94847 8.89474 3.94847 7.99971C3.94847 7.10469 4.67403 6.37913 5.56905 6.37913C6.46407 6.37913 7.18963 7.10469 7.18963 7.99971C7.18963 8.89474 6.46407 9.62029 5.56905 9.62029ZM6.52922 7.99969C6.52922 8.52999 6.09932 8.95988 5.56902 8.95988C5.03872 8.95988 4.60883 8.52999 4.60883 7.99969C4.60883 7.46939 5.03872 7.03949 5.56902 7.03949C6.09932 7.03949 6.52922 7.46939 6.52922 7.99969ZM10.4308 9.62029C9.53577 9.62029 8.81021 8.89474 8.81021 7.99971C8.81021 7.10469 9.53577 6.37913 10.4308 6.37913C11.3258 6.37913 12.0514 7.10469 12.0514 7.99971C12.0514 8.89474 11.3258 9.62029 10.4308 9.62029ZM11.391 7.99969C11.391 8.52999 10.9611 8.95988 10.4308 8.95988C9.90047 8.95988 9.47057 8.52999 9.47057 7.99969C9.47057 7.46939 9.90047 7.03949 10.4308 7.03949C10.9611 7.03949 11.391 7.46939 11.391 7.99969Z" fill="black"/>
</svg>
