<svg width="16" height="16" viewBox="0 0 16 16" fill="none" xmlns="http://www.w3.org/2000/svg">
<path d="M13.3557 9.6554C13.1019 10.1079 12.7756 10.5114 12.4204 10.8918C10.9778 12.4366 9.18992 13.3937 7.05086 13.6989C4.81053 14.0186 2.72553 13.5831 0.81636 12.4017C0.540407 12.2309 0.403722 11.9969 0.404092 11.6775C0.40634 9.73526 0.403223 7.79302 0.402782 5.85078C0.402765 5.77408 0.37942 5.6818 0.478977 5.64292C0.579955 5.60349 0.628745 5.68837 0.683157 5.74333C2.26841 7.34466 4.09448 8.62943 6.16869 9.58821C6.22667 9.61501 6.28873 9.6337 6.34888 9.65617C6.6437 9.725 6.90556 9.87284 7.18396 9.98081C8.0233 10.3063 8.87168 10.6023 9.75514 10.7998C10.5942 10.9874 11.4028 10.8937 12.1685 10.5298C12.5558 10.3458 12.8952 10.0845 13.1766 9.76224C13.2228 9.70939 13.2569 9.63022 13.3557 9.6554Z" fill="#3470FE"/>
<path d="M8.2759 8.29243C7.33356 6.66925 6.16577 5.21314 4.76469 3.9299C4.19911 3.4119 3.60146 2.93048 2.97529 2.4813C2.90808 2.43308 2.80225 2.39587 2.83992 2.28702C2.87608 2.18253 2.98004 2.20038 3.06713 2.20037C5.17981 2.19996 7.29249 2.20081 9.40517 2.19942C9.70973 2.19922 9.95345 2.30528 10.1431 2.53723C10.9238 3.49187 11.4759 4.55417 11.7881 5.73064C11.7547 5.81164 11.6702 5.82226 11.6014 5.84626C10.8196 6.11905 10.1529 6.55402 9.58247 7.13407C9.22554 7.49704 8.8456 7.83879 8.47914 8.1931C8.4257 8.24477 8.38114 8.33091 8.2759 8.29243Z" fill="#00D5B8"/>
<path d="M8.27476 8.29299C8.51608 8.1359 8.69162 7.91189 8.90182 7.72306C9.29023 7.37413 9.6419 6.98833 10.0466 6.65564C10.5601 6.23348 11.1544 5.94852 11.7869 5.7312C12.4241 5.56093 13.0714 5.47949 13.7333 5.52897C14.382 5.57746 14.999 5.73624 15.6002 6.0195C14.7768 6.76802 14.4176 7.77159 13.9098 8.68907C13.7299 9.01409 13.5701 9.34951 13.3544 9.65546C13.2402 9.7676 13.1285 9.88224 13.0114 9.99151C12.4011 10.5608 11.6733 10.8614 10.8211 10.9256C10.2297 10.9702 9.67513 10.842 9.12122 10.6897C8.2492 10.4501 7.40593 10.1332 6.57725 9.78057C6.49729 9.74655 6.42403 9.69801 6.34766 9.65621C6.99244 9.29953 7.6092 8.90514 8.15526 8.41607C8.19787 8.37791 8.23505 8.33415 8.27476 8.29299Z" fill="#123C98"/>
</svg>
