<svg width="16" height="16" viewBox="0 0 16 16" fill="none" xmlns="http://www.w3.org/2000/svg">
<path d="M2.63503 2.26979V13.6763H8.72873C8.8851 14.0412 9.14523 14.3534 9.40586 14.6141H1.69727V1.33203H9.92712V2.26979H2.63503Z" fill="black"/>
<path d="M10.6042 1.43678V3.88469H13.1043L10.6042 1.43678Z" fill="black"/>
<path d="M4.35413 4.66607H10.5526V5.60384H4.35413V4.66607Z" fill="black"/>
<path d="M10.5526 7.47886H4.35413V8.41662H10.5526V7.47886Z" fill="black"/>
<path d="M4.35413 10.2916H8.3648V11.2294H4.35413V10.2916Z" fill="black"/>
<path fill-rule="evenodd" clip-rule="evenodd" d="M13.8861 10.2395L14.3026 10.9688C13.1569 11.9582 14.2505 12.8959 14.2505 12.8959L13.834 13.6252C12.376 13.2082 12.1154 14.6146 12.1154 14.6146H11.2297C10.8132 13.0523 9.51107 13.6252 9.51107 13.6252L9.04244 12.8959C10.2403 11.8023 9.04244 10.9688 9.04244 10.9688C9.04244 10.9688 9.09456 10.9688 9.51107 10.2395C11.0212 10.6565 11.2818 9.25013 11.2818 9.25013H12.1154C12.4276 10.656 13.8861 10.2395 13.8861 10.2395ZM10.3957 11.9582C10.3957 12.6353 10.9686 13.2082 11.6457 13.2082C12.3229 13.2082 12.8957 12.6353 12.8957 11.9582C12.8957 11.281 12.3229 10.7082 11.6457 10.7082C10.9686 10.7082 10.3957 11.281 10.3957 11.9582Z" fill="black"/>
<path d="M13.206 9.09276C12.8943 8.98884 12.583 8.88509 12.2712 8.83313V4.5102H13.209V9.09376L13.206 9.09276Z" fill="black"/>
</svg>
