<svg width="20" height="20" viewBox="0 0 20 20" fill="none" xmlns="http://www.w3.org/2000/svg">
<path fill-rule="evenodd" clip-rule="evenodd" d="M14.1868 1.47074C13.8854 1.16931 13.4766 1 13.0504 1H5.91613C5.09794 1 4.37913 1.44681 3.99078 2.10854C4.32076 1.91481 4.7043 1.80357 5.11256 1.80357H12.2468C12.673 1.80357 13.0819 1.97288 13.3832 2.27431L16.8989 5.79003C17.2004 6.09137 17.3697 6.50012 17.3697 6.92643V16.2892C17.3697 16.6969 17.2587 17.0798 17.0648 17.4102C17.7264 17.0227 18.1732 16.3038 18.1732 15.4857V6.12286C18.1732 5.69655 18.0039 5.2878 17.7025 4.98646L14.1868 1.47074ZM4.22855 2.28569H12L16.4857 7V16.7713C16.4857 17.9971 15.4829 19 14.2571 19H4.22855C3.00289 19 2 17.9971 2 16.7713V4.51425C2 3.28859 3.00289 2.28569 4.22855 2.28569ZM6.90176 11.4464C6.90176 11.8902 6.54196 12.25 6.09819 12.25C5.65442 12.25 5.29462 11.8902 5.29462 11.4464C5.29462 11.0026 5.65442 10.6428 6.09819 10.6428C6.54196 10.6428 6.90176 11.0026 6.90176 11.4464ZM10.116 11.4464C10.116 11.8902 9.75624 12.25 9.31247 12.25C8.8687 12.25 8.5089 11.8902 8.5089 11.4464C8.5089 11.0026 8.8687 10.6428 9.31247 10.6428C9.75624 10.6428 10.116 11.0026 10.116 11.4464ZM13.3303 11.4464C13.3303 11.8902 12.9705 12.25 12.5268 12.25C12.083 12.25 11.7232 11.8902 11.7232 11.4464C11.7232 11.0026 12.083 10.6428 12.5268 10.6428C12.9705 10.6428 13.3303 11.0026 13.3303 11.4464Z" fill="#9371FA"/>
<path opacity="0.5" d="M12 2.28571L16.4857 7.00006H13.1428C12.4743 7.00006 12.0285 6.55435 12.0285 5.88578L12 2.28571Z" fill="white"/>
</svg>
