<svg width="16" height="16" viewBox="0 0 16 16" fill="none" xmlns="http://www.w3.org/2000/svg">
<path d="M12.9598 13.8853V4.40943L13.9267 4.40894V14.8521H2.07324V1.14746H10.5748V2.11479H3.03959V13.8853H12.9598Z" fill="black"/>
<path d="M11.2069 1.23536V3.76998H13.8057L11.2069 1.23536Z" fill="black"/>
<path d="M5.14363 5.30862C5.10511 5.34714 5.0666 5.38566 5.0666 5.46219L5.56532 5.96092C5.58446 5.94179 5.60359 5.93216 5.62261 5.92259C5.64186 5.9129 5.661 5.90327 5.67988 5.88389C6.33218 5.23159 7.17607 4.88644 8.09698 4.88644C8.97938 4.88644 9.86179 5.23159 10.5141 5.92241C10.5362 5.94455 10.5456 5.95397 10.557 5.95796C10.5653 5.96092 10.5747 5.96092 10.5911 5.96092L11.0898 5.46219C11.0898 5.42368 11.0513 5.38516 11.0128 5.34714C10.2069 4.54128 9.17147 4.11909 8.09698 4.11909C6.98398 4.08057 5.94801 4.54128 5.14215 5.30862H5.14363Z" fill="black"/>
<path d="M10.0163 6.45965L9.4791 6.99689C9.09543 6.65124 8.5967 6.45965 8.05945 6.45965C7.56073 6.45965 7.02348 6.65173 6.63981 6.99689L6.10257 6.45965C6.63981 5.96092 7.33062 5.6923 8.05945 5.6923C8.78829 5.6923 9.4791 5.96092 10.0163 6.45965Z" fill="black"/>
<path d="M6.34008 8.71133H5.64976V9.40165H6.34008V8.71133Z" fill="black"/>
<path fill-rule="evenodd" clip-rule="evenodd" d="M12.0522 7.4971V10.608H8.39227L8.39276 11.7447H10.3985L11.2103 12.4829H4.8355L5.64729 11.7447H7.6901V10.608H4.06667V7.4971H12.0522ZM4.80489 9.86976H11.314V8.23532H4.80489V9.86976Z" fill="black"/>
</svg>
