<svg width="16" height="16" viewBox="0 0 16 16" fill="none" xmlns="http://www.w3.org/2000/svg">
<path d="M10.3891 3.93494C10.5559 3.83479 10.7233 3.7432 10.8908 3.66041C11.6256 3.29709 12.34 3.11085 12.9982 3.09827C13.7706 3.885 14.3328 4.83243 14.6614 5.85273C14.453 5.85926 14.2193 5.84866 13.9616 5.81792C12.9619 5.6987 11.7111 5.28978 10.4254 4.59606C10.4558 4.37369 10.4426 4.14922 10.3891 3.93494Z" fill="black"/>
<path d="M8.06052 5.99068C8.64312 6.21669 9.2948 6.10969 9.77241 5.73482C11.1815 6.49915 12.6015 6.97729 13.8062 7.12097C14.2021 7.16819 14.5868 7.18073 14.9475 7.15035C15.1267 8.60652 14.8513 10.1309 14.0612 11.4994L14.0311 11.5511C13.9118 11.127 13.6332 10.7473 13.2216 10.5096C12.3964 10.0332 11.3446 10.3052 10.8521 11.1151C9.76983 10.9772 8.4017 10.5051 7.0157 9.70486C6.97882 9.68358 6.94216 9.66218 6.9057 9.64069C6.96879 9.18883 6.85176 8.72789 6.58229 8.36111C6.72245 8.05733 6.87924 7.75408 7.05294 7.45322C7.35928 6.92262 7.69838 6.43385 8.06052 5.99068Z" fill="black"/>
<path d="M7.03052 3.80688C6.8878 4.23521 6.92001 4.69432 7.10202 5.09042C6.67129 5.60935 6.27251 6.18041 5.91647 6.79708C5.74982 7.08574 5.59649 7.37752 5.45654 7.67112C5.12655 7.61689 4.79001 7.65945 4.48731 7.78798C4.24219 7.5385 4.02782 7.29057 3.84722 7.04916C3.74928 6.91825 3.66302 6.79159 3.58795 6.66984C3.7464 6.53987 3.88453 6.37966 3.99306 6.19169C4.47623 5.35482 4.18949 4.28471 3.35262 3.80154C3.10831 3.66049 2.84412 3.58505 2.58046 3.56976C3.313 2.67141 4.23931 1.99229 5.26209 1.55849C5.41611 1.88603 5.61934 2.21294 5.85818 2.5322C6.1769 2.95821 6.57204 3.38794 7.03052 3.80688Z" fill="black"/>
<path d="M9.61307 2.8711C9.59766 2.86157 9.58206 2.85223 9.56626 2.84311C9.02855 2.53267 8.39456 2.54006 7.88184 2.807C7.4944 2.44971 7.16717 2.09124 6.90895 1.74608C6.75349 1.53829 6.62743 1.34118 6.52891 1.15746C8.16622 0.80493 9.93473 1.03546 11.4994 1.93883C11.5302 1.95659 11.5607 1.97454 11.5911 1.99269C11.1587 2.11068 10.7289 2.27653 10.3091 2.48407C10.0751 2.59976 9.84279 2.72897 9.61307 2.8711Z" fill="black"/>
<path d="M6.2498 10.7774C6.10198 10.8927 5.93762 10.9825 5.76388 11.0448C5.67888 11.6117 5.65403 12.1592 5.68718 12.6733C5.73994 13.4913 5.93586 14.2031 6.25405 14.7794C8.242 15.2925 10.3481 14.8959 12.0053 13.7414C11.8225 13.7051 11.6423 13.6386 11.4719 13.5402C11.032 13.2862 10.7441 12.87 10.6401 12.4108C9.35705 12.2391 7.84177 11.6971 6.35956 10.8413C6.32281 10.8201 6.28622 10.7988 6.2498 10.7774Z" fill="black"/>
<path d="M4.29757 10.9134C3.5241 10.4668 3.22057 9.51887 3.56049 8.71709C3.27233 8.42455 3.01622 8.12903 2.79645 7.83527C2.60533 7.57981 2.43701 7.31944 2.29846 7.05777C2.06042 7.03339 1.82356 6.95952 1.60291 6.83213C1.43484 6.73509 1.28896 6.61438 1.16705 6.47664C0.518367 9.38235 1.78583 12.4938 4.50058 14.0612C4.53134 14.0789 4.56216 14.0964 4.59307 14.1136C4.47907 13.6802 4.40776 13.225 4.37762 12.7577C4.341 12.1899 4.3639 11.5967 4.44609 10.99C4.3959 10.9671 4.34634 10.9415 4.29757 10.9134Z" fill="black"/>
</svg>
