<svg width="20" height="20" viewBox="0 0 20 20" fill="none" xmlns="http://www.w3.org/2000/svg">
<path fill-rule="evenodd" clip-rule="evenodd" d="M5.08592 7.71406C6.34569 6.45306 8.078 5.74356 9.96765 5.74356C11.7789 5.74356 13.5112 6.45306 14.8494 7.79306L14.8494 7.79308C14.8949 7.83861 14.9142 7.85789 14.9373 7.86606C14.9544 7.87206 14.9735 7.87206 15.0067 7.87206L16.0302 6.84756C16.0302 6.76954 15.9533 6.69201 15.8758 6.614L15.8729 6.61106C14.2195 4.95606 12.172 4.16756 9.96715 4.16756C7.68388 4.08856 5.63638 4.95556 4.06142 6.53206C3.9825 6.61106 3.90408 6.68956 3.90408 6.84756L4.92758 7.87206C4.92758 7.87206 5.0065 7.87206 5.08492 7.71456L5.08592 7.71406ZM5.95203 8.89606L6.97553 9.99957C7.76277 9.29006 8.78677 8.89606 9.81027 8.89606C10.9127 8.89606 11.8578 9.29006 12.645 9.99957L13.7474 8.89606C12.645 7.87156 11.3063 7.31956 9.81027 7.31956C8.39315 7.31956 6.97553 7.87106 5.95203 8.89606ZM2.01538 11.2606V15.8321H17.9998V11.2606H2.01538ZM6.89711 14.3346H6.89661H5.1648V13.1521H5.55842V12.6791H6.58192V13.1521H6.97554V14.3346H6.89711ZM9.65242 14.3346H9.65292H9.73135V13.1521H9.33773V12.6791H8.31423V13.1521H7.92061V14.3346H9.65242ZM14.22 14.2556C13.8263 14.2556 13.5112 13.9401 13.5112 13.5461C13.5112 13.1521 13.8263 12.8366 14.22 12.8366C14.6136 12.8366 14.9288 13.1521 14.9288 13.5461C14.9288 13.9401 14.6136 14.2556 14.22 14.2556Z" fill="black"/>
</svg>
