<svg width="16" height="16" viewBox="0 0 16 16" fill="none" xmlns="http://www.w3.org/2000/svg">
<path fill-rule="evenodd" clip-rule="evenodd" d="M1 3C1 2.44772 1.44772 2 2 2H14C14.5523 2 15 2.44772 15 3V6C15 6.55228 14.5523 7 14 7H2C1.44772 7 1 6.55228 1 6V3ZM3 4H8V5H3V4ZM10.1996 3.90039C9.86824 3.90039 9.59961 4.16902 9.59961 4.50039C9.59961 4.83176 9.86824 5.10039 10.1996 5.10039C10.531 5.10039 10.7996 4.83176 10.7996 4.50039C10.7996 4.16902 10.531 3.90039 10.1996 3.90039ZM11.7998 4.50039C11.7998 4.16902 12.0684 3.90039 12.3998 3.90039C12.7312 3.90039 12.9998 4.16902 12.9998 4.50039C12.9998 4.83176 12.7312 5.10039 12.3998 5.10039C12.0684 5.10039 11.7998 4.83176 11.7998 4.50039ZM1 10C1 9.44771 1.44772 9 2 9H14C14.5523 9 15 9.44772 15 10V13C15 13.5523 14.5523 14 14 14H2C1.44772 14 1 13.5523 1 13V10ZM3 11H8V12H3V11ZM10.1996 10.9004C9.86824 10.9004 9.59961 11.169 9.59961 11.5004C9.59961 11.8318 9.86824 12.1004 10.1996 12.1004C10.531 12.1004 10.7996 11.8318 10.7996 11.5004C10.7996 11.169 10.531 10.9004 10.1996 10.9004ZM11.7998 11.5004C11.7998 11.169 12.0684 10.9004 12.3998 10.9004C12.7312 10.9004 12.9998 11.169 12.9998 11.5004C12.9998 11.8318 12.7312 12.1004 12.3998 12.1004C12.0684 12.1004 11.7998 11.8318 11.7998 11.5004Z" fill="black"/>
</svg>
