<svg width="16" height="16" viewBox="0 0 16 16" fill="none" xmlns="http://www.w3.org/2000/svg">
<path fill-rule="evenodd" clip-rule="evenodd" d="M6 1C5.44772 1 5 1.44772 5 2V6C5 6.55228 5.44772 7 6 7H7.5V9H3.5H3C2.72386 9 2.5 9.22386 2.5 9.5V11H2C1.44772 11 1 11.4477 1 12V14C1 14.5523 1.44772 15 2 15H4C4.55228 15 5 14.5523 5 14V12C5 11.4477 4.55228 11 4 11H3.5V10H7.5V11H7C6.44772 11 6 11.4477 6 12V14C6 14.5523 6.44772 15 7 15H9C9.55229 15 10 14.5523 10 14V12C10 11.4477 9.55229 11 9 11H8.5V10H12.5V11H12C11.4477 11 11 11.4477 11 12V14C11 14.5523 11.4477 15 12 15H14C14.5523 15 15 14.5523 15 14V12C15 11.4477 14.5523 11 14 11H13.5V9.5C13.5 9.22386 13.2761 9 13 9H12.5H8.5V7H10C10.5523 7 11 6.55228 11 6V2C11 1.44772 10.5523 1 10 1H6Z" fill="black"/>
</svg>
