<svg width="16" height="16" viewBox="0 0 16 16" fill="none" xmlns="http://www.w3.org/2000/svg">
<path fill-rule="evenodd" clip-rule="evenodd" d="M6.99172 13.5661C6.9325 13.6044 6.87262 13.6418 6.81212 13.6782C4.36942 13.1698 2.49014 11.125 2.23065 8.59996H4.72169C4.86672 10.5321 5.7064 12.2704 6.99172 13.5661ZM4.72169 7.39996C4.86672 5.46786 5.70639 3.72949 6.9917 2.43386C6.93251 2.39556 6.87268 2.35818 6.81221 2.32173C4.36949 2.8301 2.49018 4.87497 2.23066 7.39996H4.72169ZM6.00451 7.39996C6.15087 5.76956 6.88788 4.30935 7.99998 3.23488C9.11209 4.30934 9.84911 5.76956 9.99547 7.39996H6.00451ZM6.00452 8.59996H9.99547C9.84911 10.2304 9.11209 11.6906 8 12.765C6.88789 11.6906 6.15088 10.2304 6.00452 8.59996ZM11.2783 8.59996C11.1333 10.5321 10.2936 12.2704 9.00828 13.5661C9.0675 13.6044 9.12738 13.6418 9.18788 13.6782C11.6306 13.1698 13.5099 11.125 13.7693 8.59996H11.2783ZM13.7693 7.39996C13.5098 4.87496 11.6305 2.83008 9.18776 2.32173C9.12729 2.35817 9.06745 2.39555 9.00826 2.43385C10.2936 3.72948 11.1333 5.46786 11.2783 7.39996H13.7693ZM8 15C11.866 15 15 11.866 15 8C15 4.13401 11.866 1 8 1C4.13401 1 1 4.13401 1 8C1 11.866 4.13401 15 8 15Z" fill="black"/>
</svg>
