<svg width="16" height="16" viewBox="0 0 16 16" fill="none" xmlns="http://www.w3.org/2000/svg">
<path fill-rule="evenodd" clip-rule="evenodd" d="M1.30488 1C0.863055 1 0.504883 1.35817 0.504883 1.8C0.504883 2.24183 0.863055 2.6 1.30488 2.6H2.70016L2.7002 3.75142H0.500049V5.25142H2.7002L2.70016 6.74973H0.5V8.24973H2.70016V9.75443H0.5V11.2544H2.70016L2.7002 14.2C2.7002 14.6418 3.05838 15 3.5002 15C3.94203 15 4.3002 14.6418 4.3002 14.2L4.3002 13H14.9002C15.2316 13 15.5002 12.7314 15.5002 12.4V2.6C15.5002 2.26863 15.2316 2 14.9002 2H4.30016C4.30016 1.44584 3.85057 1 3.30016 1H1.30488ZM13.5002 7.5C13.5002 9.70914 11.7094 11.5 9.50024 11.5C7.29111 11.5 5.50024 9.70914 5.50024 7.5C5.50024 5.29086 7.29111 3.5 9.50024 3.5C11.7094 3.5 13.5002 5.29086 13.5002 7.5ZM7.9253 5.91569L7.92531 5.9157C8.29383 6.17328 8.66808 6.43487 8.86993 6.67587C8.90295 6.71529 8.93538 6.75709 8.96817 6.79934L8.96822 6.79939L8.96822 6.7994C9.04671 6.90053 9.1272 7.00425 9.2225 7.08426C9.30197 7.03104 9.39754 7 9.50037 7C9.77651 7 10.0004 7.22386 10.0004 7.5C10.0004 7.77614 9.77651 8 9.50037 8C9.22422 8 9.00037 7.77614 9.00037 7.5C9.00037 7.37107 9.04917 7.25353 9.12931 7.16486C8.42029 7.59149 7.74901 8.13779 7.4682 8.91105C7.39081 9.12415 7.34168 9.34482 7.33564 9.57703C7.33294 9.68055 7.37503 9.77913 7.44484 9.85562C7.75894 10.1997 8.24745 10.6834 8.54759 10.8226C8.6712 10.8799 8.77842 10.7783 8.80942 10.6457C8.8705 10.3843 8.90026 10.0409 8.93038 9.69321V9.6932V9.69319C8.9692 9.24526 9.00862 8.79035 9.11641 8.49505C9.13405 8.44672 9.15403 8.39771 9.17424 8.34817L9.17424 8.34816C9.2255 8.22247 9.27814 8.09336 9.29741 7.96331C10.0489 8.39327 10.8986 8.74121 11.7498 8.59049C11.9731 8.55096 12.1887 8.48318 12.3929 8.3723C12.4839 8.32287 12.5482 8.23714 12.5795 8.13843C12.7205 7.69436 12.8951 7.02945 12.8655 6.69996C12.8534 6.56426 12.7118 6.52216 12.5814 6.56165C12.3245 6.63944 12.0122 6.78539 11.6961 6.93313C11.2888 7.12348 10.8751 7.31679 10.5655 7.3711C10.5148 7.37999 10.4623 7.38718 10.4093 7.39446L10.4093 7.39446L10.4093 7.39446C10.2757 7.4128 10.1385 7.43163 10.0168 7.47929C10.0136 6.61311 9.89018 5.70263 9.33377 5.04048C9.18791 4.86691 9.02137 4.71403 8.82329 4.59269C8.73499 4.5386 8.62857 4.52575 8.52742 4.54797C8.07236 4.64793 7.40921 4.82914 7.13866 5.0195C7.02723 5.0979 7.06154 5.24152 7.16093 5.3347C7.35675 5.51828 7.6393 5.71578 7.9253 5.91569Z" fill="black"/>
</svg>
