<svg width="16" height="16" viewBox="0 0 16 16" fill="none" xmlns="http://www.w3.org/2000/svg">
<path d="M14.6749 7.23216C14.6488 7.00605 14.6106 6.74478 14.5329 6.45949C14.4553 6.17421 14.326 5.86492 14.1579 5.53218C13.9771 5.21116 13.7574 4.86614 13.4601 4.54513C13.3435 4.41449 13.2143 4.29557 13.085 4.16493C13.292 3.41571 12.8393 2.76196 12.8393 2.76196C12.051 2.7145 11.5601 2.98806 11.3792 3.10698C11.3531 3.09526 11.3149 3.08297 11.2888 3.07125C11.1596 3.02379 11.0176 2.97634 10.8756 2.92833C10.7336 2.8926 10.591 2.84514 10.449 2.82114C10.307 2.78541 10.1516 2.76196 9.99688 2.73795C9.97079 2.73795 9.9453 2.72623 9.9192 2.72623C9.58302 1.72745 8.60117 1.2998 8.60117 1.2998C7.47672 1.96584 7.25705 2.85742 7.25705 2.85742C7.25705 2.85742 7.25705 2.88143 7.2443 2.90488C7.17998 2.9166 7.12779 2.94061 7.06347 2.95233C6.98579 2.97634 6.89538 2.99979 6.8177 3.03552C6.74003 3.07125 6.64961 3.0947 6.57194 3.13043C6.40384 3.20189 6.2491 3.27335 6.08101 3.35653C5.92551 3.43659 5.77461 3.52398 5.62892 3.61837C5.60283 3.60665 5.59009 3.59436 5.59009 3.59436C4.07787 3.05952 2.73435 3.70155 2.73435 3.70155C2.61784 5.18771 3.34178 6.11503 3.48378 6.2814C3.44495 6.37631 3.41946 6.45949 3.38062 6.55496C3.26544 6.89239 3.1832 7.23859 3.13486 7.58946C3.12211 7.63692 3.12211 7.69665 3.10876 7.74411C1.71306 8.37441 1.2998 9.68192 1.2998 9.68192C2.4631 10.9185 3.83271 10.99 3.83271 10.99C4.00383 11.2755 4.20288 11.5461 4.4274 11.7984C4.51782 11.9056 4.62098 12.0005 4.72475 12.1077C4.29815 13.2254 4.78907 14.1644 4.78907 14.1644C6.09436 14.2119 6.94696 13.6413 7.12779 13.5107L7.51555 13.6178C7.91606 13.7128 8.32992 13.7725 8.73043 13.7842H9.26019C9.86762 14.5926 10.9532 14.6998 10.9532 14.6998C11.7154 13.9506 11.7676 13.2254 11.7676 13.059V12.9875C11.923 12.8803 12.0777 12.7737 12.233 12.6548C12.5431 12.4052 12.8016 12.1077 13.0341 11.7989C13.0602 11.7749 13.0729 11.7398 13.0984 11.7158C13.9643 11.7632 14.5718 11.2167 14.5718 11.2167C14.4298 10.3842 13.9127 9.98005 13.8096 9.90859L13.7968 9.89686L13.7841 9.88514L13.7714 9.87341C13.7714 9.82596 13.7841 9.77851 13.7841 9.71877C13.7968 9.62386 13.7968 9.54068 13.7968 9.44521V9.10019C13.7968 9.07618 13.7968 9.05273 13.7841 9.02873L13.758 8.88581C13.7453 8.7909 13.7192 8.70771 13.7064 8.61225C13.6164 8.26061 13.4682 7.92377 13.2671 7.61347C13.0647 7.31304 12.8166 7.04082 12.5304 6.80507C12.253 6.57947 11.9391 6.39489 11.6001 6.25795C11.2777 6.12 10.9329 6.03156 10.5794 5.99611C10.4113 5.97211 10.2305 5.97211 10.0624 5.97211H9.80391C9.71349 5.98383 9.62307 5.99611 9.5454 6.00784C9.19647 6.06702 8.87364 6.18593 8.58904 6.34058C8.30443 6.49522 8.05927 6.69732 7.85234 6.92287C7.65179 7.13738 7.49421 7.38292 7.38691 7.64808C7.28375 7.89764 7.21882 8.1712 7.20607 8.42075V8.70604C7.20607 8.74177 7.20607 8.76522 7.21882 8.80095C7.259 9.16709 7.40644 9.51634 7.64542 9.81144C7.80077 10.0018 7.96825 10.1442 8.16244 10.2631C8.35601 10.382 8.5502 10.4652 8.75713 10.5249C8.96406 10.5847 9.15763 10.6081 9.33847 10.5964H9.60911C9.63521 10.5964 9.6607 10.5847 9.67344 10.5847C9.69953 10.5847 9.71228 10.5729 9.73776 10.5729C9.7766 10.5612 9.82818 10.5489 9.86702 10.5372C9.94469 10.5132 10.0224 10.478 10.0994 10.454C10.1771 10.4183 10.2414 10.3826 10.293 10.3468C10.3058 10.3351 10.3318 10.3228 10.3446 10.3111C10.3601 10.3003 10.3731 10.2868 10.3828 10.2713C10.3926 10.2558 10.3988 10.2387 10.4013 10.221C10.4037 10.2032 10.4022 10.1852 10.397 10.168C10.3917 10.1508 10.3828 10.1347 10.3707 10.1207C10.3457 10.0982 10.314 10.0828 10.2797 10.0764C10.2453 10.0701 10.2097 10.0731 10.1771 10.085C10.1644 10.0967 10.151 10.0967 10.1255 10.109C10.0719 10.134 10.0155 10.1539 9.95743 10.1682C9.89311 10.1799 9.82818 10.2039 9.76386 10.2156C9.72502 10.2156 9.69953 10.2274 9.6607 10.2274H9.44163H9.38944C9.37609 10.2274 9.35061 10.2274 9.33786 10.2156C9.19587 10.1916 9.04052 10.1565 8.89852 10.0967C8.75652 10.037 8.61392 9.95381 8.49801 9.84718C8.36876 9.73998 8.2656 9.62107 8.17518 9.47871C8.08476 9.33634 8.03318 9.1817 8.00709 9.02705C7.99434 8.94387 7.98099 8.86068 7.99434 8.7775V8.70604V8.6463C7.99434 8.59885 8.00709 8.56312 8.02044 8.51566C8.08867 8.14811 8.28355 7.81048 8.57629 7.55262C8.65397 7.48116 8.73164 7.42198 8.82206 7.37452C8.91248 7.31534 9.00289 7.26733 9.09331 7.2316C9.18373 7.19587 9.28689 7.16014 9.39066 7.13669C9.49382 7.11269 9.59759 7.08924 9.70075 7.08924C9.75233 7.08924 9.80391 7.07751 9.85609 7.07751H9.95926H10.0108C10.3556 7.104 10.6904 7.19722 10.9933 7.35108C11.4065 7.5649 11.7555 7.88591 11.9624 8.27839C12.0656 8.46877 12.1432 8.68259 12.1821 8.9087C12.1948 8.96787 12.1948 9.01589 12.2082 9.07507V9.38436C12.2082 9.44353 12.1954 9.50327 12.1954 9.56245C12.1827 9.62163 12.1827 9.68136 12.1693 9.74054L12.1305 9.91864C12.1177 9.97781 12.0528 10.1447 12.014 10.2637C11.9751 10.3826 11.7943 10.7036 11.639 10.894C11.325 11.2891 10.907 11.6042 10.4241 11.8096C10.1783 11.9045 9.93316 11.9876 9.67465 12.0234C9.54702 12.0471 9.41711 12.0591 9.28689 12.0591H9.09331H9.08057C9.01624 12.0591 8.93857 12.0591 8.87364 12.0474C8.58904 12.0234 8.31778 11.9759 8.04653 11.9045C7.77528 11.833 7.51677 11.7381 7.271 11.6192C6.77864 11.3754 6.34382 11.0441 5.99181 10.6444C5.82372 10.4423 5.66897 10.2285 5.53972 10.0024C5.41047 9.77627 5.32005 9.53844 5.24237 9.30117C5.16681 9.06129 5.1234 8.81381 5.11312 8.56423V8.19576C5.11312 8.07685 5.12586 7.94621 5.15196 7.81557C5.1647 7.68493 5.19079 7.56602 5.21628 7.43538C5.24177 7.30474 5.2806 7.18582 5.31944 7.05518C5.35828 6.92454 5.48753 6.5678 5.60404 6.34169C5.83646 5.89004 6.13381 5.48584 6.48273 5.16482C6.57315 5.08164 6.66357 5.01018 6.76733 4.93872C6.80617 4.90299 6.89659 4.83153 6.99975 4.77235C7.10291 4.71317 7.20668 4.65343 7.32258 4.60598C7.37416 4.58197 7.42574 4.55852 7.49067 4.53452C7.51677 4.52279 7.54226 4.51051 7.58109 4.49879C7.60719 4.48706 7.63267 4.47478 7.67151 4.46306C7.78802 4.4156 7.90393 4.37987 8.02044 4.34414C8.04653 4.33242 8.08476 4.33242 8.11085 4.32014C8.13695 4.30785 8.17518 4.30841 8.20127 4.29613C8.22737 4.28385 8.31778 4.27212 8.38211 4.24868C8.4082 4.23695 8.44643 4.23695 8.47252 4.22467C8.49862 4.22467 8.53685 4.21295 8.56294 4.21295C8.58904 4.21295 8.62727 4.20122 8.65336 4.20122L8.75652 4.17721C8.78261 4.17721 8.82084 4.16549 8.84694 4.16549C8.88578 4.16549 8.91126 4.15377 8.9501 4.15377C8.97619 4.15377 9.02777 4.14204 9.05326 4.14204C9.07875 4.14204 9.0921 4.14204 9.11758 4.13032H9.208C9.24684 4.13032 9.27232 4.13032 9.31116 4.11859H9.36274H9.84092C10.0733 4.13032 10.3064 4.15433 10.526 4.19006C10.9578 4.25912 11.3759 4.38727 11.7664 4.57025C12.1295 4.73137 12.4683 4.93517 12.7743 5.17655C12.7871 5.18827 12.8132 5.20055 12.8259 5.224C12.8387 5.23573 12.8648 5.24801 12.8775 5.27146C12.9163 5.29546 12.9418 5.33064 12.9807 5.35464C13.0195 5.37865 13.045 5.41382 13.0838 5.43783C13.1099 5.47356 13.1481 5.497 13.1742 5.53273C13.519 5.85843 13.8068 6.23133 14.0274 6.63814C14.0402 6.64987 14.0402 6.66215 14.0535 6.6856C14.0663 6.69732 14.0663 6.7096 14.0796 6.73305C14.093 6.7565 14.1057 6.79223 14.1312 6.81624C14.1439 6.84024 14.1573 6.87541 14.17 6.89942C14.1828 6.92343 14.1961 6.9586 14.2089 6.98261C14.2605 7.0898 14.2993 7.19643 14.3381 7.30362C14.4025 7.46999 14.4413 7.61291 14.4801 7.73183C14.4873 7.75536 14.5025 7.77614 14.5235 7.79112C14.5444 7.8061 14.5701 7.81448 14.5966 7.81501C14.661 7.81501 14.6998 7.76756 14.6998 7.70782C14.6871 7.5649 14.6871 7.41081 14.6737 7.23216H14.6749Z" fill="black"/>
</svg>
