<svg width="16" height="16" viewBox="0 0 16 16" fill="none" xmlns="http://www.w3.org/2000/svg">
<path fill-rule="evenodd" clip-rule="evenodd" d="M5.80639 9.66338C5.80639 9.99634 6.01316 10.2041 6.34418 10.2041H9.65582C9.98684 10.2041 10.1936 9.99634 10.1936 9.66338V6.33524C10.1936 6.00228 9.98684 5.79454 9.65582 5.79454H6.34418C6.01316 5.79454 5.80639 6.00228 5.80639 6.33524V9.66338ZM9.0763 9.12366H6.88196L6.88099 9.12269V6.91719H9.0763V9.12366Z" fill="black"/>
<path fill-rule="evenodd" clip-rule="evenodd" d="M5.76514 3.00709V1.88347C5.76514 1.55051 5.5574 1.34277 5.22638 1.34277C4.89536 1.34277 4.6886 1.55051 4.6886 1.88347V3.00709C3.73631 3.00709 3.03203 3.71427 3.03203 4.67141H1.91474C1.58372 4.67141 1.37695 4.87817 1.37695 5.21113C1.37695 5.54409 1.58372 5.79454 1.91474 5.79551H3.03203V7.45886H1.91474C1.58372 7.45886 1.37695 7.66708 1.37695 7.99955C1.37695 8.33203 1.58372 8.53976 1.91474 8.54073H3.03203V10.2458H1.91474C1.58372 10.2458 1.37695 10.454 1.37695 10.787C1.37695 11.12 1.58372 11.3277 1.91474 11.3277H3.03203C3.03203 12.2848 3.73581 12.992 4.6881 12.992L4.6886 14.1152C4.6886 14.4481 4.89536 14.6558 5.22638 14.6558C5.5574 14.6558 5.80639 14.4481 5.76514 14.1152V12.992H7.46197V14.0734C7.46197 14.4069 7.66874 14.6146 7.99976 14.6146C8.33078 14.6146 8.53754 14.4064 8.53754 14.0734V12.992H9.94607V14.1152C9.94607 14.4481 10.1528 14.6558 10.4839 14.6558C10.8149 14.6558 11.0216 14.4481 11.0216 14.1152V12.992H11.3114C12.2637 12.992 12.9675 12.2848 12.9675 11.3277H14.0857C14.4168 11.3277 14.6235 11.1195 14.6235 10.787C14.6235 10.4545 14.4168 10.2458 14.0857 10.2458H12.9675V8.54025H14.0853C14.4163 8.54025 14.623 8.33251 14.623 7.99955C14.623 7.66659 14.4163 7.45886 14.0853 7.45886H12.9675V5.79503H14.0853C14.4163 5.79503 14.623 5.54555 14.623 5.21259C14.623 4.87963 14.4163 4.67189 14.0853 4.67189H12.9675C12.9675 3.71475 12.2637 3.00709 11.3114 3.00709H11.0216V1.88444C11.0216 1.55148 10.8149 1.34374 10.4839 1.34374C10.1528 1.34374 9.94607 1.55148 9.94607 1.9257V3.00709H8.53754V1.88396C8.53754 1.55099 8.33078 1.34326 7.99976 1.34326C7.66874 1.34326 7.46197 1.55197 7.46197 1.92618V3.00709H5.76514ZM5.20131 4.13071C5.20958 4.13103 5.21794 4.13119 5.22638 4.13119C5.23481 4.13119 5.24319 4.13103 5.25151 4.13071H10.4565C10.4655 4.13103 10.4746 4.13119 10.4839 4.13119C10.4958 4.13119 10.5076 4.13135 10.5192 4.13071H11.3114C11.6424 4.13071 11.8492 4.33845 11.8492 4.67141V11.3277C11.8492 11.6607 11.6424 11.8684 11.3114 11.8684H4.6881C4.35708 11.8684 4.15032 11.6607 4.15032 11.3277V4.67141C4.15032 4.33845 4.35708 4.13071 4.6881 4.13071H5.20131Z" fill="black"/>
</svg>
