<svg width="20" height="20" viewBox="0 0 20 20" fill="none" xmlns="http://www.w3.org/2000/svg">
<path d="M7 9.29999H13V10.7H7V9.29999Z" fill="#28BE69"/>
<path fill-rule="evenodd" clip-rule="evenodd" d="M4.2 8.19999C3.20589 8.19999 2.4 9.00588 2.4 9.99999C2.4 10.9941 3.20589 11.8 4.2 11.8C5.19411 11.8 6 10.9941 6 9.99999C6 9.00588 5.19411 8.19999 4.2 8.19999ZM1 9.99999C1 8.23268 2.43269 6.79999 4.2 6.79999C5.96731 6.79999 7.4 8.23268 7.4 9.99999C7.4 11.7673 5.96731 13.2 4.2 13.2C2.43269 13.2 1 11.7673 1 9.99999Z" fill="#C5CBE4"/>
<path fill-rule="evenodd" clip-rule="evenodd" d="M15.8 8.19999C14.8059 8.19999 14 9.00588 14 9.99999C14 10.9941 14.8059 11.8 15.8 11.8C16.7941 11.8 17.6 10.9941 17.6 9.99999C17.6 9.00588 16.7941 8.19999 15.8 8.19999ZM12.6 9.99999C12.6 8.23268 14.0327 6.79999 15.8 6.79999C17.5673 6.79999 19 8.23268 19 9.99999C19 11.7673 17.5673 13.2 15.8 13.2C14.0327 13.2 12.6 11.7673 12.6 9.99999Z" fill="#C5CBE4"/>
</svg>
