<svg width="16" height="16" viewBox="0 0 16 16" fill="none" xmlns="http://www.w3.org/2000/svg">
<path fill-rule="evenodd" clip-rule="evenodd" d="M1.7998 1.8002C1.7998 1.46882 2.06843 1.2002 2.3998 1.2002H13.5998C13.9312 1.2002 14.1998 1.46882 14.1998 1.8002V14.2002C14.1998 14.5316 13.9312 14.8002 13.5998 14.8002H2.3998C2.06843 14.8002 1.7998 14.5316 1.7998 14.2002V1.8002ZM7.99995 2.4002H5.39995V6.03785L6.35243 5.36109C6.56052 5.21323 6.83938 5.21323 7.04748 5.36109L7.99995 6.03785V2.4002ZM4.19995 2.4002V7.2002C4.19995 7.42468 4.32526 7.63038 4.52474 7.73335C4.72421 7.83632 4.96448 7.81933 5.14748 7.6893L6.69995 6.58623L8.25243 7.6893C8.43542 7.81933 8.67569 7.83632 8.87516 7.73335C9.07464 7.63038 9.19995 7.42468 9.19995 7.2002V2.4002H12.9998V11.0001H2.9998V2.4002H4.19995ZM2.9998 13.6002V12.2001H12.9998V13.6002H2.9998Z" fill="black"/>
</svg>
