<svg width="16" height="16" viewBox="0 0 16 16" fill="none" xmlns="http://www.w3.org/2000/svg">
<path d="M12.6998 12.9C12.6998 12.75 14.6998 8 14.6998 8C14.6998 8 12.8498 3.2 12.8498 3.05C12.7998 3 11.4998 6.3 10.9998 7.5H9.6998V3.9H6.0498V2H1.2998V6.7H5.9998V4.85H8.6998V11.2H5.9998V9.3H1.2998V14H5.9998V12.1H9.6498V8.5H10.9998C11.4998 9.75 12.6498 12.95 12.6998 12.9ZM5.0998 5.75H2.2498V2.95H5.0498V5.75H5.0998ZM5.0998 13.05H2.2498V10.25H5.0498V13.05H5.0998ZM13.6498 8.1C13.4998 8.45 12.7998 10.35 12.7498 10.4C12.5998 10 11.9998 8.55 11.7998 8.1H13.6498Z" fill="black"/>
</svg>
