<svg width="16" height="16" viewBox="0 0 16 16" fill="none" xmlns="http://www.w3.org/2000/svg">
<path fill-rule="evenodd" clip-rule="evenodd" d="M7.80237 1.03857C7.93001 0.987142 8.07116 0.987142 8.1988 1.03857L14.0436 3.14103C14.1486 3.18334 14.2389 3.25826 14.3027 3.35589C14.3664 3.45351 14.4006 3.56924 14.4006 3.68776V10.7561C14.4006 10.8479 14.3801 10.9384 14.3408 11.0203C14.3015 11.1022 14.2445 11.1732 14.1743 11.2276L8.32956 14.8862C8.23421 14.9601 8.11895 15 8.00059 15C7.88223 15 7.76696 14.9601 7.67162 14.8862L1.82684 11.2276C1.7567 11.1732 1.69968 11.1022 1.66038 11.0203C1.62107 10.9384 1.60059 10.8479 1.60059 10.7561V3.68776C1.6006 3.56924 1.63473 3.45351 1.69848 3.35589C1.76223 3.25826 1.85258 3.18334 1.95759 3.14103L7.80237 1.03857ZM6.3882 5H5.2002V10.421H6.3882V5ZM11.1315 5.4248C10.8291 5.1416 10.4139 5 9.88591 5H7.47391V10.421H8.66191V8.2616H9.88591C10.4139 8.2616 10.8291 8.12 11.1315 7.8368C11.4387 7.5536 11.5923 7.1528 11.5923 6.6344C11.5923 6.1112 11.4387 5.708 11.1315 5.4248ZM10.3323 7.1168C10.2027 7.2464 10.0179 7.3112 9.77791 7.3112H8.66191V5.9504H9.77791C10.0179 5.9504 10.2027 6.0152 10.3323 6.1448C10.4619 6.2744 10.5267 6.4376 10.5267 6.6344C10.5267 6.8264 10.4619 6.9872 10.3323 7.1168Z" fill="black"/>
</svg>
