<svg width="16" height="16" viewBox="0 0 16 16" fill="none" xmlns="http://www.w3.org/2000/svg">
<path fill-rule="evenodd" clip-rule="evenodd" d="M1.19922 2.8198C1.19922 2.25647 1.64693 1.7998 2.19922 1.7998H13.7992C14.3515 1.7998 14.7992 2.25647 14.7992 2.8198V10.9798C14.7992 11.5431 14.3515 11.9998 13.7992 11.9998H10.1004V13.2002H12.5V14.4002H3.5V13.2002H5.89648V11.9998H2.19922C1.64693 11.9998 1.19922 11.5431 1.19922 10.9798V2.8198ZM7.09648 11.9998V13.2002H8.90039V11.9998H7.09648ZM2.39922 3.0238V10.7758H13.5992V3.0238H12.5428V6.14124C12.5428 6.37751 12.4041 6.59179 12.1886 6.68858C11.973 6.78537 11.7207 6.74665 11.5442 6.58968L10.4428 5.61068L9.34139 6.58968C9.1648 6.74665 8.91252 6.78537 8.69698 6.68858C8.48144 6.59179 8.34277 6.37751 8.34277 6.14124V3.0238H2.39922ZM9.54277 3.0238H11.3428V4.80513L10.8414 4.35946C10.6141 4.15738 10.2715 4.15738 10.0442 4.35946L9.54277 4.80513V3.0238ZM6.22449 7.7H3.40039V6.5H6.22449V7.7ZM3.40039 9.7H7.91895V8.5H3.40039V9.7Z" fill="black"/>
</svg>
