<svg width="16" height="16" viewBox="0 0 16 16" fill="none" xmlns="http://www.w3.org/2000/svg">
<path fill-rule="evenodd" clip-rule="evenodd" d="M1 1.875C1 1.39175 1.39175 1 1.875 1H14.125C14.6082 1 15 1.39175 15 1.875V8.89121C14.3808 8.337 13.5631 8 12.6667 8C10.7337 8 9.16667 9.567 9.16667 11.5C9.16667 12.3964 9.50366 13.2141 10.0579 13.8333H1.875C1.39175 13.8333 1 13.4416 1 12.9583V1.875ZM12.6667 3.33333H3.33333V4.5H12.6667V3.33333ZM3.33333 6.83333H8V8H3.33333V6.83333ZM15 11.5C15 12.3637 14.5308 13.1177 13.8333 13.5212V15L12.6667 14.4167L11.5 15V13.5212C10.8026 13.1177 10.3333 12.3637 10.3333 11.5C10.3333 10.2113 11.378 9.16667 12.6667 9.16667C13.9553 9.16667 15 10.2113 15 11.5Z" fill="black"/>
</svg>
