<svg width="16" height="16" viewBox="0 0 16 16" fill="none" xmlns="http://www.w3.org/2000/svg">
<path d="M8 1C4.134 1 1 4.134 1 8C1 11.866 4.134 15 8 15C11.866 15 15 11.866 15 8C15 4.134 11.866 1 8 1ZM11.7619 5.46771L11.4317 7.242L11.3743 7.55071C11.3484 7.68943 11.2151 7.781 11.0764 7.75514L10.783 7.70057L8.99143 7.36729C8.85272 7.34143 8.76114 7.20814 8.787 7.06929L8.84443 6.76057C8.87029 6.62186 9.00357 6.53029 9.14229 6.55614L10.027 6.72072C9.36914 5.577 7.92786 5.10971 6.71386 5.68214C5.43586 6.28471 4.88643 7.81471 5.489 9.09272C6.09157 10.3707 7.62157 10.9201 8.89957 10.3176C9.152 10.1986 9.45329 10.3067 9.57229 10.5591C9.69129 10.8116 9.58314 11.1127 9.33072 11.2319C8.62757 11.5634 7.86957 11.6449 7.158 11.5124C6.06629 11.3093 5.08357 10.6027 4.57486 9.52386C3.73457 7.74171 4.50071 5.60829 6.28286 4.76786C7.92843 3.99186 9.87357 4.58586 10.8236 6.08443L10.9659 5.31943C10.9917 5.18071 11.125 5.08914 11.2637 5.115L11.5571 5.16957C11.6961 5.19557 11.7876 5.329 11.7619 5.46771Z" fill="black"/>
</svg>
