<svg width="16" height="16" viewBox="0 0 16 16" fill="none" xmlns="http://www.w3.org/2000/svg">
<path fill-rule="evenodd" clip-rule="evenodd" d="M9.73381 5.25989C10.1466 4.82885 10.4002 4.24416 10.4002 3.6002C10.4002 2.27471 9.32566 1.2002 8.00019 1.2002C7.63957 1.2002 7.29747 1.27974 6.99061 1.42224C6.16952 1.80349 5.60019 2.63535 5.60019 3.6002C5.60019 4.37806 5.97026 5.06951 6.54395 5.50806L3.93686 10.0237C3.82686 10.0082 3.71446 10.0002 3.6002 10.0002C3.23956 10.0002 2.89749 10.0798 2.5906 10.2223C1.76954 10.6036 1.2002 11.4354 1.2002 12.4002C1.2002 13.7257 2.27471 14.8002 3.6002 14.8002C4.28175 14.8002 4.89692 14.5162 5.33381 14.0599C5.66038 13.7189 5.88734 13.2817 5.96788 12.795H10.0325C10.2208 13.9327 11.2092 14.8002 12.4002 14.8002C13.0817 14.8002 13.6969 14.5162 14.1338 14.0599C14.5466 13.6289 14.8002 13.0442 14.8002 12.4002C14.8002 11.0748 13.7257 10.0002 12.4002 10.0002C12.2859 10.0002 12.1735 10.0082 12.0635 10.0237L9.45642 5.50807C9.5552 5.43256 9.64795 5.34955 9.73381 5.25989ZM7.65933 5.97617C7.77067 5.99201 7.88447 6.0002 8.00019 6.0002C8.1159 6.0002 8.2297 5.99201 8.34104 5.97618L10.9471 10.49C10.5802 10.7695 10.2962 11.1523 10.1386 11.595H5.86177C5.70413 11.1523 5.42017 10.7695 5.05328 10.49L7.65933 5.97617Z" fill="black"/>
</svg>
