<svg width="16" height="16" viewBox="0 0 16 16" fill="none" xmlns="http://www.w3.org/2000/svg">
<path fill-rule="evenodd" clip-rule="evenodd" d="M3.26667 0.999412L10.0661 0.999023C10.2253 0.999014 10.3779 1.06222 10.4904 1.17475L10.5025 1.18715L13.8113 4.49601C13.9272 4.6054 13.9995 4.76044 13.9995 4.93236V13.7357C13.9995 14.4353 13.4324 15.0023 12.7329 15.0024H12.7328L3.26669 15.0027H3.26667C2.56711 15.0027 2 14.4357 2 13.7361V2.26608C2 1.56653 2.56709 0.99943 3.26663 0.999412H3.26667ZM10.6662 4.33236V3.0479L11.9506 4.33236H10.6662ZM9.46617 2.19906L3.2667 2.19941H3.26667C3.22985 2.19941 3.2 2.22926 3.2 2.26608V13.7361C3.2 13.7729 3.22984 13.8027 3.26666 13.8027H3.26667L12.7328 13.8024H12.7328C12.7697 13.8024 12.7995 13.7725 12.7995 13.7357V5.53236H10.0662C9.7348 5.53236 9.46617 5.26373 9.46617 4.93236V2.19906ZM8.00039 5.30117H5.00039V6.50117H8.00039V5.30117ZM5.00039 8.00137H9.80039V9.20137H5.00039V8.00137ZM11.0004 11.9016V10.7016H5.00039V11.9016H11.0004Z" fill="black"/>
</svg>
