<svg width="16" height="16" viewBox="0 0 16 16" fill="none" xmlns="http://www.w3.org/2000/svg">
<path fill-rule="evenodd" clip-rule="evenodd" d="M4.96137 2.29649C5.53513 1.72273 6.31331 1.40039 7.12473 1.40039C7.93615 1.40039 8.71434 1.72273 9.2881 2.29649C9.86185 2.87025 10.1842 3.64843 10.1842 4.45985C10.1842 4.86162 10.1051 5.25946 9.9513 5.63065C9.79755 6.00185 9.57219 6.33912 9.2881 6.62321C9.004 6.90731 8.66673 7.13267 8.29554 7.28642C7.92434 7.44018 7.5265 7.51931 7.12473 7.51931C6.72296 7.51931 6.32512 7.44018 5.95393 7.28642C5.58274 7.13267 5.24546 6.90731 4.96137 6.62321C4.67727 6.33912 4.45191 6.00185 4.29816 5.63065C4.14441 5.25946 4.06527 4.86162 4.06527 4.45985C4.06527 3.64843 4.38761 2.87025 4.96137 2.29649ZM7.12473 2.60039C6.63157 2.60039 6.15861 2.7963 5.8099 3.14501C5.46118 3.49373 5.26527 3.96669 5.26527 4.45985C5.26527 4.70404 5.31337 4.94583 5.40681 5.17143C5.50026 5.39703 5.63723 5.60202 5.8099 5.77469C5.98256 5.94735 6.18755 6.08432 6.41315 6.17777C6.63875 6.27121 6.88054 6.31931 7.12473 6.31931C7.36892 6.31931 7.61072 6.27121 7.83632 6.17777C8.06191 6.08432 8.2669 5.94735 8.43957 5.77469C8.61223 5.60202 8.7492 5.39703 8.84265 5.17143C8.93609 4.94583 8.98419 4.70404 8.98419 4.45985C8.98419 3.96669 8.78828 3.49373 8.43957 3.14501C8.09085 2.7963 7.61789 2.60039 7.12473 2.60039Z" fill="black"/>
<path d="M1.55176 12.5409C1.55176 10.269 3.39339 8.42742 5.66527 8.42742H8.47608V9.62742H5.66527C4.05613 9.62742 2.75176 10.9318 2.75176 12.5409V13.3463H8.47608V14.5463H2.25176C1.86516 14.5463 1.55176 14.2329 1.55176 13.8463V12.5409Z" fill="black"/>
<path fill-rule="evenodd" clip-rule="evenodd" d="M12.1082 8.09344C11.9942 8.0587 11.8724 8.0587 11.7584 8.09344L11.7504 8.09589L11.7296 8.10233L11.6525 8.12646C11.5866 8.14727 11.4929 8.17724 11.3806 8.2143C11.1569 8.28815 10.8561 8.39125 10.5531 8.50669C10.2546 8.62038 9.93483 8.75325 9.68223 8.88797C9.55877 8.95381 9.42547 9.03357 9.31486 9.12628C9.25955 9.17263 9.19111 9.23767 9.13253 9.32246C9.07554 9.40497 9 9.54696 9 9.73405C9 11.3314 9.65764 12.5281 10.3028 13.3146C10.625 13.7073 10.947 14.0019 11.1903 14.1997C11.3123 14.2988 11.4154 14.3743 11.4901 14.4264C11.5275 14.4524 11.5579 14.4727 11.5801 14.4871L11.6071 14.5044L11.6158 14.5098L11.6188 14.5117L11.6206 14.5128C11.8124 14.6297 12.0538 14.6299 12.2456 14.513L11.9333 14.0007C12.2456 14.513 12.2466 14.5124 12.2466 14.5124L12.2478 14.5117L12.2509 14.5098L12.2596 14.5044L12.2866 14.4871C12.3088 14.4727 12.3392 14.4524 12.3765 14.4264C12.4513 14.3743 12.5544 14.2988 12.6763 14.1997C12.9196 14.0019 13.2417 13.7073 13.5639 13.3146C14.209 12.5281 14.8667 11.3314 14.8667 9.73405C14.8667 9.54696 14.7911 9.40497 14.7341 9.32246C14.6756 9.23767 14.6071 9.17263 14.5518 9.12628C14.4412 9.03357 14.3079 8.95381 14.1844 8.88797C13.9318 8.75325 13.6121 8.62038 13.3136 8.50669C13.0106 8.39125 12.7097 8.28815 12.486 8.2143C12.3738 8.17724 12.2801 8.14727 12.2142 8.12646L12.1371 8.10233L12.1162 8.09589L12.1082 8.09344ZM11.9333 14.0007L11.6206 14.5128C11.6206 14.5128 11.6211 14.513 11.9333 14.0007ZM11.2306 12.5535C11.4855 12.8644 11.7407 13.0993 11.9333 13.2571C12.126 13.0993 12.3811 12.8644 12.6361 12.5535C13.1243 11.9583 13.6016 11.0995 13.6606 9.9691C13.648 9.96207 13.6344 9.95463 13.6197 9.94679C13.4348 9.84818 13.1713 9.7366 12.8864 9.62807C12.6061 9.52129 12.3236 9.42439 12.1098 9.3538C12.0433 9.33183 11.9837 9.31252 11.9333 9.29637C11.883 9.31252 11.8234 9.33183 11.7569 9.3538C11.5431 9.42439 11.2606 9.52129 10.9803 9.62807C10.6954 9.7366 10.4318 9.84818 10.2469 9.94679C10.2322 9.95463 10.2186 9.96207 10.2061 9.9691C10.265 11.0995 10.7423 11.9583 11.2306 12.5535Z" fill="black"/>
</svg>
