<svg width="16" height="16" viewBox="0 0 16 16" fill="none" xmlns="http://www.w3.org/2000/svg">
<path d="M8 1C4.134 1 1 4.134 1 8C1 11.866 4.134 15 8 15C11.866 15 15 11.866 15 8C14.9945 4.136 11.864 1.0055 8 1ZM12.4015 12.327L12.2225 12.5175L12.175 12.266C12.043 11.5485 11.729 10.8765 11.263 10.3145C11.1145 10.1515 10.864 10.135 10.695 10.276C10.526 10.417 10.4985 10.667 10.6325 10.8415C11.144 11.4565 11.424 12.231 11.4245 13.031C11.4255 13.0435 11.4255 13.0565 11.4245 13.069V13.1415L11.3635 13.1815C9.317 14.5165 6.675 14.5165 4.628 13.1815L4.567 13.1415V13.033C4.567 11.1405 6.101 9.6065 7.9935 9.6065C9.4355 9.6105 10.669 8.5715 10.9105 7.1495C11.152 5.7275 10.3305 4.34 8.968 3.8675C7.6055 3.395 6.101 3.977 5.411 5.243C4.721 6.509 5.0465 8.0885 6.1815 8.978L6.351 9.1095L6.1605 9.203C4.941 9.792 4.074 10.9255 3.8245 12.2565L3.777 12.508L3.598 12.3175C2.458 11.17 1.8195 9.6175 1.822 8C1.8185 5.209 3.687 2.762 6.3805 2.0305C9.074 1.299 11.9235 2.4645 13.3325 4.874C14.7415 7.2835 14.36 10.3385 12.4015 12.327ZM5.879 6.658C5.88 5.488 6.829 4.5405 7.999 4.541C9.169 4.5415 10.117 5.4905 10.1165 6.6605C10.116 7.8305 9.1675 8.7785 7.9975 8.7785C6.827 8.7775 5.8785 7.8285 5.8785 6.6575L5.879 6.658Z" fill="black"/>
</svg>
