<svg width="16" height="16" viewBox="0 0 16 16" fill="none" xmlns="http://www.w3.org/2000/svg">
<path fill-rule="evenodd" clip-rule="evenodd" d="M1.57797 2.40039C1.25877 2.40039 1 2.66902 1 3.00039V8.00039V13.0004C1 13.3318 1.25877 13.6004 1.57797 13.6004H14.4217C14.7409 13.6004 14.9997 13.3318 14.9997 13.0004V8.00039H15V3.00039C15 2.66902 14.7412 2.40039 14.422 2.40039H14.4217H8.00016H7.99984H1.57797ZM8.00016 3.60039H7.99984H3.31187L7.99984 7.25039L12.6878 3.60039H8.00016ZM2.15594 8.00039V4.20039L7.65306 8.48039C7.85856 8.64039 8.14112 8.64039 8.34662 8.48039L13.8437 4.20039V8.00039V12.4004H2.15594V8.00039Z" fill="black"/>
</svg>
