<svg width="20" height="20" viewBox="0 0 20 20" fill="none" xmlns="http://www.w3.org/2000/svg">
<path fill-rule="evenodd" clip-rule="evenodd" d="M10 6.69874C8.12224 6.69874 6.6 8.25438 6.6 10.1734C6.6 12.0923 8.12224 13.648 10 13.648C11.8778 13.648 13.4 12.0923 13.4 10.1734C13.4 8.25438 11.8778 6.69874 10 6.69874ZM8.4 10.1734C8.4 9.27031 9.11635 8.53824 10 8.53824C10.8837 8.53824 11.6 9.27031 11.6 10.1734C11.6 11.0764 10.8837 11.8085 10 11.8085C9.11635 11.8085 8.4 11.0764 8.4 10.1734Z" fill="black"/>
<path fill-rule="evenodd" clip-rule="evenodd" d="M6.5056 2.10016C5.8268 2.10016 5.19956 2.47024 4.86015 3.07101L1.4375 9.12931C1.0981 9.73007 1.0981 10.4702 1.4375 11.071L4.86015 17.1293C5.19956 17.7301 5.8268 18.1002 6.5056 18.1002L13.3509 18.1002C14.0297 18.1002 14.6569 17.7301 14.9963 17.1293L18.419 11.071C18.7584 10.4702 18.7584 9.73007 18.419 9.12931L14.9964 3.07101C14.6569 2.47024 14.0297 2.10016 13.3509 2.10016H6.5056ZM6.5056 3.93966L13.3509 3.93966C13.3866 3.93966 13.4196 3.95914 13.4375 3.99076L16.8602 10.0491C16.878 10.0807 16.878 10.1196 16.8602 10.1513L13.4375 16.2096C13.4196 16.2412 13.3866 16.2607 13.3509 16.2607L6.5056 16.2607C6.46988 16.2607 6.43686 16.2412 6.419 16.2096L2.99635 10.1513C2.97849 10.1196 2.97849 10.0807 2.99635 10.0491L6.419 3.99076C6.43686 3.95914 6.46988 3.93966 6.5056 3.93966Z" fill="black"/>
</svg>
