<svg width="16" height="16" viewBox="0 0 16 16" fill="none" xmlns="http://www.w3.org/2000/svg">
<path fill-rule="evenodd" clip-rule="evenodd" d="M6.58594 2.12345H13.6634L13.6642 2.12305C14.0662 2.12305 14.3076 2.44505 14.3879 2.76705V7.51665H11.3317C11.412 7.27505 11.7337 6.95345 12.3771 7.11425L12.6988 6.63105C12.6988 6.63105 11.9751 5.98705 12.6988 5.26265L12.3771 4.77945C12.3771 4.77945 11.3313 5.10145 11.1707 4.13545H10.6879C10.6879 4.13545 10.5269 5.10145 9.48151 4.77945L9.15983 5.26265C9.15983 5.26265 9.96424 5.82625 9.15983 6.55065L9.48151 7.03385C9.48151 7.03385 10.2052 6.71185 10.5269 7.43625H6.66666C6.66666 7.43625 6.90763 6.06785 8.35541 6.47025L8.75742 5.74585C8.75742 5.74585 7.63132 4.86025 8.75742 3.81385L8.35541 3.08945C8.35541 3.08945 6.90763 3.49185 6.58594 2.12345ZM3.52972 5.82665L4.01245 6.55105V6.55145C4.01245 6.55145 5.2992 5.98785 5.7012 7.59785H1.59961V2.84825C1.59961 2.52625 1.9213 2.20425 2.24298 2.20425H5.7012C5.7012 2.36505 5.46024 3.57265 4.01245 3.17025L3.52972 3.89465C3.52972 3.89465 4.73615 4.69945 3.52972 5.82665ZM10.8486 6.55105C11.2039 6.55105 11.4919 6.26273 11.4919 5.90705C11.4919 5.55138 11.2039 5.26305 10.8486 5.26305C10.4933 5.26305 10.2052 5.55138 10.2052 5.90705C10.2052 6.26273 10.4933 6.55105 10.8486 6.55105ZM6.10361 5.74624C6.6366 5.74624 7.06867 5.31375 7.06867 4.78024C7.06867 4.24673 6.6366 3.81424 6.10361 3.81424C5.57062 3.81424 5.13855 4.24673 5.13855 4.78024C5.13855 5.31375 5.57062 5.74624 6.10361 5.74624ZM1.59961 13.233V8.48344H14.3068V13.233C14.3068 13.555 13.9851 13.877 13.6634 13.877H2.24298C1.9213 13.877 1.59961 13.555 1.59961 13.233ZM3.53012 11.623H10.5269V10.8986H3.53012V11.623ZM11.894 11.7034C11.6526 11.7034 11.4919 11.5426 11.4919 11.301C11.4919 11.0594 11.6526 10.8986 11.894 10.8986C12.1353 10.8986 12.296 11.0594 12.296 11.301C12.3763 11.4618 12.1353 11.7034 11.894 11.7034Z" fill="black"/>
</svg>
