<svg width="20" height="20" viewBox="0 0 20 20" fill="none" xmlns="http://www.w3.org/2000/svg">
<path fill-rule="evenodd" clip-rule="evenodd" d="M8.23243 2.65431H17.0793L17.0803 2.65381C17.5828 2.65381 17.8845 3.05631 17.9849 3.45881V9.39581H14.1646C14.265 9.09381 14.6671 8.69181 15.4714 8.89281L15.8735 8.28881C15.8735 8.28881 14.9688 7.48381 15.8735 6.57831L15.4714 5.97431C15.4714 5.97431 14.1641 6.37681 13.9633 5.16931H13.3599C13.3599 5.16931 13.1586 6.37681 11.8519 5.97431L11.4498 6.57831C11.4498 6.57831 12.4553 7.28281 11.4498 8.18831L11.8519 8.79231C11.8519 8.79231 12.7565 8.38981 13.1586 9.29531H8.33333C8.33333 9.29531 8.63453 7.58481 10.4443 8.08781L10.9468 7.18231C10.9468 7.18231 9.53915 6.07531 10.9468 4.76731L10.4443 3.86181C10.4443 3.86181 8.63453 4.36481 8.23243 2.65431ZM4.41216 7.28332L5.01557 8.18882V8.18932C5.01557 8.18932 6.624 7.48482 7.1265 9.49732H1.99951V3.56032C1.99951 3.15782 2.40162 2.75532 2.80373 2.75532H7.1265C7.1265 2.95632 6.8253 4.46582 5.01557 3.96282L4.41216 4.86832C4.41216 4.86832 5.92018 5.87432 4.41216 7.28332ZM13.5607 8.18882C14.0049 8.18882 14.3649 7.82841 14.3649 7.38382C14.3649 6.93923 14.0049 6.57882 13.5607 6.57882C13.1166 6.57882 12.7565 6.93923 12.7565 7.38382C12.7565 7.82841 13.1166 8.18882 13.5607 8.18882ZM7.62951 7.1828C8.29575 7.1828 8.83584 6.64218 8.83584 5.9753C8.83584 5.30842 8.29575 4.7678 7.62951 4.7678C6.96328 4.7678 6.42319 5.30842 6.42319 5.9753C6.42319 6.64218 6.96328 7.1828 7.62951 7.1828ZM1.99951 16.5413V10.6043H17.8835V16.5413C17.8835 16.9438 17.4814 17.3463 17.0793 17.3463H2.80373C2.40162 17.3463 1.99951 16.9438 1.99951 16.5413ZM4.41266 14.5288H13.1586V13.6233H4.41266V14.5288ZM14.8674 14.6293C14.5657 14.6293 14.3649 14.4283 14.3649 14.1263C14.3649 13.8243 14.5657 13.6233 14.8674 13.6233C15.1692 13.6233 15.37 13.8243 15.37 14.1263C15.4704 14.3273 15.1692 14.6293 14.8674 14.6293Z" fill="black"/>
</svg>
