<svg width="16" height="16" viewBox="0 0 16 16" fill="none" xmlns="http://www.w3.org/2000/svg">
<path fill-rule="evenodd" clip-rule="evenodd" d="M4 1C2.89543 1 2 1.89543 2 3V13C2 14.1046 2.89543 15 4 15H12C13.1046 15 14 14.1046 14 13V3C14 1.89543 13.1046 1 12 1H4ZM5.00001 5.33333C5.36821 5.33333 5.66668 5.03486 5.66668 4.66667C5.66668 4.29847 5.36821 4 5.00001 4C4.63181 4 4.33334 4.29847 4.33334 4.66667C4.33334 5.03486 4.63181 5.33333 5.00001 5.33333ZM6.33334 4.66667C6.33334 4.29848 6.63182 4 7.00001 4H11C11.3682 4 11.6667 4.29848 11.6667 4.66667C11.6667 5.03485 11.3682 5.33333 11 5.33333H7.00001C6.63182 5.33333 6.33334 5.03485 6.33334 4.66667ZM6.33334 7.99997C6.33334 7.63178 6.63182 7.3333 7.00001 7.3333H11C11.3682 7.3333 11.6667 7.63178 11.6667 7.99997C11.6667 8.36816 11.3682 8.66664 11 8.66664H7.00001C6.63182 8.66664 6.33334 8.36816 6.33334 7.99997ZM7.00001 10.6666C6.63182 10.6666 6.33334 10.9651 6.33334 11.3333C6.33334 11.7015 6.63182 11.9999 7.00001 11.9999H11C11.3682 11.9999 11.6667 11.7015 11.6667 11.3333C11.6667 10.9651 11.3682 10.6666 11 10.6666H7.00001ZM5.66668 7.99997C5.66668 8.36817 5.36821 8.66664 5.00001 8.66664C4.63181 8.66664 4.33334 8.36817 4.33334 7.99997C4.33334 7.63177 4.63181 7.3333 5.00001 7.3333C5.36821 7.3333 5.66668 7.63177 5.66668 7.99997ZM5.00001 12C5.36821 12 5.66668 11.7015 5.66668 11.3333C5.66668 10.9651 5.36821 10.6667 5.00001 10.6667C4.63181 10.6667 4.33334 10.9651 4.33334 11.3333C4.33334 11.7015 4.63181 12 5.00001 12Z" fill="black"/>
</svg>
