<svg width="16" height="16" viewBox="0 0 16 16" fill="none" xmlns="http://www.w3.org/2000/svg">
<path fill-rule="evenodd" clip-rule="evenodd" d="M6.93916 13.5592C7.34237 13.8972 7.66114 14.1134 7.97619 14.1134C8.32001 14.1134 8.72184 13.8803 8.72184 13.222V2.77119C8.72184 2.11798 8.31862 1.88574 7.97341 1.88574C7.65557 1.88574 7.34237 2.09233 6.93777 2.43542L4.19184 4.6882H2.9474C2.15165 4.6882 1.50391 5.32767 1.50391 6.11325V9.87949C1.50391 10.6655 2.15165 11.3045 2.9474 11.305H4.19184L6.93916 13.5592ZM2.46625 6.11323C2.46625 5.85167 2.68247 5.63821 2.94741 5.63821H4.39091C4.5185 5.63821 4.641 5.58828 4.73102 5.49896L7.618 3.10693C7.66951 3.05608 7.7173 3.01394 7.75906 2.97913V13.0145C7.71637 12.9792 7.66997 12.9371 7.61893 12.8871L4.73102 10.4937C4.641 10.4044 4.5185 10.3545 4.39091 10.3545H2.94741C2.68247 10.3545 2.46625 10.1415 2.46625 9.87947V6.11323ZM10.3996 11.2381C10.3027 11.2381 10.2043 11.2092 10.1194 11.1488C9.90363 10.9958 9.85444 10.6989 10.009 10.4855L10.1997 10.2281C10.6975 9.56157 11.1277 8.98532 11.1277 7.99635C11.1277 6.97165 10.7467 6.47419 10.2637 5.8448C10.1783 5.73395 10.0934 5.62218 10.009 5.50675C9.85398 5.29374 9.90316 4.99692 10.1194 4.84346C10.3356 4.68955 10.6358 4.73902 10.7913 4.95248C10.8649 5.05421 10.9405 5.15315 11.0151 5.25079L11.0311 5.27176C11.5517 5.95107 12.0895 6.65329 12.0895 7.99681C12.0895 9.29772 11.4975 10.0916 10.9745 10.7924L10.7908 11.0407C10.6971 11.1698 10.5495 11.2381 10.3996 11.2381ZM11.7197 12.7333C11.8106 12.812 11.9238 12.851 12.0366 12.851C12.1698 12.851 12.3025 12.7965 12.3985 12.6893C13.4351 11.5221 14.4958 10.0513 14.4958 7.99683C14.4958 5.94239 13.4355 4.47199 12.3985 3.30392C12.2226 3.10695 11.9183 3.08725 11.7197 3.2604C11.5197 3.43355 11.4997 3.73359 11.6747 3.93101C12.6402 5.01755 13.5334 6.26212 13.5334 7.99683C13.5334 9.73153 12.6402 10.9756 11.6747 12.0631C11.4997 12.2601 11.5202 12.5606 11.7197 12.7333Z" fill="black"/>
</svg>
