<svg width="16" height="16" viewBox="0 0 16 16" fill="none" xmlns="http://www.w3.org/2000/svg">
<path fill-rule="evenodd" clip-rule="evenodd" d="M7.23545 13.7969H2.79961V2.20293H13.1996V8.06361H14.3996V1.93626C14.3996 1.73497 14.3345 1.54081 14.2164 1.38143C14.1935 1.33247 14.1602 1.27744 14.1112 1.22378C14.0252 1.12956 13.9286 1.08074 13.8596 1.05504C13.794 1.03062 13.7349 1.02027 13.697 1.01504C13.6227 1.00478 13.5408 1.00293 13.4644 1.00293H2.53487C2.08793 1.00293 2.05042 1.10043 1.87477 1.27508C1.69899 1.44984 1.59961 1.68761 1.59961 1.93626V14.0636C1.59961 14.3123 1.69899 14.55 1.87477 14.7248C2.05042 14.8994 2.28793 14.9969 2.53487 14.9969H7.23545V13.7969ZM3.79946 7.40012H7.79946V8.60012H3.79946V7.40012ZM9.99946 4.60007H3.79946V5.80007H9.99946V4.60007Z" fill="black"/>
<path fill-rule="evenodd" clip-rule="evenodd" d="M9.29946 11.4C9.29946 10.6268 9.92626 10 10.6995 10C11.4727 10 12.0995 10.6268 12.0995 11.4C12.0995 12.1732 11.4727 12.8 10.6995 12.8C9.92626 12.8 9.29946 12.1732 9.29946 11.4ZM10.6995 8.80002C9.26352 8.80002 8.09946 9.96408 8.09946 11.4C8.09946 12.836 9.26352 14 10.6995 14C11.3033 14 11.859 13.7942 12.3003 13.4489L13.6581 14.5351L14.4077 13.5981L13.0503 12.5122C13.2101 12.175 13.2995 11.7979 13.2995 11.4C13.2995 9.96408 12.1354 8.80002 10.6995 8.80002Z" fill="black"/>
</svg>
