<svg width="16" height="16" viewBox="0 0 16 16" fill="none" xmlns="http://www.w3.org/2000/svg">
<path fill-rule="evenodd" clip-rule="evenodd" d="M3.2 6.64911V8.5H12.8V6.64911H10.3315L9.50798 7.95932C9.38927 8.14819 9.17557 8.2556 8.95317 8.23818C8.73077 8.22077 8.53639 8.08141 8.44851 7.87637L7.34692 5.30599L6.47179 6.4198C6.35804 6.56457 6.18412 6.64911 6 6.64911H3.2ZM3.2 5.44911H5.70838L7.02821 3.76932C7.15908 3.60276 7.36808 3.51755 7.5781 3.54512C7.78812 3.57269 7.96805 3.70897 8.05149 3.90366L9.10083 6.35214L9.49202 5.7298C9.60182 5.55512 9.79367 5.44911 10 5.44911H12.8V3.2H3.2V5.44911ZM3.2 12.8V9.7H12.8V12.8H3.2ZM3 2C2.44772 2 2 2.44772 2 3V13C2 13.5523 2.44772 14 3 14H13C13.5523 14 14 13.5523 14 13V3C14 2.44772 13.5523 2 13 2H3ZM9 10.56H5V11.76H9V10.56ZM10 10.56H11.2V11.76H10V10.56Z" fill="black"/>
</svg>
