<svg width="20" height="20" viewBox="0 0 20 20" fill="none" xmlns="http://www.w3.org/2000/svg">
<path fill-rule="evenodd" clip-rule="evenodd" d="M4.78306 2.95001C3.80216 2.95001 3.00699 3.74519 3.00699 4.72608V15.2739C3.00699 16.2548 3.80216 17.05 4.78306 17.05H15.2169C16.1978 17.05 16.993 16.2548 16.993 15.2739V4.72608C16.993 3.74518 16.1978 2.95001 15.2169 2.95001H4.78306ZM4.19103 4.72608C4.19103 4.39911 4.45609 4.13406 4.78306 4.13406H15.2169C15.5439 4.13406 15.809 4.39911 15.809 4.72608V15.2739C15.809 15.6009 15.5439 15.866 15.2169 15.866H4.78306C4.45609 15.866 4.19103 15.6009 4.19103 15.2739V4.72608ZM6.28635 5.28636C5.73407 5.28636 5.28635 5.73408 5.28635 6.28636V13.7137C5.28635 14.266 5.73407 14.7137 6.28635 14.7137H13.7137C14.266 14.7137 14.7137 14.266 14.7137 13.7137V6.28636C14.7137 5.73408 14.266 5.28636 13.7137 5.28636H6.28635Z" fill="#7855FA"/>
<path fill-rule="evenodd" clip-rule="evenodd" d="M8.63725 6.54987C8.84435 6.55441 9.03027 6.67794 9.11468 6.86711L11.2555 11.6646L11.788 9.8746C11.8556 9.64744 12.0644 9.4917 12.3014 9.4917H14.7137V10.563H12.7009L11.8696 13.3574C11.8057 13.5722 11.6148 13.7245 11.3911 13.7391C11.1675 13.7538 10.9584 13.6276 10.867 13.4229L8.59811 8.33837L7.63427 10.2668C7.54355 10.4483 7.35806 10.563 7.15514 10.563H5.28635V9.4917H6.82404L8.1464 6.84592C8.23901 6.66062 8.43016 6.54534 8.63725 6.54987Z" fill="#C6C3FF"/>
</svg>
