<svg width="16" height="16" viewBox="0 0 16 16" fill="none" xmlns="http://www.w3.org/2000/svg">
<path fill-rule="evenodd" clip-rule="evenodd" d="M2.98251 1.48633H13.0165C13.8427 1.48633 14.5127 2.15631 14.5127 2.98251V13.0165C14.5127 13.8427 13.8427 14.5127 13.0165 14.5127H2.98251C2.15631 14.5127 1.48633 13.8427 1.48633 13.0165V2.98251C1.48633 2.15631 2.15631 1.48633 2.98251 1.48633ZM4.26077 7.9995C4.26077 8.41138 4.59478 8.74539 5.00666 8.74539C5.41854 8.74539 5.75255 8.41138 5.75255 7.9995C5.75255 7.58762 5.41854 7.25361 5.00666 7.25361C4.59478 7.25361 4.26077 7.58762 4.26077 7.9995ZM7.99952 8.74539C7.58764 8.74539 7.25363 8.41138 7.25363 7.9995C7.25363 7.58762 7.58764 7.25361 7.99952 7.25361C8.4114 7.25361 8.74541 7.58762 8.74541 7.9995C8.74541 8.41138 8.4114 8.74539 7.99952 8.74539ZM10.2465 7.9995C10.2465 8.41138 10.5805 8.74539 10.9924 8.74539C11.4043 8.74539 11.7383 8.41138 11.7383 7.9995C11.7383 7.58762 11.4043 7.25361 10.9924 7.25361C10.5805 7.25361 10.2465 7.58762 10.2465 7.9995Z" fill="black"/>
</svg>
