<svg width="16" height="16" viewBox="0 0 16 16" fill="none" xmlns="http://www.w3.org/2000/svg">
<path d="M6.2003 10.6998V13.3924H5.31827V14.2908H6.20345C6.6992 14.2908 7.10183 13.8888 7.10183 13.3924V10.6998H6.2003Z" fill="black"/>
<path d="M6.19967 5.3038V2.60737H5.31764V1.70898H6.20282C6.6992 1.70898 7.10121 2.11162 7.10121 2.60737V5.3038H6.19967Z" fill="black"/>
<path d="M3.52023 14.2915H2.608C2.11162 14.2915 1.70961 13.8888 1.70961 13.3931V11.5642H2.608V13.3937H3.52023V14.2915Z" fill="black"/>
<path d="M3.52023 2.60737H2.608V4.40478H1.70961V2.60737C1.70961 2.11099 2.11225 1.70898 2.608 1.70898H3.52023V2.60737Z" fill="black"/>
<path d="M2.60737 9.76618H1.70898V6.20282H2.60737V9.76618Z" fill="black"/>
<path d="M8.90239 10.6998H9.80456V13.3899H13.3918V2.60674H9.80456V5.3038H8.90239V2.60737C8.90239 2.11099 9.30503 1.70898 9.80078 1.70898H13.3924C13.8888 1.70898 14.2908 2.11162 14.2908 2.60737V13.3924C14.2908 13.8888 13.8882 14.2908 13.3924 14.2908H9.80078C9.3044 14.2908 8.90239 13.8882 8.90239 13.3924V10.6998Z" fill="black"/>
<path d="M10.4047 10.172L12.2305 8.43117C12.3462 8.32171 12.4116 8.16442 12.4116 8.00022C12.4116 7.83602 12.3456 7.67937 12.2305 7.56927L10.4047 5.82849C10.1801 5.61396 9.83412 5.63346 9.63154 5.87127C9.42896 6.10908 9.44721 6.47586 9.67181 6.69039L10.4368 7.42017H4.32803C4.02605 7.42017 3.78069 7.68 3.78069 8.00022C3.78069 8.32045 4.02542 8.58028 4.32803 8.58028H10.4368L9.67181 9.31006C9.44721 9.52396 9.42896 9.89137 9.63154 10.1292C9.83412 10.367 10.1801 10.3865 10.4047 10.172Z" fill="black"/>
</svg>
