<svg width="20" height="20" viewBox="0 0 20 20" fill="none" xmlns="http://www.w3.org/2000/svg">
<path fill-rule="evenodd" clip-rule="evenodd" d="M13 1L4.39997 1C3.08004 1 2 2.08004 2 3.39998V16.5999C2 17.92 3.08004 19 4.39997 19H15.6C16.9201 19 18 17.92 18 16.5999V6L13 1ZM12.9923 9.24427V6.90852L9.53838 6.21279V12.7478C9.53838 12.9306 9.46803 13.0957 9.32721 13.2448C9.1864 13.3938 9.02499 13.4684 8.84276 13.4684H8.1221C7.70801 13.518 7.36416 13.6635 7.09087 13.9033C6.95576 14.022 6.85403 14.1519 6.78579 14.2928C6.71586 14.437 6.68089 14.5929 6.68089 14.7606C6.68089 15.1421 6.81759 15.4526 7.09087 15.6923C7.36416 15.9326 7.70801 16.0526 8.1221 16.0526C8.66878 16.0526 9.14087 15.9247 9.53838 15.6675C9.936 15.4108 10.1347 15.1084 10.1347 14.7606V8.64795L12.9923 9.24427Z" fill="#9371FA"/>
<path opacity="0.5" d="M13 1L18 6H14.2C13.48 6 13 5.52 13 4.8V1Z" fill="white"/>
</svg>
