<svg width="16" height="16" viewBox="0 0 16 16" fill="none" xmlns="http://www.w3.org/2000/svg">
<path fill-rule="evenodd" clip-rule="evenodd" d="M5.03166 9.02064C5.14489 10.8293 5.55454 12.4134 6.14184 13.496C3.98728 12.7678 2.40004 10.8082 2.21756 8.45463C3.2111 8.70069 4.14908 8.88589 5.03166 9.02064ZM6.24578 9.17896C6.34933 10.494 6.62092 11.6353 6.98165 12.477C7.21499 13.0215 7.46201 13.3854 7.67519 13.5958C7.88216 13.8001 7.99049 13.8 7.99987 13.8H8V15C4.13401 15 1 11.866 1 8C1 7.62759 1.02908 7.26195 1.0851 6.90527C1.6106 3.55928 4.50642 1 8 1C11.5064 1 14.4106 3.57809 14.9206 6.94213C14.9729 7.28713 15 7.6404 15 8C15 8.07551 14.9988 8.15074 14.9964 8.22567L14.9961 8.23447C14.8831 8.28335 14.7545 8.33685 14.6104 8.39168C14.3703 8.48303 14.0872 8.58039 13.761 8.67645L13.7611 8.67557C13.2163 8.83598 12.5511 8.99274 11.7649 9.11177C11.5077 9.15072 11.2377 9.1856 10.955 9.21525L10.9549 9.2161C10.5744 9.25599 10.1707 9.2864 9.74379 9.30449L9.74386 9.30364C8.71336 9.34729 7.54755 9.3191 6.24578 9.17896ZM9.79968 8.0999C8.75965 8.14972 7.56025 8.12238 6.20004 7.9665C6.2003 7.84475 6.20199 7.72403 6.20507 7.60445C6.24739 5.95965 6.551 4.52782 6.98165 3.52296C7.21499 2.97851 7.46201 2.61458 7.67519 2.40419C7.88216 2.19993 7.99076 2.19999 8.00013 2.2C8.00951 2.19999 8.11784 2.19993 8.32481 2.40419C8.53799 2.61458 8.78501 2.97851 9.01835 3.52296C9.42508 4.47201 9.71849 5.8019 9.78548 7.33236C9.79505 7.55099 9.8 7.77371 9.8 8C9.8 8.03338 9.79989 8.06668 9.79968 8.0999ZM13.7709 7.41561C13.2266 7.59542 12.4986 7.78701 11.5853 7.9253C11.3981 7.95364 11.203 7.97976 11 8.00309V8C11 7.74368 10.9941 7.49057 10.9826 7.24139C10.894 5.324 10.4737 3.63857 9.85816 2.50405C11.8544 3.17874 13.3637 4.91055 13.7198 7.03338C13.741 7.15946 13.758 7.28692 13.7709 7.41561ZM5.00119 7.80125C4.85914 7.77845 4.71555 7.75427 4.57041 7.72867C3.83688 7.5993 3.06388 7.4337 2.25124 7.22565C2.54611 5.01552 4.08562 3.199 6.14183 2.50405C5.47815 3.72739 5.04135 5.59127 5.00278 7.69581C5.00214 7.73089 5.00161 7.76604 5.00119 7.80125ZM11.5971 9.40792C11.5303 9.39695 11.4621 9.39738 11.3955 9.40918L11.5 10C11.3955 9.40918 11.3954 9.40919 11.3954 9.4092L11.3952 9.40923L11.3947 9.40931L11.3931 9.4096L11.3875 9.41061L11.3667 9.41436L11.2904 9.42849C11.2252 9.44075 11.1325 9.45856 11.0216 9.48103C10.8005 9.5258 10.5028 9.58985 10.2026 9.66601C9.90774 9.74081 9.58805 9.83284 9.33325 9.9366C9.20945 9.98701 9.06941 10.0526 8.95027 10.1377C8.89047 10.1804 8.81334 10.2438 8.74666 10.3324C8.67889 10.4225 8.6002 10.5686 8.6002 10.76C8.6002 12.8414 9.24286 14.0169 10.0116 14.6562C10.3857 14.9673 10.763 15.128 11.0513 15.2107C11.1954 15.2521 11.3183 15.2743 11.4094 15.2862C11.4551 15.2922 11.493 15.2957 11.5221 15.2977C11.5366 15.2987 11.5489 15.2993 11.5588 15.2997L11.572 15.3002L11.5772 15.3003L11.5795 15.3003L11.5805 15.3004C11.581 15.3004 11.5815 15.3004 11.5902 14.7004L11.5815 15.3004H11.5989L11.5902 14.7004C11.5989 15.3004 11.5994 15.3004 11.5999 15.3004L11.6009 15.3003L11.6032 15.3003L11.6084 15.3002L11.6216 15.2997C11.6315 15.2993 11.6438 15.2987 11.6583 15.2977C11.6873 15.2957 11.7253 15.2922 11.771 15.2862C11.8621 15.2743 11.985 15.2521 12.1291 15.2107C12.4174 15.128 12.7947 14.9673 13.1688 14.6562C13.9375 14.0169 14.5802 12.8414 14.5802 10.76C14.5802 10.5549 14.4894 10.4029 14.4182 10.3151C14.3473 10.2279 14.2664 10.1665 14.2049 10.1257C14.0815 10.044 13.9357 9.98046 13.8046 9.93097C13.5348 9.82908 13.1943 9.73806 12.8775 9.66353C12.5555 9.58779 12.2359 9.52402 11.9983 9.4794C11.8791 9.45702 11.7796 9.43927 11.7096 9.42708L11.6277 9.41303L11.6056 9.40931L11.5996 9.40832L11.5979 9.40804L11.5974 9.40796L11.5972 9.40793C11.5972 9.40792 11.5971 9.40792 11.5 10L11.5971 9.40792ZM11.6148 14.0964C11.605 14.0977 11.5967 14.0986 11.5902 14.0993C11.5836 14.0986 11.5754 14.0977 11.5656 14.0964C11.526 14.0912 11.4622 14.0802 11.3822 14.0572C11.2224 14.0114 11.0022 13.9193 10.7788 13.7336C10.375 13.3977 9.85816 12.667 9.80471 11.0404C9.98021 10.9708 10.2273 10.8977 10.4976 10.8292C10.7724 10.7595 11.0496 10.6997 11.2597 10.6572C11.3599 10.6369 11.4439 10.6207 11.504 10.6093C11.5697 10.6208 11.6638 10.6376 11.7768 10.6588C12.0042 10.7015 12.3046 10.7615 12.6027 10.8316C12.9032 10.9023 13.1804 10.9785 13.3753 11.0516C13.3199 12.6703 12.8044 13.3985 12.4016 13.7336C12.1782 13.9193 11.958 14.0114 11.7982 14.0572C11.7182 14.0802 11.6544 14.0912 11.6148 14.0964Z" fill="black"/>
</svg>
