<svg width="16" height="16" viewBox="0 0 16 16" fill="none" xmlns="http://www.w3.org/2000/svg">
<path fill-rule="evenodd" clip-rule="evenodd" d="M2.79961 13.7969H6V14.9969H2.53487C2.28793 14.9969 2.05042 14.8994 1.87477 14.7248C1.69899 14.55 1.59961 14.3123 1.59961 14.0636V1.93626C1.59961 1.68761 1.69899 1.44984 1.87477 1.27508C1.8945 1.25546 1.91248 1.23682 1.92951 1.21917C2.06401 1.07976 2.13814 1.00293 2.53487 1.00293H13.4644C13.5408 1.00293 13.6227 1.00478 13.697 1.01504C13.7349 1.02027 13.794 1.03062 13.8596 1.05504C13.9286 1.08074 14.0252 1.12956 14.1112 1.22378C14.1602 1.27744 14.1935 1.33247 14.2164 1.38143C14.3345 1.54081 14.3996 1.73497 14.3996 1.93626V6H13.1996V2.20293H2.79961V13.7969ZM7.4 7.40012H3.79946V8.60012H7.4V7.40012ZM3.79946 4.60007H9.99946V5.80007H3.79946V4.60007ZM11.0632 8.33916C10.1059 8.33916 9.32988 9.1152 9.32988 10.0725V12.8058H12.7965V10.0725C12.7965 9.1152 12.0205 8.33916 11.0632 8.33916ZM13.9965 12.8058V10.0725C13.9965 8.45246 12.6833 7.13916 11.0632 7.13916C9.44318 7.13916 8.12988 8.45246 8.12988 10.0725V12.8058H7.72988H7.12988V14.0058H7.72988H8.12988H9.32988H9.69645C9.88002 14.5858 10.4225 15.0062 11.0632 15.0062C11.7039 15.0062 12.2464 14.5858 12.43 14.0058H12.7965H13.9965H14.3965H14.9965V12.8058H14.3965H13.9965Z" fill="black"/>
</svg>
