<svg width="16" height="16" viewBox="0 0 16 16" fill="none" xmlns="http://www.w3.org/2000/svg">
<path fill-rule="evenodd" clip-rule="evenodd" d="M8 13.8C11.2033 13.8 13.8 11.2033 13.8 8C13.8 4.79675 11.2033 2.2 8 2.2C5.93513 2.2 4.12141 3.27888 3.09322 4.90593L4.3205 4.90711L4.31935 6.1071L1.59953 6.1045C1.26816 6.10418 0.999784 5.83529 1.0001 5.50392L1.00271 2.77904L2.20271 2.78018L2.20147 4.07756C3.45954 2.22133 5.58675 1 8 1C11.866 1 15 4.13401 15 8C15 11.866 11.866 15 8 15C4.13401 15 1 11.866 1 8H2.2C2.2 11.2033 4.79675 13.8 8 13.8ZM7.0006 4.29057L7.0002 8.2935C7.00018 8.48222 7.08895 8.65995 7.23984 8.77329L10.1332 10.9467L10.8539 9.98722L8.20023 7.99386L8.2006 4.29069L7.0006 4.29057Z" fill="black"/>
</svg>
