<svg width="20" height="20" viewBox="0 0 20 20" fill="none" xmlns="http://www.w3.org/2000/svg">
<path d="M10.4 5.34998H8.60001V10.9803L12.3995 13.591V11.3513L10.4 10.0183V5.34998Z" fill="black"/>
<path d="M1.10001 9.99998C1.10001 5.08464 5.08467 1.09998 10 1.09998C14.4934 1.09998 18.2088 4.42978 18.8138 8.75652C18.8433 8.96718 18.6777 9.14998 18.4694 9.14998H17.3559C17.18 9.14998 17.035 9.02006 17.0076 8.85137C16.4587 5.47637 13.5301 2.89998 10 2.89998C6.07878 2.89998 2.90001 6.07875 2.90001 9.99998C2.90001 13.9212 6.07878 17.1 10 17.1C12.502 17.1 14.7019 15.8058 15.9666 13.85H14.5V12.15H18.85V16.5H17.15V15.3006C15.5283 17.4846 12.9295 18.9 10 18.9C5.08467 18.9 1.10001 14.9153 1.10001 9.99998Z" fill="black"/>
</svg>
