<svg width="16" height="16" viewBox="0 0 16 16" fill="none" xmlns="http://www.w3.org/2000/svg">
<path d="M2.87929 2.45646C2.87929 1.65775 3.53705 1 4.33575 1H10.3025V1.98663H4.28877C4.00687 1.98663 3.81894 2.22154 3.81894 2.45646V9.97365H3.77196C3.63101 9.92667 3.49007 9.92667 3.34912 9.92667C3.20817 9.92667 3.06722 9.92667 2.92628 9.97365H2.87929V2.45646Z" fill="black"/>
<path d="M14.1551 4.66464H11.4771C11.0073 4.66464 10.6314 4.28878 10.6314 3.81895V1.09397L14.1551 4.66464Z" fill="black"/>
<path d="M6.26204 14.6719V13.6853H12.8866C12.9336 13.6853 12.9805 13.6383 12.9805 13.5913V4.89955H13.9672V13.5913C13.9672 14.2021 13.4973 14.6719 12.8866 14.6719H6.26204Z" fill="black"/>
<path d="M6.49696 4.85257H5.51033V5.8392H6.49696V4.85257Z" fill="black"/>
<path d="M7.10772 4.85257H11.712V5.8392H7.10772V4.85257Z" fill="black"/>
<path d="M11.712 9.92667H7.10772V10.9133H11.712V9.92667Z" fill="black"/>
<path d="M5.51033 9.92667H6.49696V10.9133H5.51033V9.92667Z" fill="black"/>
<path d="M2.45647 15.0008V13.1685C2.73836 13.3564 3.02026 13.4973 3.39612 13.4973C3.77198 13.4973 4.05387 13.3564 4.33577 13.1685V15.0008L3.39612 14.2491L2.45647 15.0008Z" fill="black"/>
<path d="M3.39612 10.1146C2.55044 10.1146 1.8457 10.8193 1.8457 11.665C1.8457 12.1818 2.08062 12.6047 2.45648 12.8866C2.73837 13.0745 3.02026 13.2154 3.39612 13.2154C3.725 13.2154 4.05388 13.0745 4.33577 12.8866C4.71163 12.6047 4.94655 12.1348 4.94655 11.665C4.94655 10.8193 4.24181 10.1146 3.39612 10.1146Z" fill="black"/>
</svg>
