<svg width="16" height="16" viewBox="0 0 16 16" fill="none" xmlns="http://www.w3.org/2000/svg">
<path d="M3.39454 10.566C2.97416 9.80684 2.72947 8.92844 2.72947 7.99985C2.72947 5.08859 5.08859 2.72947 7.99985 2.72947C8.54431 2.72947 9.07151 2.81359 9.56755 2.96792L8.1107 4.42477L8.82052 5.1346L10.5625 3.3926L10.566 3.39454L11.3001 2.66045C10.3401 2.07067 9.21078 1.72559 7.99985 1.72559C4.53646 1.72559 1.72559 4.53646 1.72559 7.99985C1.72559 9.21078 2.07067 10.3401 2.66045 11.3001L3.39454 10.566Z" fill="black"/>
<path d="M13.3392 4.69959L12.6052 5.43368C13.0318 6.19286 13.2702 7.06498 13.2702 7.99985C13.2702 10.9111 10.9111 13.2702 7.99985 13.2702C7.45446 13.2702 6.92638 13.1858 6.4296 13.031L7.89277 11.5678L7.18294 10.858L5.43502 12.6059L5.43368 12.6052L4.69959 13.3392C5.65955 13.929 6.78892 14.2741 7.99985 14.2741C11.4632 14.2741 14.2741 11.4632 14.2741 7.99985C14.2741 6.78892 13.929 5.65955 13.3392 4.69959Z" fill="black"/>
<path d="M7.45399 9.55712C6.94912 9.26558 6.63834 8.72683 6.63834 8.14416C6.63834 7.56149 6.94912 7.02316 7.45399 6.73161C7.95886 6.44007 8.58043 6.44007 9.0853 6.73161C9.59017 7.02274 9.90095 7.56107 9.90095 8.14416C9.90095 8.72725 9.59017 9.26558 9.0853 9.55712C8.58043 9.84867 7.95886 9.84867 7.45399 9.55712Z" fill="black"/>
</svg>
