<svg width="16" height="16" viewBox="0 0 16 16" fill="none" xmlns="http://www.w3.org/2000/svg">
<path d="M14.8045 6.35115L14.8064 4.13896L14.7983 4.13801C14.7878 2.55787 10.7266 1.9834 7.9951 1.9834C5.28935 1.9834 1.28332 2.5493 1.20145 4.09803H1.20003V4.1123C1.19955 4.12373 1.19431 4.13372 1.19431 4.14467C1.19431 4.15562 1.19955 4.16561 1.20003 4.17656L1.19336 11.835C1.18955 13.4204 5.25556 14.0072 7.98987 14.0163C8.01033 14.0163 8.0308 14.0163 8.05222 14.0163C10.7846 14.0163 14.793 13.4504 14.7997 11.8755L14.8035 8.12929L13.913 8.12833L13.9097 11.8736C13.9078 12.1986 11.8979 13.1248 8.06792 13.1248C8.0427 13.1248 8.01795 13.1248 7.99272 13.1248C4.11329 13.1129 2.0829 12.1625 2.08386 11.836L2.08957 5.27456C3.43935 6.01371 6.05086 6.30737 7.99558 6.30737C9.94553 6.30737 12.567 6.01228 13.9149 5.26885L13.914 6.3502L14.804 6.35068L14.8045 6.35115ZM7.99558 2.87389C11.7893 2.87389 13.8126 3.77486 13.9016 4.12039C13.715 4.52876 12.4238 4.97091 11.2863 5.12892C8.39442 5.61915 5.8938 5.29122 5.85858 5.28646C2.68022 4.92903 2.15715 4.23843 2.09195 4.12563C2.16096 3.78485 4.18468 2.87389 7.99558 2.87389Z" fill="black"/>
</svg>
