<svg width="16" height="16" viewBox="0 0 16 16" fill="none" xmlns="http://www.w3.org/2000/svg">
<path d="M8 1L14.0622 4.5V11.5L8 15L1.93782 11.5V4.5L8 1Z" fill="#012FA8"/>
<path d="M8.1837 4.3291C8.08057 4.30288 7.97442 4.29045 7.86802 4.29214C7.63795 4.29451 7.41063 4.34242 7.19917 4.43309C7.09887 4.47533 7.00491 4.53023 6.91833 4.59516C6.87768 4.62683 6.83967 4.66115 6.80536 4.69915C6.77685 4.73188 6.75151 4.76725 6.7304 4.80579C6.71263 4.83899 6.69966 4.87453 6.69186 4.91137C6.68571 4.94523 6.68571 4.97992 6.69186 5.01378C6.69758 5.04697 6.69758 5.08089 6.69186 5.11408C6.6848 5.15083 6.67254 5.18638 6.65544 5.21966C6.63497 5.2587 6.60998 5.2952 6.581 5.32841C6.54697 5.36739 6.50951 5.40326 6.46909 5.43557C6.42158 5.47147 6.37143 5.50367 6.31864 5.53218C6.21086 5.59478 6.0958 5.64389 5.97603 5.67841C5.91382 5.69678 5.85075 5.71211 5.78704 5.72433C5.65382 5.7493 5.52359 5.78823 5.39851 5.84047C5.33755 5.86562 5.2783 5.89471 5.22114 5.92757C5.16216 5.96009 5.10569 5.99697 5.05221 6.0379C4.95497 6.1074 4.87349 6.19662 4.81307 6.29974C4.78775 6.341 4.76787 6.38536 4.75395 6.43172C4.74066 6.47332 4.73459 6.51688 4.736 6.56052C4.73403 6.60266 4.72657 6.64437 4.71383 6.68458C4.69879 6.72943 4.67878 6.77246 4.65417 6.81286C4.62619 6.85879 4.59346 6.90208 4.55651 6.94167C4.51491 6.98778 4.46953 7.03034 4.42084 7.06889C4.36676 7.11232 4.3094 7.1515 4.24927 7.18608C4.06283 7.29508 3.85854 7.37015 3.64589 7.4078H3.65117C3.34278 7.46197 3.05229 7.59063 2.80494 7.78261C2.69522 7.86601 2.59798 7.96467 2.51618 8.07559C2.44756 8.16692 2.39846 8.27092 2.37048 8.38072C2.34641 8.47447 2.35138 8.57333 2.38474 8.6642C2.42169 8.75764 2.48873 8.8363 2.57584 8.8875C2.6281 8.9197 2.68458 8.94451 2.74371 8.96141C2.80864 8.98094 2.87568 8.99308 2.94273 8.99836C3.09523 9.01024 3.24866 8.99777 3.39725 8.96141L3.39038 8.96827C3.46587 8.95032 3.54295 8.93712 3.62055 8.92973C3.69287 8.92445 3.76572 8.92445 3.83804 8.92973C3.90561 8.93448 3.97213 8.94557 4.03706 8.96299C4.09935 8.97883 4.15848 9.00311 4.21443 9.03426C4.26511 9.06382 4.31157 9.10024 4.35169 9.14248C4.42504 9.22648 4.47204 9.33021 4.48683 9.44074C4.49422 9.50198 4.49422 9.56374 4.48683 9.62445L4.49369 9.61811C4.47561 9.74653 4.49238 9.87744 4.54226 9.99714C4.56971 10.0573 4.60666 10.1133 4.65101 10.1634C4.69904 10.2178 4.75553 10.2648 4.81782 10.3033C4.94874 10.3825 5.0955 10.4321 5.24753 10.449C5.41593 10.4691 5.58644 10.4622 5.7522 10.4279C5.92799 10.3925 6.09798 10.3318 6.25687 10.2484C6.41574 10.1654 6.56071 10.0582 6.68658 9.93063C6.80008 9.81871 6.89035 9.68568 6.95317 9.53998C7.00438 9.41962 7.02602 9.28923 7.01652 9.15884C7.00586 9.0397 6.96237 8.92586 6.89088 8.82996C6.8148 8.72798 6.7147 8.64638 6.59948 8.59241C6.53247 8.56022 6.46221 8.53526 6.3899 8.51797C6.23659 8.48188 6.07826 8.47207 5.92166 8.48894C5.83983 8.49686 5.75801 8.51058 5.67724 8.53011L5.68358 8.52484C5.60634 8.5426 5.52805 8.55547 5.44919 8.56337C5.37528 8.57023 5.30085 8.57235 5.22641 8.56865C5.15789 8.56453 5.08987 8.55428 5.02317 8.53803C4.96136 8.52279 4.90162 8.5001 4.84527 8.47046C4.80115 8.44688 4.76033 8.41759 4.72386 8.38336C4.67374 8.34272 4.63373 8.29101 4.60698 8.2323C4.58023 8.17358 4.56748 8.10946 4.56971 8.04498C4.56971 8.03072 4.57763 8.01594 4.58132 8.00222C4.58454 7.98828 4.587 7.97418 4.58871 7.95998C4.5903 7.94626 4.58871 7.93359 4.58871 7.91934V7.87922H4.59558C4.59716 7.82801 4.60508 7.77786 4.61986 7.72876C4.63464 7.67703 4.65576 7.62688 4.68321 7.57937C4.71224 7.52816 4.74656 7.47907 4.78509 7.43367C4.82838 7.38457 4.87536 7.33865 4.92604 7.29642C4.97989 7.2526 5.0369 7.21195 5.09655 7.17553C5.15974 7.14128 5.22497 7.11096 5.29187 7.08473C5.42279 7.02719 5.56058 6.98548 5.70152 6.9612L5.73637 6.95486L5.76962 6.948L5.80446 6.94008L5.83931 6.93111C5.90424 6.91844 5.9697 6.90894 6.03568 6.9026C6.0985 6.89838 6.16185 6.89838 6.22467 6.9026C6.28432 6.90419 6.34398 6.91052 6.40205 6.92266C6.458 6.93322 6.51238 6.94959 6.56464 6.97017C6.61584 6.99129 6.66388 7.01768 6.7077 7.04989C6.74782 7.07892 6.78319 7.11376 6.81275 7.15283C6.87069 7.22932 6.90252 7.3224 6.90355 7.41836L6.90883 7.41308C6.91015 7.5178 6.94493 7.61935 7.00807 7.7029C7.04344 7.74882 7.08462 7.79053 7.13055 7.8259C7.18545 7.86602 7.2451 7.8998 7.30845 7.9262C7.43989 7.98216 7.58032 8.01541 7.72338 8.02386C8.03369 8.04344 8.34366 7.9806 8.62186 7.84173C8.75383 7.77733 8.8742 7.69128 8.97766 7.58782C9.06424 7.50124 9.13075 7.39672 9.17087 7.28163C9.20262 7.18722 9.20628 7.08563 9.18143 6.98918C9.15443 6.8911 9.09939 6.80304 9.02306 6.73579C8.93662 6.65708 8.8344 6.59769 8.72322 6.56158C8.65688 6.53775 8.58849 6.52008 8.51892 6.50879C8.44736 6.49681 8.37502 6.49011 8.30248 6.48873C8.1528 6.48606 8.0034 6.50274 7.85799 6.53835L7.86274 6.53413C7.72556 6.56731 7.58471 6.58292 7.44359 6.58058C7.3791 6.57949 7.31482 6.57296 7.25143 6.56105C7.19099 6.5514 7.1316 6.53602 7.07406 6.51513C7.02778 6.49782 6.98353 6.47551 6.94209 6.44861C6.90867 6.42586 6.87833 6.39889 6.85182 6.36837C6.80095 6.31229 6.76868 6.24185 6.75943 6.16671V6.14243C6.75994 6.13487 6.75994 6.12729 6.75943 6.11973V6.0965V6.0738C6.74613 5.99213 6.75985 5.90836 6.7985 5.83519C6.81856 5.79349 6.8439 5.75442 6.87399 5.71853C6.90777 5.67718 6.94561 5.63933 6.98696 5.60556C7.03219 5.56851 7.08019 5.53498 7.13055 5.50526C7.29419 5.41393 7.4721 5.35005 7.65686 5.31732L7.69012 5.30993L7.72338 5.30413L7.75611 5.29621L7.78884 5.28829C7.84954 5.27615 7.90972 5.26665 7.96674 5.26031C8.08225 5.2481 8.19878 5.24898 8.31409 5.26295C8.36794 5.26981 8.42073 5.28143 8.47246 5.29674C8.52314 5.31152 8.57171 5.33105 8.61764 5.35533C8.65776 5.37698 8.69524 5.40337 8.7285 5.43399C8.75902 5.46195 8.78518 5.49434 8.8061 5.53007C8.82585 5.56417 8.83994 5.60125 8.8478 5.63987H8.85202C8.85996 5.67888 8.87422 5.71633 8.89425 5.75073C8.91857 5.79079 8.94883 5.82692 8.984 5.85789C9.02201 5.89379 9.06424 5.92493 9.10964 5.9508C9.16612 5.98089 9.22578 6.0057 9.28754 6.02471C9.41582 6.06483 9.54938 6.08594 9.68452 6.08806C9.826 6.09228 9.96747 6.08014 10.1063 6.05163C10.2404 6.02471 10.3703 5.98142 10.4938 5.92282C10.6046 5.87056 10.7049 5.80035 10.7921 5.71483C10.8617 5.64779 10.9124 5.5628 10.9377 5.46989C10.9571 5.39246 10.9489 5.31069 10.9145 5.23867C10.8758 5.16056 10.817 5.09422 10.744 5.04651C10.6523 4.98593 10.5506 4.94197 10.4436 4.91665C10.3789 4.89974 10.3131 4.88739 10.2467 4.8797C10.0416 4.85852 9.83432 4.87244 9.63384 4.92087C9.50687 4.95019 9.37718 4.96611 9.24689 4.96838C9.12795 4.97385 9.00897 4.95848 8.89531 4.92298C8.8495 4.91115 8.80494 4.89489 8.76228 4.87442C8.69234 4.848 8.63174 4.80154 8.58807 4.74086C8.56968 4.71419 8.55561 4.6848 8.54637 4.65375C8.54365 4.61665 8.53335 4.5805 8.5161 4.54754C8.49884 4.51458 8.47501 4.48551 8.44607 4.46213C8.41306 4.42974 8.37575 4.40203 8.33521 4.37978C8.2869 4.35738 8.23574 4.34038 8.1837 4.3291ZM12.9538 5.52109C12.8124 5.48191 12.6666 5.46115 12.5199 5.45933C12.3773 5.45669 12.2348 5.47041 12.0949 5.50103C11.9645 5.52901 11.8383 5.57494 11.7201 5.6367C11.6117 5.69229 11.5145 5.76746 11.4334 5.85842C11.3629 5.93606 11.3146 6.03124 11.2936 6.13398C11.2755 6.22895 11.2864 6.32714 11.3247 6.41588C11.3701 6.51776 11.4382 6.60592 11.5237 6.67402C11.6314 6.7606 11.7539 6.82711 11.8859 6.87093C12.1888 6.96983 12.5126 6.98623 12.8239 6.91844C12.9702 6.88835 13.1116 6.83609 13.2426 6.76429C13.3571 6.70095 13.4569 6.6149 13.535 6.5109C13.601 6.42327 13.639 6.31822 13.6438 6.20894C13.646 6.10813 13.6182 6.00892 13.564 5.92388C13.5029 5.82823 13.4219 5.74686 13.3265 5.68527C13.2131 5.61158 13.089 5.55601 12.9585 5.52056L12.9538 5.52109ZM9.31657 9.94699C9.16212 9.86939 8.9949 9.82038 8.82299 9.80235C8.65144 9.78437 8.47814 9.79328 8.30934 9.82874C8.13833 9.86317 7.97363 9.92371 7.82104 10.0082C7.66479 10.0945 7.52417 10.2063 7.40505 10.3392C7.29038 10.4667 7.2013 10.6151 7.14269 10.7763C7.08762 10.9267 7.06478 11.0869 7.07564 11.2467C7.08779 11.4072 7.13635 11.5618 7.21712 11.6991C7.30686 11.849 7.43092 11.9762 7.57873 12.0707C7.73921 12.1737 7.91923 12.2418 8.10821 12.2708C8.40258 12.3206 8.70497 12.2892 8.98276 12.1798C9.26055 12.0704 9.50319 11.8872 9.68452 11.65C9.79538 11.5032 9.87298 11.3348 9.91257 11.1559C9.94782 10.9996 9.94693 10.8373 9.90997 10.6814C9.87301 10.5256 9.80096 10.3802 9.6993 10.2563C9.59369 10.1287 9.46239 10.0247 9.31393 9.95122" fill="white"/>
</svg>
