<svg width="16" height="16" viewBox="0 0 16 16" fill="none" xmlns="http://www.w3.org/2000/svg">
<path fill-rule="evenodd" clip-rule="evenodd" d="M2.7 10.5998V2.9998H13.3V5.40265C13.7101 5.4198 14.1157 5.50488 14.5 5.65552V2.7998C14.5 2.24752 14.0523 1.7998 13.5 1.7998H2.5C1.49575 1.7998 1.49753 2.20758 1.49978 2.72486L1.5 2.7998V10.7998C1.5 11.3521 1.94772 11.7998 2.5 11.7998H5.6709V11.7969H6.883C6.97279 11.6625 7.07605 11.5362 7.19189 11.4201L8.01201 10.5998H2.7ZM4 4.5998H5.2V5.7998H4V4.5998ZM6 7.26973H8.62681V8.46973H6V7.26973ZM5.2 7.26973H4V8.46973H5.2V7.26973ZM6 4.5998H12V5.7998H6V4.5998ZM1 12.7998V13.9998H6.5985C6.5089 13.7401 6.46191 13.465 6.46191 13.185C6.46191 13.0552 6.47201 12.9265 6.49178 12.7998H1ZM13.7149 8.76115L14.5723 7.90353C14.6339 7.84218 14.7096 7.79666 14.7926 7.77112C14.8757 7.74559 14.9637 7.74071 15.0491 7.75691C15.1345 7.7731 15.2146 7.80988 15.2826 7.86405C15.3505 7.91822 15.4042 7.98815 15.439 8.06778C15.6317 8.50684 15.6999 8.99049 15.636 9.46572C15.5721 9.94101 15.3785 10.3895 15.0766 10.7621C14.7746 11.1347 14.3759 11.4169 13.9242 11.5779C13.4895 11.7328 13.0219 11.7696 12.569 11.6852L9.96344 14.2906C9.73401 14.4206 9.58 14.5239 9.51049 14.5941C9.24101 14.6644 9.05929 14.7004 8.97583 14.7C8.69234 14.7004 8.61059 14.6645 8.44109 14.5942C8.27154 14.5239 8.11761 14.4207 7.98821 14.2906L7.87117 14.1735C7.60952 13.9114 7.4625 13.556 7.4625 13.1856C7.4625 12.8152 7.50945 12.4599 7.87109 12.1977L10.4769 9.59134C10.3925 9.13824 10.4294 8.67053 10.5843 8.23578C10.7453 7.78394 11.0276 7.38515 11.4002 7.0831C11.7728 6.78105 12.2214 6.5874 12.6968 6.52338C13.1722 6.45936 13.656 6.52743 14.0952 6.72014C14.1748 6.75499 14.2447 6.8087 14.2988 6.87662C14.3529 6.94457 14.3897 7.02468 14.4058 7.11003C14.422 7.19538 14.4172 7.28339 14.3917 7.36643C14.3662 7.44948 14.3208 7.52506 14.2595 7.58662L13.3999 8.44621L13.7149 8.76115ZM14.5627 9.42478L14.0938 9.89382C13.9935 9.9937 13.8575 10.0499 13.716 10.0499C13.5744 10.0499 13.4386 9.99386 13.3383 9.89397L12.2679 8.82432C12.1679 8.72424 12.1117 8.58848 12.1117 8.44701C12.1117 8.30558 12.1678 8.16993 12.2677 8.06985L12.7388 7.59695C12.5245 7.63968 12.3207 7.72836 12.1422 7.85814C11.8776 8.05087 11.6805 8.32216 11.579 8.6334C11.4774 8.94467 11.4767 9.28003 11.5768 9.59174C11.6068 9.68517 11.6105 9.78511 11.5876 9.8805C11.5646 9.97589 11.5159 10.0631 11.4468 10.1328L8.62685 12.9527C8.46533 13.0145 8.53071 13.0981 8.53071 13.1853C8.53071 13.2725 8.56527 13.3561 8.62681 13.4178L8.74387 13.5349C8.80559 13.5965 8.88922 13.6311 8.97641 13.6311C9.0636 13.6311 9.04723 13.5965 9.20895 13.5349L12.0287 10.7151C12.0982 10.6458 12.1857 10.5969 12.2812 10.5739C12.3767 10.551 12.4767 10.5549 12.5701 10.5851C12.7993 10.6596 13.0429 10.6795 13.2812 10.6432C13.5194 10.6069 13.7459 10.5153 13.9425 10.3759C14.1391 10.2365 14.3003 10.053 14.4134 9.8402C14.483 9.70916 14.5331 9.56922 14.5627 9.42478Z" fill="black"/>
</svg>
