<svg width="16" height="16" viewBox="0 0 16 16" fill="none" xmlns="http://www.w3.org/2000/svg">
<path d="M12.1675 8.18036C13.9583 8.18036 15.4287 9.56066 15.4287 11.2733C15.4297 12.1008 15.0864 12.8946 14.4746 13.4797C13.8628 14.0648 13.0327 14.3931 12.1675 14.3922C10.3501 14.3922 8.9063 13.0119 8.9063 11.2992C8.9063 9.58657 10.3496 8.18036 12.1675 8.18036ZM2.51939 9.9249L7.04046 12.1897C7.18748 12.2665 7.38352 12.3049 7.62856 12.3049C7.7856 12.3049 7.92251 12.2891 8.03929 12.2576C8.19418 12.8758 8.49976 13.4381 8.91746 13.9076L8.21667 14.2626C8.06964 14.3393 7.87361 14.3777 7.62856 14.3777C7.38352 14.3777 7.18748 14.3393 7.04046 14.2626L0.828586 11.1149C0.657054 11.0381 0.571289 10.9421 0.571289 10.827C0.571289 10.7118 0.657054 10.6159 0.828586 10.5391C1.49021 10.1808 1.89453 9.96329 2.04155 9.88652C2.16408 9.80974 2.32335 9.82254 2.51939 9.9249ZM11.722 9.59955C10.9797 9.59955 10.3859 10.1656 10.3859 10.8733C10.3843 11.2116 10.5246 11.5365 10.7755 11.7757C11.0264 12.0149 11.3672 12.1486 11.722 12.1471C11.9695 12.1471 12.1924 12.0763 12.3901 11.9586L13.3799 12.8787C13.4542 12.9261 13.5285 12.973 13.6274 12.973C13.8037 12.9698 13.9458 12.8343 13.9491 12.6663C13.9471 12.5788 13.912 12.4951 13.8503 12.4304L12.8604 11.5102C12.9839 11.3217 13.0582 11.1092 13.0582 10.8733C13.0582 10.1656 12.4644 9.59955 11.722 9.59955ZM11.722 10.2125C12.0935 10.2125 12.3901 10.4958 12.3901 10.8494C12.3901 11.203 12.093 11.4863 11.722 11.4863C11.3506 11.4863 11.054 11.203 11.054 10.8494C11.054 10.4958 11.3511 10.2125 11.722 10.2125ZM2.51939 6.86758L7.04046 9.15694C7.18748 9.23326 7.38352 9.27141 7.62856 9.27141C7.87361 9.27141 8.06964 9.23326 8.21667 9.15694C8.40052 9.06388 8.57887 8.97361 8.7517 8.88612C8.22749 9.56311 7.91966 10.4004 7.91966 11.3031L7.91964 11.2944C7.82261 11.3194 7.72559 11.3318 7.62856 11.3318C7.43253 11.3318 7.23649 11.281 7.04046 11.1792L0.828586 8.08858C0.657054 8.01226 0.571289 7.91052 0.571289 7.78333C0.571289 7.65614 0.657054 7.55439 0.828586 7.47808C1.49021 7.14739 1.89453 6.9439 2.04155 6.86758C2.18858 6.76583 2.34786 6.76583 2.51939 6.86758ZM7.62856 1.60742C7.87361 1.60742 8.06964 1.64352 8.21667 1.71572L14.4285 4.67593C14.6001 4.74813 14.6858 4.83838 14.6858 4.94668C14.6858 5.05498 14.6001 5.14523 14.4285 5.21743L8.21667 8.17764C8.06964 8.24985 7.87361 8.28594 7.62856 8.28594C7.38352 8.28594 7.18748 8.24985 7.04046 8.17764L0.828586 5.21743C0.657054 5.14523 0.571289 5.05498 0.571289 4.94668C0.571289 4.83838 0.657054 4.74813 0.828586 4.67593L7.04046 1.71572C7.18748 1.64352 7.38352 1.60742 7.62856 1.60742ZM13.1421 6.82943L14.4285 7.47808C14.6001 7.55439 14.6858 7.65614 14.6858 7.78333C14.6858 7.85425 14.6592 7.91726 14.6058 7.97236C13.9138 7.51106 13.072 7.24071 12.1675 7.24071C12.1094 7.24071 12.0516 7.24181 11.9941 7.24399C12.4996 6.98809 12.7718 6.84992 12.8112 6.82943C12.9338 6.77855 13.044 6.77855 13.1421 6.82943Z" fill="black"/>
</svg>
