<svg width="16" height="17" viewBox="0 0 16 17" fill="none" xmlns="http://www.w3.org/2000/svg">
<path d="M2.94078 10.1332L7.11396 12.2987C7.24967 12.3721 7.43062 12.4088 7.65681 12.4088C7.78622 12.4088 7.90083 12.3968 8.00063 12.3727V14.3547C7.90083 14.3787 7.78622 14.3907 7.65681 14.3907C7.43062 14.3907 7.24967 14.354 7.11396 14.2806L1.38008 11.271C1.22174 11.1976 1.14258 11.1058 1.14258 10.9957C1.14258 10.8856 1.22174 10.7939 1.38008 10.7205C1.99079 10.3779 2.364 10.1699 2.49971 10.0965C2.6128 10.0231 2.75983 10.0354 2.94078 10.1332ZM14.8569 12.4336V14.3907H8.92434V12.4336H14.8569ZM13.7153 13.1485C13.5772 13.1485 13.4665 13.2577 13.4665 13.394C13.4665 13.5303 13.5772 13.6394 13.7153 13.6394C13.8535 13.6394 13.9642 13.5303 13.9642 13.394C13.9642 13.2577 13.8535 13.1485 13.7153 13.1485ZM12.7982 13.2592H9.81701V13.5966H12.7982V13.2592ZM14.8569 10.0045V11.9616H8.92434V10.0045H14.8569ZM2.94078 7.21005L7.11396 9.39897C7.24967 9.47193 7.43062 9.50841 7.65681 9.50841C7.78622 9.50841 7.90083 9.49647 8.00063 9.47259L8.00027 11.42C7.88579 11.459 7.7713 11.4784 7.65681 11.4784C7.47586 11.4784 7.29491 11.4298 7.11396 11.3325L1.38008 8.37747C1.22174 8.30451 1.14258 8.20722 1.14258 8.08562C1.14258 7.96401 1.22174 7.86673 1.38008 7.79376C1.99079 7.47758 2.364 7.28301 2.49971 7.21005C2.63542 7.11276 2.78244 7.11276 2.94078 7.21005ZM13.7153 10.7194C13.5772 10.7194 13.4665 10.8286 13.4665 10.9649C13.4665 11.1012 13.5772 11.2104 13.7153 11.2104C13.8535 11.2104 13.9642 11.1012 13.9642 10.9649C13.9642 10.8286 13.8535 10.7194 13.7153 10.7194ZM12.7982 10.7963H9.81701V11.1337H12.7982V10.7963ZM12.7461 7.17357L13.9335 7.79376C14.0919 7.86673 14.171 7.96401 14.171 8.08562C14.171 8.20722 14.0919 8.30451 13.9335 8.37747L12.45 9.14134L8.6906 9.14156C11.1058 7.8752 12.3558 7.21921 12.4407 7.17357C12.5538 7.12492 12.6556 7.12492 12.7461 7.17357ZM7.65681 2.18066C7.883 2.18066 8.06395 2.21518 8.19966 2.28421L13.9335 5.11455C14.0919 5.18358 14.171 5.26987 14.171 5.37342C14.171 5.47697 14.0919 5.56326 13.9335 5.6323L8.19966 8.46263C8.06395 8.53167 7.883 8.56618 7.65681 8.56618C7.43062 8.56618 7.24967 8.53167 7.11396 8.46263L1.38008 5.6323C1.22174 5.56326 1.14258 5.47697 1.14258 5.37342C1.14258 5.26987 1.22174 5.18358 1.38008 5.11455L7.11396 2.28421C7.24967 2.21518 7.43062 2.18066 7.65681 2.18066Z" fill="black"/>
</svg>
