<svg width="20" height="20" viewBox="0 0 20 20" fill="none" xmlns="http://www.w3.org/2000/svg">
<path fill-rule="evenodd" clip-rule="evenodd" d="M4.60404 4.28231H15.396C16.0773 4.28231 16.6297 4.84421 16.6297 5.53734V13.085C16.6297 13.7781 16.0773 14.34 15.396 14.34H12.3212L12.9647 15.595H15.396C16.7587 15.595 17.8635 14.4712 17.8635 13.085V5.53734C17.8635 4.15108 16.7587 3.02728 15.396 3.02728H4.60404C3.24127 3.02728 2.13652 4.15108 2.13652 5.53735V13.085C2.13652 14.4712 3.24127 15.595 4.60405 15.595H7.03527L7.67877 14.34H4.60405C3.92266 14.34 3.37028 13.7781 3.37028 13.085V5.53735C3.37028 4.84421 3.92266 4.28231 4.60404 4.28231ZM5.89717 5.8521C5.21578 5.8521 4.66341 6.414 4.66341 7.10713V11.5152C4.66341 12.2083 5.21578 12.7702 5.89717 12.7702H8.26369L8.90404 11.5102C9.36392 10.6053 10.6361 10.6053 11.096 11.5102L11.7363 12.7702H14.1028C14.7842 12.7702 15.3366 12.2083 15.3366 11.5152V7.10713C15.3366 6.414 14.7842 5.8521 14.1028 5.8521H5.89717Z" fill="#7855FA"/>
<path d="M9.5117 12.6108C9.7208 12.1401 10.2792 12.1401 10.4883 12.6108L11.9875 15.9857C12.1857 16.432 11.9183 16.9727 11.4991 16.9727H8.50088C8.08176 16.9727 7.81428 16.432 8.01257 15.9857L9.5117 12.6108Z" fill="#C6C3FF"/>
</svg>
