<svg width="16" height="16" viewBox="0 0 16 16" fill="none" xmlns="http://www.w3.org/2000/svg">
<path fill-rule="evenodd" clip-rule="evenodd" d="M1.0001 1.6C1.0001 1.26863 1.26873 1 1.6001 1H4.26676V2.2H2.2001V4.26667H1.0001V1.6ZM13.7967 2.2001H11.73V1.0001H14.3967C14.728 1.0001 14.9967 1.26873 14.9967 1.6001V4.26676H13.7967V2.2001ZM4.08157 6.03806C5.02502 5.25603 6.41041 4.4 8 4.4C9.58959 4.4 10.975 5.25603 11.9184 6.03806C12.3987 6.43613 12.7858 6.83282 13.0531 7.12997C13.1871 7.27893 13.292 7.4039 13.3642 7.4929C13.4004 7.53742 13.4284 7.57302 13.448 7.59821L13.471 7.62803L13.4776 7.63675L13.4796 7.63951L13.4804 7.64048C13.4805 7.64064 13.4809 7.64117 13 8C13.4809 8.35883 13.4808 8.35898 13.4806 8.35914L13.4796 8.36049L13.4776 8.36325L13.471 8.37197L13.448 8.40179C13.4284 8.42698 13.4004 8.46258 13.3642 8.5071C13.292 8.5961 13.1871 8.72107 13.0531 8.87003C12.7858 9.16718 12.3987 9.56387 11.9184 9.96194C10.975 10.744 9.58959 11.6 8 11.6C6.41041 11.6 5.02502 10.744 4.08157 9.96194C3.60133 9.56387 3.21418 9.16718 2.94686 8.87003C2.81285 8.72107 2.70805 8.5961 2.63579 8.5071C2.59963 8.46258 2.57156 8.42698 2.552 8.40179L2.52905 8.37197L2.52244 8.36325L2.52037 8.36049L2.51964 8.35952C2.51952 8.35936 2.51912 8.35883 3 8C2.51912 7.64117 2.51923 7.64102 2.51936 7.64086L2.52037 7.63951L2.52244 7.63675L2.52905 7.62803L2.552 7.59821C2.57156 7.57302 2.59963 7.53742 2.63579 7.4929C2.70805 7.4039 2.81285 7.27893 2.94686 7.12997C3.21418 6.83282 3.60133 6.43613 4.08157 6.03806ZM3 8L2.51936 7.64086C2.36053 7.85372 2.36081 8.14667 2.51964 8.35952L3 8ZM3.77888 8C3.79806 8.02174 3.8181 8.04425 3.83899 8.06747C4.0777 8.33282 4.42278 8.68613 4.84736 9.03806C5.71355 9.75603 6.82817 10.4 8 10.4C9.17183 10.4 10.2864 9.75603 11.1526 9.03806C11.5772 8.68613 11.9223 8.33282 12.161 8.06747C12.1819 8.04425 12.2019 8.02174 12.2211 8C12.2019 7.97825 12.1819 7.95575 12.161 7.93253C11.9223 7.66718 11.5772 7.31387 11.1526 6.96194C10.2864 6.24396 9.17183 5.6 8 5.6C6.82817 5.6 5.71355 6.24396 4.84736 6.96194C4.42278 7.31387 4.0777 7.66718 3.83899 7.93253C3.8181 7.95575 3.79806 7.97826 3.77888 8ZM13 8L13.4806 8.35914C13.6395 8.14629 13.6392 7.85333 13.4804 7.64048L13 8ZM6.2 8C6.2 7.00589 7.00589 6.2 8 6.2C8.99411 6.2 9.8 7.00589 9.8 8C9.8 8.99411 8.99411 9.8 8 9.8C7.00589 9.8 6.2 8.99411 6.2 8ZM8 7.4C7.66863 7.4 7.4 7.66863 7.4 8C7.4 8.33137 7.66864 8.6 8 8.6C8.33137 8.6 8.6 8.33137 8.6 8C8.6 7.66864 8.33137 7.4 8 7.4ZM2.2 13.7966V11.73H1V14.3966C1 14.728 1.26863 14.9966 1.6 14.9966H4.26667V13.7966H2.2ZM14.9967 11.73V14.3966C14.9967 14.728 14.728 14.9966 14.3967 14.9966H11.73V13.7966H13.7967V11.73H14.9967Z" fill="black"/>
</svg>
