<svg width="16" height="16" viewBox="0 0 16 16" fill="none" xmlns="http://www.w3.org/2000/svg">
<path fill-rule="evenodd" clip-rule="evenodd" d="M1 2.60039V1.40039H15V2.60039H13.5614L13.2446 7.35108C12.8735 7.19484 12.477 7.08694 12.063 7.03527L12.1087 6.35039H3.89134L4.09253 9.36914H7.53571C7.33545 9.74085 7.18595 10.1439 7.09648 10.5691H4.1725L4.3612 13.4004H7.4196C7.6268 13.8446 7.90441 14.2494 8.23808 14.6004H3.79985C3.48397 14.6004 3.22219 14.3555 3.20118 14.0403L2.43875 2.60039H1ZM12.3588 2.60039H3.64142L3.81136 5.15039H12.1887L12.3588 2.60039ZM11.4998 9.00029C10.1191 9.00029 8.9998 10.1196 8.9998 11.5003C8.9998 12.881 10.1191 14.0003 11.4998 14.0003C12.8805 14.0003 13.9998 12.881 13.9998 11.5003C13.9998 10.1196 12.8805 9.00029 11.4998 9.00029ZM7.7998 11.5003C7.7998 9.45684 9.45635 7.80029 11.4998 7.80029C13.5433 7.80029 15.1998 9.45684 15.1998 11.5003C15.1998 13.5437 13.5433 15.2003 11.4998 15.2003C9.45635 15.2003 7.7998 13.5437 7.7998 11.5003ZM10.8596 11.5003C10.8596 11.1469 11.1461 10.8603 11.4996 10.8603C11.8309 10.8603 12.0996 10.5917 12.0996 10.2603C12.0996 9.92893 11.8309 9.6603 11.4996 9.6603C10.4834 9.6603 9.65957 10.4841 9.65957 11.5003C9.65957 11.8317 9.9282 12.1003 10.2596 12.1003C10.5909 12.1003 10.8596 11.8317 10.8596 11.5003ZM13.3398 11.5C13.3398 11.1687 13.0712 10.9 12.7398 10.9C12.4084 10.9 12.1398 11.1687 12.1398 11.5C12.1398 11.8535 11.8533 12.14 11.4998 12.14C11.1684 12.14 10.8998 12.4087 10.8998 12.74C10.8998 13.0714 11.1684 13.34 11.4998 13.34C12.516 13.34 13.3398 12.5162 13.3398 11.5Z" fill="black"/>
</svg>
