<svg width="16" height="16" viewBox="0 0 16 16" fill="none" xmlns="http://www.w3.org/2000/svg">
<path d="M3.73069 0.954102L1.25391 3.15871L3.77182 5.02914L4.4874 4.06585L4.39108 3.9943H6.09743V1.95547H4.41055L4.52854 1.85045L3.73069 0.954102Z" fill="black"/>
<path d="M7.44691 1.51958H13.6859C14.0725 1.51958 14.3859 1.83299 14.3859 2.21958V3.73017C14.3859 4.11677 14.0725 4.43017 13.6859 4.43017H7.44691V1.51958Z" fill="black"/>
<path fill-rule="evenodd" clip-rule="evenodd" d="M2.20353 6.88253C2.20353 6.42476 2.57462 6.05367 3.03238 6.05367H6.09744V14.598H3.03238C2.57462 14.598 2.20353 14.2269 2.20353 13.7691V6.88253ZM4.79175 8.00011C4.79175 8.35427 4.50465 8.64137 4.15049 8.64137C3.79633 8.64137 3.50923 8.35427 3.50923 8.00011C3.50923 7.64595 3.79633 7.35885 4.15049 7.35885C4.50465 7.35885 4.79175 7.64595 4.79175 8.00011ZM4.15048 13.3966C4.51089 13.3966 4.80307 13.1044 4.80307 12.744C4.80307 12.3836 4.51089 12.0914 4.15048 12.0914C3.79007 12.0914 3.49789 12.3836 3.49789 12.744C3.49789 13.1044 3.79007 13.3966 4.15048 13.3966Z" fill="black"/>
<path d="M13.5859 6.05367H7.44691V14.598H13.5859C14.0277 14.598 14.3859 14.2398 14.3859 13.798V6.85367C14.3859 6.41185 14.0277 6.05367 13.5859 6.05367Z" fill="black"/>
</svg>
