<svg width="16" height="16" viewBox="0 0 16 16" fill="none" xmlns="http://www.w3.org/2000/svg">
<path fill-rule="evenodd" clip-rule="evenodd" d="M1.5 3.40039C1.5 2.84811 1.94772 2.40039 2.5 2.40039H13.5C14.0523 2.40039 14.5 2.84811 14.5 3.40039V10.4004C14.5 10.9527 14.0523 11.4004 13.5 11.4004H10V12.4H12V13.6H4V12.4H5.8L5.8 11.4004H2.5C1.94772 11.4004 1.5 10.9527 1.5 10.4004V3.40039ZM7 11.4004V12.4H8.8L8.8 11.4004H7ZM3.61772 9.14295H2.78544V4.98155H4.23068C5.10233 4.98155 5.79402 5.28522 5.79402 6.24122C5.79402 6.8686 5.47779 7.25689 5.00352 7.44259L5.97397 9.14295H5.04609L4.19479 7.57399H3.61772V9.14295ZM3.61772 5.64512V6.91604H4.15195C4.69181 6.91604 4.98423 6.68547 4.98423 6.24122C4.98423 5.79696 4.69181 5.64512 4.15195 5.64512H3.61772ZM8.10326 9.14295H6.61865V4.98155H7.99079C8.84556 4.98155 9.49789 5.23461 9.49789 6.01065C9.49789 6.39305 9.28982 6.78107 8.93554 6.91041V6.93291C9.3798 7.03975 9.71159 7.3603 9.71159 7.91702C9.71159 8.75493 9.01427 9.14295 8.10326 9.14295ZM7.45093 5.62263V6.67423H7.93456C8.46317 6.67423 8.68811 6.46616 8.68811 6.12875C8.68811 5.76322 8.44629 5.62263 7.9458 5.62263H7.45093ZM7.45093 7.29281V8.50187H8.03015C8.59251 8.50187 8.9018 8.29942 8.9018 7.87204C8.9018 7.46714 8.60375 7.29281 8.03015 7.29281H7.45093ZM10.4464 9.14295H11.6329C12.8589 9.14295 13.6405 8.44563 13.6405 7.04538C13.6405 5.6395 12.8589 4.98155 11.5879 4.98155H10.4464V9.14295ZM11.2787 8.47375V5.64512H11.5317C12.3134 5.64512 12.7914 6.03315 12.7914 7.04538C12.7914 8.05761 12.3134 8.47375 11.5317 8.47375H11.2787Z" fill="black"/>
</svg>
