<svg width="16" height="16" viewBox="0 0 16 16" fill="none" xmlns="http://www.w3.org/2000/svg">
<path d="M0.862305 12.6198H15.1369V13.5991H0.862305V12.6198ZM14.15 10.3313V2.5957H1.86529V11.2832H14.15V10.3313ZM13.174 10.3313H2.84129V3.56934H13.174V10.3313ZM5.96335 6.9541C5.88241 6.9541 5.84265 6.99433 5.84265 7.07622C5.84265 7.1955 5.84265 7.09137 5.84265 7.21869C5.83177 7.20544 5.82656 7.19929 5.82135 7.19266C5.52316 6.81021 5.45737 6.72264 5.1587 6.3402C5.1445 6.32174 5.14876 6.3118 5.16106 6.29665C5.4408 5.93787 5.48861 5.85504 5.76787 5.49625C5.79106 5.46643 5.81426 5.43709 5.84265 5.40111C5.84265 5.51471 5.84644 5.7012 5.84171 5.80628C5.8365 5.91941 5.88573 5.95822 5.99081 5.95775C6.73156 5.95538 7.4993 5.9568 8.24053 5.95585C8.27366 5.95585 8.2855 5.96106 8.28455 5.99798C8.28171 6.1059 8.28313 5.97005 8.2836 6.0775C8.28408 6.1414 8.32715 6.18447 8.3901 6.18542C8.43034 6.18636 8.71623 6.18589 8.75646 6.18542C8.83503 6.18494 8.87526 6.14471 8.87526 6.06472C8.87526 5.87207 8.87242 5.56678 8.87668 5.37461C8.8781 5.29651 8.82414 5.25012 8.75409 5.25012C8.0015 5.25202 7.21436 5.25107 6.46177 5.25202C6.43289 5.25202 6.42579 5.24492 6.42579 5.21604C6.42721 5.01299 6.42674 4.8104 6.42627 4.60734C6.42627 4.5354 6.38414 4.49375 6.31172 4.4928C6.2748 4.49233 5.85638 4.49422 5.81946 4.49233C5.76976 4.48996 5.73426 4.51126 5.70397 4.5496C5.26236 5.11664 4.82027 5.68369 4.37818 6.25026C4.34268 6.2957 4.34221 6.34067 4.37771 6.38611C4.55662 6.6152 4.73507 6.84429 4.91399 7.07338C5.17668 7.41039 5.43938 7.74692 5.7016 8.08441C5.72622 8.11612 5.75604 8.13269 5.79627 8.13127C5.8365 8.12985 6.0211 8.13079 6.06181 8.13079C6.15079 8.13079 6.18913 8.09293 6.18913 8.00489C6.18913 7.80562 6.1896 7.85532 6.18866 7.65557C6.18866 7.62954 6.19339 7.6196 6.22179 7.62055C6.2909 7.62291 6.46319 7.62197 6.53229 7.62102C6.59383 7.62007 6.6369 7.577 6.63784 7.51594C6.63879 7.47523 6.63832 7.11361 6.63784 7.07291C6.63784 6.99339 6.59761 6.95221 6.51904 6.95221C6.36758 6.95221 6.1134 6.95221 5.96193 6.95221L5.96335 6.9541ZM11.3101 7.08758C10.9896 6.67673 10.6696 6.26636 10.3502 5.85504C10.3246 5.82238 10.2948 5.80486 10.2526 5.80628C10.2029 5.80818 9.77695 5.80628 9.72725 5.80676C9.64821 5.80676 9.60797 5.84746 9.60797 5.92698C9.60797 6.11726 9.60703 6.30706 9.60892 6.49734C9.60939 6.53142 9.59993 6.53805 9.56727 6.53805C8.85538 6.5371 8.13072 6.53805 7.41931 6.53615C7.34452 6.53615 7.29861 6.59059 7.29861 6.65543C7.3005 7.29868 7.30003 7.94194 7.30003 8.58566C7.30003 8.66139 7.33979 8.70115 7.41458 8.70115H8.4824C8.84166 8.70115 9.21417 8.70163 9.57342 8.70068C9.60229 8.70068 9.60939 8.70778 9.60939 8.73665C9.60797 8.93119 9.60845 9.1262 9.60892 9.32074C9.60892 9.38842 9.65199 9.43102 9.71968 9.4315C9.7637 9.43197 10.184 9.42818 10.2276 9.43244C10.29 9.4386 10.3298 9.41114 10.3672 9.36286C10.8017 8.80339 11.2376 8.24534 11.6731 7.68681C11.7072 7.64327 11.7077 7.59641 11.674 7.55333C11.5529 7.39856 11.4317 7.2433 11.3105 7.08853L11.3101 7.08758ZM10.2171 8.55679C10.2115 8.56389 10.2053 8.57051 10.194 8.58377V8.49857C10.194 8.4058 10.194 8.22546 10.194 8.13269C10.194 8.05127 10.1542 8.01104 10.0728 8.01104C9.36232 8.01104 8.7593 8.01057 8.04883 8.01199C8.01475 8.01199 8.00529 8.00536 8.00529 7.96939C8.00671 7.50695 8.00671 7.69439 8.00529 7.23194C8.00529 7.20023 8.01333 7.19266 8.04457 7.19266C8.75409 7.1936 9.35569 7.19361 10.0652 7.19313C10.1561 7.19313 10.1935 7.11977 10.1935 7.02841V6.65023C10.2555 6.71744 10.3109 6.78796 10.3658 6.85896C10.6199 7.18509 10.6843 7.26981 10.939 7.59546C10.9527 7.61345 10.9536 7.62386 10.9394 7.64185C10.6351 8.03092 10.521 8.16677 10.2171 8.55679Z" fill="black"/>
</svg>
