<svg width="16" height="16" viewBox="0 0 16 16" fill="none" xmlns="http://www.w3.org/2000/svg">
<path d="M14.7578 13.5997L12.7639 11.6068C13.6327 10.4921 14.1558 9.09532 14.1558 7.57611C14.1558 3.94982 11.2048 1 7.57791 1C3.95063 1 1 3.94982 1 7.57611C1 11.2019 3.95063 14.152 7.57791 14.152C9.09556 14.152 10.491 13.6307 11.6048 12.7639L13.5992 14.7577C13.9211 15.0793 14.4414 15.0809 14.7613 14.7615C15.0811 14.4414 15.0792 13.9219 14.7578 13.5997ZM2.25288 7.57601C2.25288 4.64062 4.64164 2.25254 7.57791 2.25254C10.5142 2.25254 12.9028 4.64064 12.9028 7.57601C12.9028 10.5114 10.5142 12.8995 7.57791 12.8995C4.64166 12.8995 2.25288 10.5114 2.25288 7.57601ZM9.79438 6.94979H5.36118C5.02849 6.94979 4.75881 7.23031 4.75881 7.57636C4.75881 7.92233 5.02815 8.20258 5.36118 8.20258H9.79439C10.127 8.20258 10.397 7.92222 10.397 7.57636C10.397 7.23031 10.127 6.94979 9.79438 6.94979Z" fill="black"/>
</svg>
