<svg width="16" height="16" viewBox="0 0 16 16" fill="none" xmlns="http://www.w3.org/2000/svg">
<path d="M12.7658 8.2279C12.8117 7.26584 12.5654 6.31241 12.0593 5.49295C11.5532 4.67349 10.811 4.02635 9.93022 3.63662C9.04944 3.24689 8.07134 3.1328 7.12451 3.30935C6.17768 3.48591 5.30643 3.94484 4.6253 4.62582L3.78172 3.78224C4.63337 2.92975 5.72323 2.35519 6.9078 2.1342C8.09237 1.91322 9.31609 2.05619 10.4178 2.54427C11.5196 3.03236 12.4476 3.84267 13.0798 4.86852C13.712 5.89436 14.0187 7.08762 13.9595 8.29117L14.8453 8.33335L13.2214 10.6405L11.859 8.18151L12.7658 8.2279ZM3.2334 7.77237C3.1875 8.73443 3.43379 9.68786 3.9399 10.5073C4.44601 11.3268 5.18824 11.9739 6.06902 12.3637C6.9498 12.7534 7.9279 12.8675 8.87473 12.6909C9.82156 12.5144 10.6928 12.0554 11.3739 11.3745L12.2175 12.218C11.3659 13.0705 10.276 13.6451 9.09144 13.8661C7.90687 14.087 6.68315 13.9441 5.58142 13.456C4.47969 12.9679 3.55161 12.1576 2.91941 11.1318C2.28721 10.1059 1.98052 8.91265 2.03973 7.7091L1.15398 7.66692L2.76943 5.35973L4.13181 7.81877L3.2334 7.77237Z" fill="black"/>
</svg>
