<svg width="16" height="16" viewBox="0 0 16 16" fill="none" xmlns="http://www.w3.org/2000/svg">
<path d="M13.8683 5.94956C13.8617 5.97196 13.8544 5.99437 13.8459 6.01523C13.5851 6.75344 13.1729 7.44066 12.6476 8.01585L12.5769 8.09581L12.4606 8.20822L11.7147 8.85913C11.6702 10.1575 11.136 11.4114 10.2294 12.3312C9.91608 12.6487 9.56455 12.9241 9.18483 13.1478C9.06971 13.215 8.94262 13.2494 8.81398 13.2494C8.71548 13.2494 8.62006 13.2293 8.52851 13.1907C8.31373 13.0983 8.15303 12.9083 8.09741 12.6823L7.86833 11.7683L7.61531 11.8626C7.07256 12.0646 6.43479 11.9201 6.02995 11.5087L4.63504 10.093C4.22093 9.6719 4.08418 9.0403 4.28699 8.48288L4.38009 8.22754L3.4777 7.99422C3.25365 7.93511 3.06784 7.7721 2.97899 7.55809C2.88976 7.34138 2.90598 7.0926 3.02071 6.89096C3.2409 6.50505 3.51131 6.14811 3.82498 5.8298C4.7293 4.91119 5.96737 4.36768 7.24485 4.32209L7.93014 3.51667C8.52928 2.91096 9.26595 2.43929 10.0613 2.15305C10.0636 2.1515 10.0845 2.14339 10.1104 2.13566C10.2518 2.08583 10.3951 2.04141 10.5407 2.00355C11.4918 1.754 12.5116 1.75787 13.4627 2.01591C13.7172 2.08506 13.9173 2.28864 13.9853 2.5463C14.2407 3.51551 14.2449 4.54151 13.9977 5.51343C13.9602 5.66061 13.9162 5.80585 13.8675 5.94878L13.8683 5.94956ZM9.54601 11.6378C10.0555 11.1205 10.4159 10.4723 10.6029 9.77349L8.81707 11.3156C8.76763 11.3515 8.77381 11.3422 8.76029 11.3515L8.80935 12.031C8.83253 12.031 9.36407 11.822 9.54601 11.6378ZM4.0189 7.12196L5.04799 7.19304L6.12266 5.58026C5.43738 5.77109 5.01477 6.00982 4.50834 6.52359C4.32678 6.70785 4.16299 6.90834 4.0189 7.12196ZM13.0852 2.93105C12.3312 2.74871 11.5312 2.75683 10.7822 2.95345C10.6574 2.98551 10.5357 3.02376 10.4152 3.06625L10.3831 3.07629C9.73298 3.31193 9.12843 3.69668 8.63358 4.18998L8.60577 4.22011L7.84013 5.1252L5.44472 8.13058L5.1944 8.82205C5.12177 9.02138 5.17083 9.24774 5.31917 9.39879L6.71447 10.8146C6.85894 10.9617 7.08956 11.0135 7.28309 10.9413L8.13642 10.6218C8.14994 10.6067 8.16269 10.5917 8.17775 10.5781L10.6582 8.43807C10.7061 8.39712 10.7598 8.36776 10.8158 8.34884L11.8452 7.44799C12.3304 6.94736 12.7094 6.33353 12.9408 5.67065L12.9516 5.64052C12.9933 5.51806 13.0312 5.39329 13.0632 5.26736C13.2579 4.50172 13.2653 3.69668 13.0856 2.9295L13.0852 2.93105ZM10.404 7.22472C9.51588 7.22472 8.79312 6.49114 8.79312 5.58876C8.79312 4.68637 9.51588 3.9528 10.404 3.9528C11.2928 3.9528 12.0156 4.68637 12.0156 5.58876C12.0156 6.49114 11.2928 7.22472 10.404 7.22472ZM10.404 4.93399C10.049 4.93399 9.75925 5.22757 9.75925 5.58876C9.75925 5.94994 10.049 6.24353 10.404 6.24353C10.7598 6.24353 11.0495 5.94994 11.0495 5.58876C11.0495 5.22757 10.7598 4.93399 10.404 4.93399ZM3.58818 10.3004C3.77669 10.4916 3.77669 10.8026 3.58818 10.9938L2.64369 11.9522C2.54982 12.0484 2.42621 12.0963 2.30259 12.0963C2.17898 12.0963 2.05536 12.0484 1.96072 11.9522C1.77221 11.761 1.77221 11.4508 1.96072 11.2588L2.90521 10.3004C3.09372 10.1084 3.39967 10.1084 3.58818 10.3004ZM4.05753 11.2588C4.24604 11.0676 4.55199 11.0676 4.7405 11.2588C4.92901 11.4508 4.92901 11.761 4.7405 11.9522L2.68618 14.0374C2.59231 14.1332 2.4687 14.1811 2.34508 14.1811C2.22108 14.1811 2.09747 14.1332 2.00321 14.0374C1.8147 13.8454 1.8147 13.5352 2.00321 13.344L4.05753 11.2588ZM5.16079 12.4416C5.3493 12.2496 5.65563 12.2504 5.84376 12.4416C6.03227 12.6328 6.03227 12.9438 5.84376 13.135L5.07117 13.9188C4.9773 14.0146 4.85368 14.0625 4.73007 14.0625C4.60646 14.0625 4.48284 14.0146 4.3882 13.9188C4.19969 13.7276 4.19969 13.4166 4.3882 13.2254L5.16079 12.4416Z" fill="black"/>
</svg>
