<svg width="16" height="16" viewBox="0 0 16 16" fill="none" xmlns="http://www.w3.org/2000/svg">
<path d="M8.47121 3.3569L9.27645 2.50425L9.89245 3.21464L7.99747 5.10963L6.10248 3.21464L6.71849 2.50425L7.52372 3.3569V0.704102H8.47121V3.3569Z" fill="black"/>
<path d="M8.47121 13.5422V10.3683H7.52372V13.5422L6.71849 12.6896L6.10248 13.4L7.99747 15.295L9.89245 13.4L9.27645 12.6896L8.47121 13.5422Z" fill="black"/>
<path d="M2.97593 11.7416L4.63382 10.0837L5.29725 10.7941L3.59194 12.4046H4.77608V13.3995H2.02844V10.6045H2.97593V11.7416Z" fill="black"/>
<path d="M13.0664 11.7421L11.3611 10.0842L10.7925 10.7946L12.403 12.4051H11.3132V13.4H13.966V10.6049H13.066L13.0664 11.7421Z" fill="black"/>
<path d="M3.63937 6.81539H4.63428V7.66804H3.63937V6.81539Z" fill="black"/>
<path d="M8.47121 6.81539H7.4763V7.66804H8.47121V6.81539Z" fill="black"/>
<path d="M12.4035 6.81539H11.4085V7.66804H12.4035V6.81539Z" fill="black"/>
<path fill-rule="evenodd" clip-rule="evenodd" d="M1.93359 5.10963L7.99747 5.10963L7.99746 5.15705H14.0139V9.37335H1.93359V5.10963ZM2.92851 8.47328H13.2082V6.10454H2.92851V8.47328Z" fill="black"/>
</svg>
