<svg width="20" height="20" viewBox="0 0 20 20" fill="none" xmlns="http://www.w3.org/2000/svg">
<path fill-rule="evenodd" clip-rule="evenodd" d="M9.24503 2.83001C8.03753 2.83001 6.90503 3.20701 6.07503 3.88651H6.07553C6.07553 3.96201 6.00003 3.96201 5.92453 3.96201L5.24503 3.43351C5.24503 3.35801 5.24503 3.28251 5.32053 3.28251C6.45253 2.45251 7.73553 1.99951 9.24503 1.99951C10.679 1.99951 12.0375 2.45251 13.094 3.28251L13.1695 3.35801L12.4905 3.88651H12.415C11.5845 3.20751 10.377 2.83001 9.24503 2.83001ZM9.47103 9.69751C13.431 9.69751 16.641 8.75151 16.641 7.58451C16.641 6.41751 13.431 5.47151 9.47103 5.47151C5.51103 5.47151 2.30103 6.41751 2.30103 7.58451C2.30103 8.75151 5.51103 9.69751 9.47103 9.69751ZM7.28255 5.09401L6.60355 4.49001C7.35805 4.03751 8.26405 3.66001 9.24505 3.66001C10.226 3.66001 11.132 3.96151 11.811 4.49001L11.132 5.09401C10.6035 4.71651 9.92455 4.49001 9.24505 4.49001C8.56555 4.49001 7.81105 4.71651 7.28255 5.09401ZM8.64105 15.358V17.9995H17.6975V15.358H8.64105ZM11.4335 17.094H10.4525V16.415H10.679V16.1885H11.2075V16.415H11.434V17.094H11.4335ZM12.0375 17.094H13.0185H13.019V16.415H12.7925V16.1885H12.264V16.415H12.0375V17.094ZM15.5845 17.0185C15.358 17.0185 15.207 16.8675 15.207 16.641C15.207 16.4145 15.358 16.2635 15.5845 16.2635C15.811 16.2635 15.962 16.4145 15.962 16.641C15.962 16.8675 15.811 17.0185 15.5845 17.0185ZM2.30103 8.49049L2.34729 8.63217C2.3243 8.58428 2.30878 8.53699 2.30103 8.49049ZM4.71603 15.8865L2.34729 8.63217C2.77204 9.51682 5.74806 10.6035 9.47103 10.603C13.169 10.603 16.1125 9.69699 16.49 8.79149C16.49 8.79149 16.3436 9.20743 15.886 10.603C15.4285 11.9985 14.9805 13.3955 14.9805 13.3955L14.3765 14.8295H7.96153V17.924C5.48479 17.633 5.04694 16.6381 4.74791 15.9587C4.73713 15.9342 4.72653 15.9101 4.71603 15.8865Z" fill="black"/>
</svg>
