<svg width="16" height="16" viewBox="0 0 16 16" fill="none" xmlns="http://www.w3.org/2000/svg">
<path fill-rule="evenodd" clip-rule="evenodd" d="M10.2659 0.999023L3.06647 0.999412H3.06644C2.36689 0.999429 1.7998 1.56653 1.7998 2.26608V13.7361C1.7998 14.4357 2.36692 15.0027 3.06647 15.0027H3.0665L12.9326 15.0024H12.9327C13.3143 15.0024 13.6955 14.8999 13.9492 14.5798C14.1783 14.2909 14.1993 13.9453 14.1993 13.7357V4.93236C14.1993 4.76743 14.1328 4.61804 14.0251 4.50958L14.0265 4.50809L10.6932 1.17476L10.6917 1.17625L10.6902 1.17475C10.5777 1.06223 10.4251 0.999015 10.2659 0.999023ZM10.866 3.04458L12.1538 4.33236H10.866V3.04458ZM3.0665 2.19941L9.66598 2.19906V4.93236C9.66598 5.26373 9.93461 5.53236 10.266 5.53236H12.9993V13.7357C12.9993 13.761 12.9986 13.7823 12.9976 13.7999C12.98 13.8014 12.9585 13.8024 12.9326 13.8024H12.9326L3.06647 13.8027H3.06646C3.02964 13.8027 2.9998 13.7729 2.9998 13.7361V2.26608C2.9998 2.22926 3.02965 2.19941 3.06647 2.19941H3.0665ZM7.43384 7.89102H11.2338V6.69102H7.43384V7.89102ZM4.26748 6.59082C4.26748 6.36991 4.44657 6.19082 4.66748 6.19082H6.06748C6.28839 6.19082 6.46748 6.36991 6.46748 6.59082V7.99082C6.46748 8.21173 6.28839 8.39082 6.06748 8.39082H4.66748C4.44657 8.39082 4.26748 8.21173 4.26748 7.99082V6.59082ZM5.06748 6.99082V7.59082H5.66748V6.99082H5.06748ZM5.36738 9.82217C4.70464 9.82217 4.16738 10.3594 4.16738 11.0222C4.16738 11.6849 4.70464 12.2222 5.36738 12.2222C6.03012 12.2222 6.56738 11.6849 6.56738 11.0222C6.56738 10.3594 6.03012 9.82217 5.36738 9.82217ZM4.96738 11.0222C4.96738 10.8013 5.14647 10.6222 5.36738 10.6222C5.5883 10.6222 5.76738 10.8013 5.76738 11.0222C5.76738 11.2431 5.5883 11.4222 5.36738 11.4222C5.14647 11.4222 4.96738 11.2431 4.96738 11.0222ZM7.43398 11.6076H11.234V10.4076H7.43398V11.6076Z" fill="black"/>
</svg>
