<svg width="16" height="16" viewBox="0 0 16 16" fill="none" xmlns="http://www.w3.org/2000/svg">
<path fill-rule="evenodd" clip-rule="evenodd" d="M6.08971 2.23429C6.08971 3.2736 5.23372 4.11613 4.1778 4.11613C3.71076 4.11613 3.28283 3.9513 2.95079 3.67752C2.30145 4.41187 1.81475 5.28922 1.5459 6.25522C2.24713 6.53412 2.74189 7.21053 2.74189 8.00069C2.74189 8.79062 2.2474 9.46688 1.54647 9.74593C1.81533 10.7107 2.3015 11.587 2.94995 12.3206C3.28183 12.0474 3.7093 11.8829 4.1758 11.8829C5.23172 11.8829 6.08771 12.7255 6.08771 13.7648C6.08771 13.9472 6.06133 14.1236 6.01214 14.2904C6.64026 14.4825 7.30804 14.586 8.00038 14.586C8.69193 14.586 9.35898 14.4827 9.98648 14.291C9.93716 14.124 9.91072 13.9474 9.91072 13.7648C9.91072 12.7255 10.7667 11.8829 11.8226 11.8829C12.2898 11.8829 12.7178 12.0478 13.0498 12.3217C13.6979 11.5889 14.1839 10.7136 14.4532 9.74996C13.7468 9.47344 13.2475 8.79445 13.2475 8.00069C13.2475 7.2067 13.7471 6.52756 14.4537 6.25118C14.1848 5.28713 13.6988 4.41148 13.0507 3.67831C12.7188 3.95162 12.2912 4.11613 11.8246 4.11613C10.7687 4.11613 9.91272 3.2736 9.91272 2.23429C9.91272 2.05183 9.9391 1.87543 9.98831 1.7086C9.36028 1.51654 8.6926 1.41309 8.00038 1.41309C7.30872 1.41309 6.64157 1.51637 6.01397 1.70813C6.06328 1.87511 6.08971 2.05166 6.08971 2.23429ZM8.00093 10.3573C9.32082 10.3573 10.3908 9.30414 10.3908 8.005C10.3908 6.70586 9.32082 5.6527 8.00093 5.6527C6.68103 5.6527 5.61105 6.70586 5.61105 8.005C5.61105 9.30414 6.68103 10.3573 8.00093 10.3573Z" fill="black"/>
</svg>
