<svg width="16" height="16" viewBox="0 0 16 16" fill="none" xmlns="http://www.w3.org/2000/svg">
<path fill-rule="evenodd" clip-rule="evenodd" d="M9.19887 14.3882H6.80251L6.46926 12.7585C6.21054 12.6754 5.95904 12.5711 5.71727 12.4467L4.31588 13.3753L4.0904 13.1238L2.80314 11.8216L2.67549 11.6084L3.55275 10.2814C3.42935 10.0404 3.32561 9.78982 3.24257 9.53204L1.61133 9.20148V6.80177L3.24217 6.46882C3.32529 6.21132 3.42908 5.96101 3.55275 5.71948L2.68106 4.40365L2.86319 4.10264L4.09 2.87743L4.30117 2.61834L5.71767 3.55411C5.95826 3.43035 6.20998 3.32576 6.46966 3.24192L6.80052 1.6123H9.19768L9.53053 3.24192C9.791 3.32576 10.0427 3.42995 10.2829 3.55371L11.7153 2.60437L11.9189 2.88462L13.2054 4.19247L13.3187 4.40086L12.4474 5.71908C12.5711 5.95981 12.6749 6.21052 12.7584 6.46842L14.3893 6.79897V9.19909L12.7584 9.53204C12.6749 9.78993 12.5707 10.0406 12.4474 10.2814L13.3259 11.6064L13.1378 11.8978L11.9122 13.1218L11.7026 13.3845L10.2829 12.4467C10.041 12.571 9.78935 12.6753 9.53053 12.7585L9.19927 14.3886L9.19887 14.3882ZM7.43998 13.6021H8.55942L8.85807 12.1318L9.09229 12.0687C9.44718 11.9737 9.78811 11.8324 10.1064 11.6483L10.3159 11.5269L11.5682 12.3565L12.3588 11.5669L11.5292 10.3153L11.6517 10.1033C11.8354 9.78601 11.9764 9.44572 12.0712 9.0913L12.1345 8.85616L13.6058 8.55794V7.44252L12.1345 7.1443L12.0712 6.90916C11.9764 6.55487 11.8353 6.21472 11.6517 5.89753L11.5292 5.68555L12.3592 4.43399L11.5682 3.64434L10.3159 4.47392L10.106 4.35335C9.78762 4.16948 9.44671 4.02816 9.0919 3.93297L8.85767 3.8699L8.55902 2.39957H7.43958L7.14172 3.8695L6.90789 3.93257C6.54959 4.02918 6.20839 4.17051 5.89423 4.35335L5.68426 4.47511L4.432 3.64474L3.64104 4.43439L4.47018 5.68595L4.34809 5.89753C4.16461 6.21493 4.02355 6.5552 3.92855 6.90956L3.86532 7.1447L2.39394 7.44292V8.55834L3.86532 8.85656L3.92855 9.0917C4.0232 9.44581 4.16477 9.78714 4.34849 10.1041L4.47057 10.3157L3.64104 11.5665L4.432 12.3565L5.68426 11.5269L5.89384 11.6483C6.20959 11.8311 6.55039 11.9725 6.9075 12.0687L7.14172 12.1318L7.43998 13.6021ZM5.18837 7.99983C5.18837 9.5504 6.44978 10.8119 7.9999 10.8119C8.41582 10.8131 8.82677 10.7212 9.20285 10.5429L8.86841 9.83185C8.5964 9.9608 8.30372 10.0259 7.9999 10.0259C6.88165 10.0259 5.97178 9.11685 5.97178 7.99983C5.97178 6.88321 6.88165 5.97459 7.9999 5.97459C9.11814 5.97459 10.028 6.88321 10.028 7.99983C10.028 8.3248 9.95365 8.63539 9.80651 8.92243L10.5024 9.28253C10.7055 8.88567 10.8114 8.44596 10.8114 7.99983C10.8114 6.44966 9.55041 5.18852 7.9999 5.18852C6.44938 5.18852 5.18837 6.44966 5.18837 7.99983Z" fill="black"/>
</svg>
