<svg width="16" height="16" viewBox="0 0 16 16" fill="none" xmlns="http://www.w3.org/2000/svg">
<path fill-rule="evenodd" clip-rule="evenodd" d="M4.59678 6.63077L8.02959 8.59102L11.4624 6.63077V2.71026L8.02959 0.75L4.59678 2.71026V6.63077ZM6.8938 5.34136L8.0686 6.01222L9.2434 5.34136V3.99966L8.0686 3.3288L6.8938 3.99966V5.34136Z" fill="black"/>
<path fill-rule="evenodd" clip-rule="evenodd" d="M11.8172 15.25L8.38438 13.2897V9.36923L11.8172 7.40898L15.25 9.36923V13.2897L11.8172 15.25ZM10.6424 12.0003L11.8172 12.6712L12.992 12.0003V10.6586L11.8172 9.98778L10.6424 10.6586V12.0003Z" fill="black"/>
<path fill-rule="evenodd" clip-rule="evenodd" d="M4.18281 15.25L0.75 13.2897V9.36923L4.18281 7.40898L7.63513 9.36923V13.2897L4.18281 15.25ZM3.01776 12.0003L4.19256 12.6712L5.36737 12.0003V10.6586L4.19256 9.98778L3.01776 10.6586V12.0003Z" fill="black"/>
</svg>
