<svg width="16" height="16" viewBox="0 0 16 16" fill="none" xmlns="http://www.w3.org/2000/svg">
<path d="M2.99777 3.57523H5.61361C5.49075 3.29077 5.43223 3.16602 5.34686 2.98401C5.29714 2.87801 5.23831 2.75259 5.15235 2.56489C6.86354 1.52898 9.73167 1.60075 11.7185 3.12106C13.7054 4.64136 14.703 7.80035 13.8035 10.2066C12.8882 12.6551 10.2025 14.3994 7.51201 14.2235C6.28404 14.1432 4.82527 13.3974 3.88453 12.6032C2.50663 11.44 1.97476 9.84271 1.91179 8.04889H1.20981C1.0979 9.94058 2.20304 12.8724 5.15243 14.2235C7.91847 15.4906 11.2004 14.764 13.1664 12.4552C15.1492 10.1266 15.3456 6.77131 13.6401 4.23936C12.7919 2.97999 11.6473 2.09083 10.2104 1.60081C8.31994 0.956113 6.60483 1.13654 4.82771 2.05766C4.67327 1.79145 4.58925 1.65343 4.52671 1.55071C4.44981 1.4244 4.4054 1.35144 4.30252 1.15918C4.11182 1.52171 3.84252 2.01501 3.59205 2.47379C3.34385 2.92844 3.11415 3.3492 2.99777 3.57523Z" fill="black"/>
<path fill-rule="evenodd" clip-rule="evenodd" d="M4.82774 6.28163C4.82774 5.16998 6.53149 4.78463 7.99967 4.78463C9.46914 4.78475 11.1723 5.17081 11.1723 6.28233V10.3185C11.1723 11.4295 9.4686 11.8162 7.99967 11.8162C6.53149 11.8162 4.82774 11.4077 4.82774 10.3185V6.28163ZM10.6041 6.28239C10.6041 5.71491 9.36727 5.37529 7.99472 5.37529C6.62354 5.37529 5.386 5.71497 5.386 6.28169C5.386 6.84911 6.76624 7.15148 7.99961 7.15148C9.23297 7.15148 10.6041 6.84911 10.6041 6.28239ZM5.37757 10.0647C5.37757 10.6321 6.4527 11.0856 7.99967 11.0856C9.54661 11.0856 10.5915 10.6321 10.5915 10.0647V9.29256C10.0043 9.79113 9.01784 9.97326 8.00036 9.97326C6.98219 9.97326 5.9654 9.79181 5.37757 9.29256V10.0647ZM5.37053 8.30047C5.37053 8.70125 6.44147 9.24129 7.98841 9.24129C9.53536 9.24129 10.6063 8.70128 10.6063 8.30047V7.25838C10.0192 7.75689 8.55798 7.84691 7.98841 7.84691C7.41811 7.84691 5.95767 7.75762 5.37053 7.25838V8.30047Z" fill="black"/>
</svg>
