<svg width="16" height="16" viewBox="0 0 16 16" fill="none" xmlns="http://www.w3.org/2000/svg">
<path d="M5.60503 3.55949H2.9798C3.09659 3.33265 3.32712 2.91037 3.57622 2.45409C3.82757 1.99367 4.09785 1.49859 4.28923 1.13477C4.39248 1.32772 4.43706 1.40094 4.51423 1.5277C4.57699 1.63079 4.66133 1.76933 4.81631 2.03647C6.59981 1.11206 8.32108 0.93097 10.2183 1.57798C11.6604 2.06976 12.809 2.96211 13.6604 4.226C15.3719 6.76706 15.1748 10.1344 13.1849 12.4713C11.2119 14.7884 7.91816 15.5177 5.14219 14.246C2.18222 12.89 1.07311 9.94769 1.18542 8.0492H1.88992C1.95312 9.84946 2.48689 11.4524 3.86975 12.6199C4.81386 13.4169 6.27786 14.1653 7.51024 14.246C10.2104 14.4226 12.9057 12.6719 13.8243 10.2147C14.727 7.79977 13.7259 4.62944 11.7319 3.10368C9.73787 1.57792 6.85945 1.5059 5.14211 2.54552C5.22838 2.7339 5.28742 2.85977 5.33732 2.96615C5.423 3.1488 5.48174 3.27402 5.60503 3.55949Z" fill="black"/>
<path d="M10.1681 6.4746C10.1681 6.4746 10.1682 6.4746 10.1681 6.4746V6.4746Z" fill="black"/>
<path fill-rule="evenodd" clip-rule="evenodd" d="M5.82708 4.77322C6.91344 4.77322 8.17287 5.05289 8.17287 5.85819V6.50719C8.62241 6.17465 9.43697 6.0467 10.1718 6.0467C11.2576 6.0467 12.517 6.3269 12.517 7.13174V10.0556C12.517 10.861 11.2576 11.1406 10.1718 11.1406C9.08646 11.1406 7.827 10.8446 7.827 10.0561V9.40597C7.37742 9.73866 6.56273 9.86704 5.82762 9.86704C4.74232 9.86704 3.48285 9.57108 3.48285 8.78208V5.85765C3.48285 5.05232 4.74174 4.77322 5.82708 4.77322ZM5.82762 9.33789C6.97113 9.33789 7.74353 9.00933 7.74353 8.59827V8.03896C7.30947 8.4001 6.58022 8.53202 5.82808 8.53202C5.07542 8.53202 4.32384 8.40062 3.8893 8.03896V8.59827C3.8893 9.00931 4.68403 9.33789 5.82762 9.33789ZM5.81929 8.00174C6.9628 8.00174 7.75445 7.61051 7.75445 7.32017V6.56524C7.32039 6.92638 6.24029 6.99161 5.81929 6.99161C5.39773 6.99161 4.31818 6.92692 3.88414 6.56524V7.32017C3.88414 7.61051 4.67578 8.00174 5.81929 8.00174ZM5.82401 5.20059C4.81046 5.20059 3.89561 5.44713 3.89561 5.85771C3.89561 6.26875 4.91592 6.48782 5.82764 6.48782C6.73935 6.48782 7.7529 6.26875 7.7529 5.85823C7.7529 5.44718 6.83864 5.2006 5.82401 5.20059ZM10.1681 6.4746C11.1828 6.47461 12.097 6.72012 12.097 7.1317C12.097 7.54222 11.0835 7.76129 10.1718 7.76129C9.26005 7.76129 8.23973 7.54224 8.23973 7.13118C8.23973 6.7206 9.15459 6.4746 10.1681 6.4746ZM12.0877 9.87174C12.0877 10.2828 11.3153 10.6114 10.1718 10.6114C9.02819 10.6114 8.23344 10.2828 8.23344 9.87174V9.31241C8.66798 9.67407 9.41956 9.80548 10.1722 9.80548C10.9244 9.80548 11.6536 9.67355 12.0877 9.31241V9.87174ZM12.0986 8.59365C12.0986 8.88398 11.307 9.27521 10.1635 9.27521C9.01998 9.27521 8.22834 8.88452 8.22834 8.59365V7.83871C8.66238 8.20039 9.69102 8.27678 10.1635 8.27678C10.6354 8.27678 11.6646 8.20039 12.0986 7.83871V8.59365Z" fill="black"/>
</svg>
