<svg width="16" height="16" viewBox="0 0 16 16" fill="none" xmlns="http://www.w3.org/2000/svg">
<path fill-rule="evenodd" clip-rule="evenodd" d="M12.5771 14.5306H3.42318C2.34469 14.5292 1.47081 13.6551 1.46973 12.5766V3.4227C1.47081 2.34421 2.34469 1.47011 3.42318 1.46875H12.5771C13.6557 1.47011 14.5297 2.34413 14.5311 3.4227V12.5761C14.53 13.6549 13.6559 14.5292 12.5771 14.5306ZM3.42317 2.64613C2.99521 2.64613 2.64662 2.99471 2.64662 3.42268V12.5761C2.64662 13.0046 2.99521 13.3527 3.42317 13.3527H12.5771C13.0056 13.3527 13.3536 13.0041 13.3536 12.5761V3.42268C13.3536 2.99422 13.0051 2.64613 12.5771 2.64613H3.42317ZM8.00013 8.75054C8.41485 8.75054 8.75104 8.41435 8.75104 7.99963C8.75104 7.58491 8.41485 7.24872 8.00013 7.24872C7.58542 7.24872 7.24922 7.58491 7.24922 7.99963C7.24922 8.41435 7.58542 8.75054 8.00013 8.75054ZM4.98712 8.75056C5.40183 8.75056 5.73803 8.41436 5.73803 7.99964C5.73803 7.58493 5.40183 7.24873 4.98712 7.24873C4.5724 7.24873 4.23621 7.58493 4.23621 7.99964C4.23621 8.41436 4.5724 8.75056 4.98712 8.75056ZM11.7641 7.99963C11.7641 8.41435 11.4279 8.75054 11.0132 8.75054C10.5984 8.75054 10.2622 8.41435 10.2622 7.99963C10.2622 7.58491 10.5984 7.24872 11.0132 7.24872C11.4279 7.24872 11.7641 7.58491 11.7641 7.99963Z" fill="black"/>
</svg>
