<svg width="16" height="16" viewBox="0 0 16 16" fill="none" xmlns="http://www.w3.org/2000/svg">
<path fill-rule="evenodd" clip-rule="evenodd" d="M14.75 8C14.75 11.7279 11.7279 14.75 8 14.75C4.27208 14.75 1.25 11.7279 1.25 8C1.25 4.27208 4.27208 1.25 8 1.25C11.7279 1.25 14.75 4.27208 14.75 8ZM12 4L10.1144 10.1144L4 12L5.88562 5.88562L12 4ZM7.99023 9.5C8.81866 9.5 9.49023 8.82843 9.49023 8C9.49023 7.17157 8.81866 6.5 7.99023 6.5C7.16181 6.5 6.49023 7.17157 6.49023 8C6.49023 8.82843 7.16181 9.5 7.99023 9.5Z" fill="black"/>
</svg>
