<svg width="16" height="16" viewBox="0 0 16 16" fill="none" xmlns="http://www.w3.org/2000/svg">
<path d="M15.1128 6.81779C15.0271 6.87465 14.9122 6.87478 14.8266 6.81779C14.6858 6.7244 14.6724 6.52942 14.7859 6.41621C14.8865 6.31187 15.0527 6.31187 15.1535 6.41608C15.2667 6.52929 15.253 6.7244 15.1128 6.81779ZM15.5224 6.24901C15.6856 6.94404 15.0611 7.56903 14.366 7.40574C14.0123 7.32266 13.7311 7.04185 13.6484 6.68802C13.4853 5.99338 14.1096 5.36891 14.8045 5.53181C15.1581 5.61437 15.439 5.89517 15.5224 6.24901ZM10.8425 9.98681C10.9223 10.1011 10.9881 10.2113 11.0254 10.3215C11.0514 10.4 11.0848 10.5032 11.1623 10.5446C11.1667 10.547 11.1704 10.5489 11.175 10.5504C11.3167 10.602 11.6815 10.5933 11.6815 10.5933H12.3522C12.4094 10.5942 12.9131 10.5928 12.9006 10.5363C12.8402 10.2668 12.5282 10.2188 12.2914 10.0778C12.0724 9.94743 11.8654 9.79966 11.771 9.54546C11.7222 9.41426 11.7512 9.11154 11.8357 9.0012C11.8974 8.92165 11.9876 8.86869 12.0856 8.8473C12.1934 8.82422 12.3056 8.84418 12.414 8.85513C12.5471 8.86869 12.679 8.89282 12.8116 8.90939C13.0684 8.94278 13.3272 8.95621 13.5858 8.94917C14.0128 8.9373 14.4408 8.86922 14.8455 8.73136C15.1278 8.63641 15.4062 8.5082 15.6464 8.32992C15.9195 8.12685 15.848 8.14602 15.5711 8.17432C15.2396 8.20836 14.9049 8.21306 14.5726 8.19349C14.2623 8.17549 13.9565 8.13898 13.6757 7.99473C13.4545 7.88074 13.2647 7.76649 13.0898 7.58976C13.0636 7.56316 13.0472 7.48516 13.0952 7.43547C13.1416 7.38708 13.2403 7.41526 13.2707 7.44082C13.5764 7.69645 14.032 7.90669 14.5041 7.92965C14.7591 7.9423 15.0077 7.94725 15.2631 7.93578C15.3905 7.93004 15.5835 7.93095 15.7111 7.92965C15.7773 7.92886 15.9575 7.94777 15.9911 7.87787C16.0011 7.85739 16.0004 7.83378 15.9996 7.81096C15.962 6.78988 15.8865 5.63772 14.8178 5.14954C14.0204 4.78488 12.8248 4.22001 12.3199 3.98564C12.2026 3.93021 12.0656 4.01812 12.0656 4.14841C12.0656 4.4896 12.0832 4.97973 12.0832 5.42578C11.8414 5.17928 11.434 5.02394 11.1234 4.88139C10.771 4.71954 10.4068 4.58272 10.0368 4.4673C9.29073 4.23632 8.51915 4.09416 7.74313 4.01681C6.86329 3.92917 5.96833 3.97117 5.10114 4.15011C3.67405 4.44617 2.27121 5.13272 1.20618 6.13633C0.552365 6.75244 0.03941 7.62785 0.00458692 8.51655C-0.0448435 9.77422 0.30743 10.4498 0.955243 11.1459C1.98807 12.2553 4.21087 12.4105 5.11105 11.095C5.51576 10.5026 5.60405 9.69936 5.30995 9.04503C5.01624 8.39069 4.34051 7.91778 3.62397 7.89378C3.06784 7.87552 2.47559 8.15815 2.26261 8.67228C2.09997 9.06472 2.19257 9.54976 2.4885 9.85469C2.60379 9.97377 2.75991 10.0708 2.93077 10.0327C3.03106 10.0106 3.11518 9.93491 3.13044 9.83291C3.15288 9.68241 3.02102 9.58485 2.94016 9.46929C2.79395 9.26075 2.82356 8.94799 3.00667 8.77075C3.16109 8.62115 3.38986 8.57694 3.60492 8.57733C3.80499 8.57772 4.00976 8.61372 4.18257 8.71466C4.42529 8.85735 4.58675 9.11885 4.64218 9.39547C4.80899 10.2214 4.13757 10.8926 3.22696 10.9454C2.76122 10.9731 2.287 10.8505 1.92338 10.5578C1.00259 9.81713 0.776954 8.30305 1.82973 7.49468C2.82864 6.72753 4.0901 6.92526 4.83338 7.32396C5.42876 7.64285 5.87233 8.1648 6.20844 8.74179C6.37694 9.03185 6.52067 9.33496 6.65409 9.64315C6.78243 9.93921 6.90216 10.2376 7.15896 10.4546C7.32903 10.5985 7.53862 10.5933 7.76139 10.5933H9.03249C9.20491 10.5933 9.16318 10.4782 9.08831 10.402C8.91981 10.2298 8.67774 10.1908 8.45341 10.1291C7.94137 9.98825 7.99354 9.31018 8.13518 9.31018C8.59336 9.31018 8.60783 9.32374 9.00902 9.31839C9.58836 9.31057 9.76325 9.27692 10.216 9.44451C10.4583 9.53411 10.691 9.77083 10.8425 9.98681Z" fill="#30BA78"/>
</svg>
