<svg width="16" height="16" viewBox="0 0 16 16" fill="none" xmlns="http://www.w3.org/2000/svg">
<path fill-rule="evenodd" clip-rule="evenodd" d="M13.5 1.90039H2.5V3.10039H3.59068C3.72694 5.3896 5.91155 7.35132 7.15351 8.28831C6.01705 9.14572 4.09128 10.8612 3.66791 12.9004H2.5V14.1004H13.5V12.9004H12.3321C11.9087 10.8611 9.98295 9.14571 8.84649 8.28831C10.0884 7.35132 12.2731 5.3896 12.4093 3.10039H13.5V1.90039ZM11.0959 12.9004C10.8358 12.0062 10.1777 11.1111 9.36657 10.3133C8.87506 9.82991 8.37905 9.43309 8 9.15401C7.62095 9.43309 7.12494 9.82991 6.63343 10.3133C5.8223 11.1111 5.16421 12.0062 4.90406 12.9004H11.0959ZM5.49128 4.90039C5.10381 4.31046 4.84626 3.70039 4.79387 3.10039H11.2061C11.1537 3.70039 10.8962 4.31046 10.5087 4.90039L5.49128 4.90039ZM6.63343 6.26331C6.51252 6.1444 6.395 6.02331 6.2817 5.90039L9.7183 5.90039C9.60499 6.02331 9.48748 6.1444 9.36657 6.26331C8.87506 6.74671 8.37905 7.14353 8 7.42261C7.62095 7.14353 7.12494 6.74671 6.63343 6.26331ZM8.5 11.0017V11.997H7.5V11.0017H8.5Z" fill="black"/>
</svg>
