<svg width="16" height="16" viewBox="0 0 16 16" fill="none" xmlns="http://www.w3.org/2000/svg">
<path fill-rule="evenodd" clip-rule="evenodd" d="M2.41945 12.3508H6.5339L6.53436 12.3513C6.68293 12.669 6.86534 12.9666 7.07883 13.2409H1.53027V1.91797H11.2486V5.72795C11.0904 5.71195 10.93 5.70326 10.7677 5.70326C10.6291 5.70326 10.4934 5.7124 10.358 5.72429V2.80806H2.41945V12.3508ZM9.02084 4.56857H3.44394V5.45867H9.02084V4.56857ZM10.7672 14.0826C8.72461 14.0826 7.06374 12.4212 7.06374 10.3791C7.06374 8.33698 8.72506 6.67565 10.7672 6.67565C12.8093 6.67565 14.4707 8.33698 14.4707 10.3791C14.4707 12.4212 12.8093 14.0826 10.7672 14.0826ZM10.7672 7.56481C9.21559 7.56481 7.95337 8.82748 7.95337 10.3786C7.95337 11.9298 9.21604 13.1925 10.7672 13.1925C12.3183 13.1925 13.581 11.9298 13.581 10.3786C13.581 8.82748 12.3183 7.56481 10.7672 7.56481ZM7.47885 7.03452H3.4444V7.92461H6.75059C6.95222 7.59652 7.19718 7.29712 7.47885 7.03452ZM11.548 11.6472C11.4258 11.6474 11.3088 11.5971 11.2248 11.5083L10.3224 10.5565V8.73833C10.3224 8.49242 10.5217 8.29306 10.7677 8.29306C11.0136 8.29306 11.2129 8.49242 11.2129 8.73833V10.2017L11.8712 10.8966C11.9937 11.0256 12.0276 11.2151 11.9574 11.3785C11.8871 11.5419 11.7263 11.6478 11.5485 11.6477L11.548 11.6472ZM3.4444 9.5H6.16953C6.13339 9.71822 6.11459 9.93895 6.1133 10.1601C6.1133 10.2146 6.11685 10.2678 6.1204 10.3208L6.1204 10.3208C6.12194 10.3439 6.12348 10.3669 6.12473 10.3901H3.4444V9.5Z" fill="black"/>
</svg>
