<svg width="16" height="16" viewBox="0 0 16 16" fill="none" xmlns="http://www.w3.org/2000/svg">
<path fill-rule="evenodd" clip-rule="evenodd" d="M13.7608 10.0402H13.0082V8.00023C13.0082 7.68023 12.7705 7.44023 12.4536 7.44023H8.33385V5.64023H9.0865C9.4034 5.64023 9.64108 5.40023 9.64108 5.08023V2.80023C9.64108 2.48023 9.4034 2.24023 9.0865 2.24023H6.82855C6.51164 2.24023 6.27396 2.48023 6.27396 2.80023V5.08023C6.27396 5.40023 6.51164 5.64023 6.82855 5.64023H7.5812V7.44023H3.46143C3.14452 7.44023 2.90684 7.68023 2.90684 8.00023V10.0402H2.15419C1.83729 10.0402 1.59961 10.2802 1.59961 10.6002V12.8802C1.59961 13.2002 1.83729 13.4402 2.15419 13.4402H4.41214C4.72905 13.4402 4.96673 13.2002 4.96673 12.8802V10.6002C4.96673 10.2802 4.72905 10.0402 4.41214 10.0402H3.65949V8.16023H7.62081V10.0402H6.86816C6.55125 10.0402 6.31357 10.2802 6.31357 10.6002V12.8802C6.31357 13.2002 6.55125 13.4402 6.86816 13.4402H9.12611C9.44301 13.4402 9.68069 13.2002 9.68069 12.8802V10.6002C9.68069 10.2802 9.44301 10.0402 9.12611 10.0402H8.37346V8.16023H12.3348V10.0402H11.5821C11.2652 10.0402 11.0275 10.2802 11.0275 10.6002V12.8802C11.0275 13.2002 11.2652 13.4402 11.5821 13.4402H13.8401C14.157 13.4402 14.3947 13.2002 14.3947 12.8802V10.6002C14.3154 10.2802 14.0778 10.0402 13.7608 10.0402ZM7.02661 3.00023H8.96766V4.96023H7.02661V3.00023ZM2.31265 12.7202H4.25369V10.7602H2.31265V12.7202ZM8.92804 12.7202H6.987V10.7602H8.92804V12.7202ZM11.701 12.7202H13.6024V10.7602H11.701V12.7202Z" fill="black"/>
</svg>
