<svg width="16" height="16" viewBox="0 0 16 16" fill="none" xmlns="http://www.w3.org/2000/svg">
<path d="M14.125 8C14.125 11.381 11.3841 14.125 8 14.125C4.61594 14.125 1.875 11.381 1.875 8C1.875 4.61594 4.61594 1.875 8 1.875C11.3841 1.875 14.125 4.61594 14.125 8Z" fill="#E95420"/>
<path d="M3.98462 7.19353C3.54275 7.19353 3.1875 7.55665 3.1875 8.00159C3.1875 8.44653 3.54581 8.81009 3.98462 8.81009C4.423 8.81009 4.78131 8.44697 4.78131 8.00159C4.78206 7.89622 4.76205 7.79174 4.72242 7.6941C4.68279 7.59646 4.62431 7.50759 4.55033 7.43256C4.47635 7.35752 4.38831 7.29779 4.29125 7.25678C4.19419 7.21577 4.09 7.19427 3.98462 7.19353ZM9.6765 10.865C9.49295 10.9743 9.35951 11.1512 9.3048 11.3577C9.25009 11.5642 9.27845 11.7839 9.38381 11.9697C9.43511 12.0615 9.50419 12.1421 9.58702 12.2069C9.66985 12.2716 9.76476 12.3192 9.86621 12.3468C9.96765 12.3744 10.0736 12.3815 10.1778 12.3677C10.282 12.3539 10.3824 12.3194 10.4732 12.2663C10.6567 12.1571 10.7902 11.9802 10.8449 11.7737C10.8996 11.5672 10.8712 11.3475 10.7659 11.1617C10.5419 10.7775 10.0554 10.6441 9.6765 10.865ZM5.71537 8.00203C5.71417 7.62437 5.80353 7.25193 5.97594 6.91593C6.14836 6.57993 6.39881 6.29015 6.70631 6.0709L6.12444 5.08084C5.41428 5.56364 4.90479 6.28906 4.69162 7.1209C4.94231 7.33003 5.10375 7.64765 5.10375 8.00159C5.10375 8.35597 4.94231 8.67359 4.69162 8.88272C4.90367 9.71508 5.41342 10.4409 6.12444 10.9228L6.70631 9.93272C6.3989 9.71342 6.14852 9.42363 5.97618 9.08763C5.80385 8.75163 5.71456 8.37921 5.71581 8.00159L5.71537 8.00203ZM8.04375 5.64084C9.26131 5.64084 10.2584 6.5854 10.3625 7.79334L11.5 7.77497C11.447 6.91569 11.0805 6.10574 10.4701 5.49865C10.3152 5.55768 10.1489 5.58124 9.98366 5.56762C9.81839 5.55399 9.65827 5.50352 9.51506 5.4199C9.3704 5.33495 9.24639 5.21895 9.15197 5.08027C9.05756 4.9416 8.99509 4.7837 8.96906 4.61797C8.66776 4.53415 8.3565 4.49147 8.04375 4.49109C7.49163 4.49109 6.97188 4.62103 6.50944 4.85422L7.06506 5.85872C7.37128 5.71496 7.70546 5.64057 8.04375 5.64084ZM8.04375 10.3628C7.70437 10.3628 7.36911 10.2884 7.06156 10.1449L6.50638 11.1494C6.98233 11.3889 7.50787 11.5133 8.04069 11.5125C8.36006 11.5125 8.67069 11.4675 8.966 11.3857C8.99185 11.2199 9.05425 11.0619 9.14868 10.9232C9.24311 10.7845 9.36722 10.6685 9.512 10.5837C9.65501 10.4994 9.81526 10.4485 9.98073 10.4348C10.1462 10.4212 10.3126 10.4452 10.4675 10.505C11.0766 9.89702 11.4427 9.08753 11.4969 8.22865L10.3594 8.21072C10.2584 9.41515 9.26131 10.3628 8.04375 10.3628ZM9.67344 5.13553C9.76418 5.18863 9.8646 5.2231 9.96882 5.23691C10.073 5.25073 10.179 5.24362 10.2804 5.216C10.3819 5.18838 10.4768 5.1408 10.5596 5.07605C10.6424 5.0113 10.7115 4.93068 10.7628 4.83891C10.869 4.65325 10.8978 4.43327 10.843 4.22654C10.7882 4.01981 10.6543 3.84295 10.4701 3.73422C10.3794 3.68112 10.279 3.64665 10.1747 3.63283C10.0705 3.61902 9.96458 3.62613 9.86314 3.65375C9.7617 3.68137 9.66679 3.72895 9.58396 3.7937C9.50113 3.85845 9.43204 3.93907 9.38075 4.03084C9.27607 4.21683 9.24808 4.43632 9.30274 4.64263C9.35741 4.84893 9.4904 5.02577 9.67344 5.13553Z" fill="white"/>
</svg>
