<svg width="16" height="16" viewBox="0 0 16 16" fill="none" xmlns="http://www.w3.org/2000/svg">
<path fill-rule="evenodd" clip-rule="evenodd" d="M8.14539 2.03947C8.3663 2.03947 8.54539 2.21856 8.54539 2.43947L8.54488 10.2864L9.90618 10.2864C10.1271 10.2864 10.3062 10.4655 10.3062 10.6864L10.3057 12.7128L11.9875 12.7131C12.2084 12.7131 12.3875 12.8922 12.3875 13.1131V13.8926C12.3875 14.1135 12.2084 14.2926 11.9875 14.2926H4.01476C3.79385 14.2926 3.61476 14.1135 3.61476 13.8926V13.1131C3.61476 12.8922 3.79385 12.7131 4.01476 12.7131L5.69528 12.7128L5.69606 10.6864C5.69606 10.4655 5.87515 10.2864 6.09607 10.2864L7.45608 10.2864L7.45686 2.43947C7.45686 2.21856 7.63595 2.03947 7.85686 2.03947H8.14539ZM6.91928 3.64241V4.85201L4.26116 5.87251L5.70904 7.86869C5.73117 7.89919 5.74145 7.93467 5.74077 7.96964L5.76151 7.96968V9.67715C5.76151 10.5075 4.91459 11.1806 3.86986 11.1806H3.49322C2.44849 11.1806 1.60156 10.5075 1.60156 9.67715V7.96968L1.62467 7.96964C1.62398 7.93467 1.63427 7.89919 1.6564 7.86869L3.30251 5.59922C3.2128 5.31651 3.35805 5.00936 3.63858 4.90167L6.91928 3.64241ZM3.78834 5.99131C3.72657 5.98548 3.66646 5.9695 3.61041 5.94444L2.14076 7.9693H5.22396L3.78834 5.99131ZM12.6119 2.40464C12.6377 2.29733 12.6324 2.18135 12.5899 2.07051C12.4781 1.77933 12.1514 1.6339 11.8603 1.74567L9.08248 2.81201V4.02161L11.5379 3.0792L10.2932 4.79527C10.2711 4.82576 10.2608 4.86124 10.2615 4.89622L10.2384 4.89625V6.60372C10.2384 7.43404 11.0853 8.10714 12.13 8.10714H12.5067C13.5514 8.10714 14.3983 7.43404 14.3983 6.60372V4.89625L14.3776 4.89622C14.3783 4.86124 14.368 4.82576 14.3458 4.79527L12.6119 2.40464ZM12.3144 2.77847C12.3167 2.77731 12.3191 2.77613 12.3214 2.77493L13.8608 4.89587H10.7776L12.3144 2.77847Z" fill="black"/>
</svg>
