<svg width="16" height="16" viewBox="0 0 16 16" fill="none" xmlns="http://www.w3.org/2000/svg">
<path fill-rule="evenodd" clip-rule="evenodd" d="M2.2 11.175V3.575H13.8V11.175H12V12.375H14C14.5523 12.375 15 11.9273 15 11.375V3.375C15 2.82272 14.5523 2.375 14 2.375H2C1.44772 2.375 1 2.82272 1 3.375V11.375C1 11.9273 1.44772 12.375 2 12.375H4V11.175H2.2ZM7.03906 11.5684L5.12537 10.0387L5.87463 9.10137L8 10.8003L10.1254 9.10137L10.8746 10.0387L8.96094 11.5684L10.8746 13.0982L10.1254 14.0355L8 12.3366L5.87463 14.0355L5.12537 13.0982L7.03906 11.5684Z" fill="black"/>
</svg>
