<svg width="16" height="16" viewBox="0 0 16 16" fill="none" xmlns="http://www.w3.org/2000/svg">
<path fill-rule="evenodd" clip-rule="evenodd" d="M8.01608 2.56433C5.01416 2.56433 2.58063 4.99787 2.58063 7.99979C2.58063 8.66274 2.69904 9.29668 2.91536 9.88251C2.92779 9.91618 2.94055 9.9497 2.95363 9.98306L2.94931 9.98475L3.11552 10.4283L3.28179 10.8719L3.72975 12.0673L2.59163 11.4892L2.0153 11.1964L1 10.6807L1.82731 10.3762C1.817 10.3494 1.80687 10.3225 1.79691 10.2955C1.5325 9.57941 1.38836 8.80576 1.38836 7.99979C1.38836 4.3394 4.35569 1.37207 8.01608 1.37207C9.0767 1.37207 10.0807 1.62164 10.9711 2.06581L10.4389 3.13269C9.7101 2.76913 8.88786 2.56433 8.01608 2.56433ZM13.088 6.04077C13.0698 5.9938 13.051 5.94714 13.0316 5.9008L13.038 5.89813L12.8845 5.48855L12.7182 5.04487L12.2702 3.84952L13.4084 4.42762L13.9847 4.72037L15 5.23609L14.1725 5.54072C14.1818 5.56405 14.191 5.58745 14.2 5.61091C14.4868 6.35284 14.6438 7.15869 14.6438 7.99979C14.6438 11.6602 11.6765 14.6275 8.01608 14.6275C6.94458 14.6275 5.93085 14.3728 5.03375 13.9201L5.5709 12.8557C6.30523 13.2262 7.13539 13.4352 8.01608 13.4352C11.018 13.4352 13.4515 11.0017 13.4515 7.99979C13.4515 7.30801 13.3226 6.64776 13.088 6.04077ZM6.01433 8.48826L6.43586 8.06673L7.40678 7.09581L7.40434 10.3404L7.40389 10.9365L8.59615 10.9374L8.5966 10.3413L8.59904 7.10025L9.56552 8.06673L9.98705 8.48826L10.8301 7.6452L10.4086 7.22367L8.42222 5.23732L8.00069 4.81579L7.57916 5.23732L5.5928 7.22367L5.17128 7.6452L6.01433 8.48826Z" fill="black"/>
</svg>
