<svg width="16" height="16" viewBox="0 0 16 16" fill="none" xmlns="http://www.w3.org/2000/svg">
<path fill-rule="evenodd" clip-rule="evenodd" d="M7.89995 1.30469C10.5979 1.30469 12.7934 3.50069 12.7934 6.19919C12.7934 8.83869 10.6909 10.9917 8.07345 11.0837C8.06319 11.0851 8.05343 11.0878 8.04373 11.0905C8.0298 11.0944 8.01598 11.0982 8.00095 11.0982C6.05045 11.0982 4.32145 12.4082 3.79645 14.2847C3.72795 14.5287 3.50545 14.6887 3.26345 14.6887C3.21395 14.6887 3.16395 14.6817 3.11395 14.6682C2.81995 14.5857 2.64845 14.2807 2.73045 13.9862C3.16345 12.4392 4.25145 11.2032 5.63995 10.5357C4.07645 9.71769 3.00545 8.08219 3.00545 6.19919C3.00545 3.50019 5.20145 1.30469 7.89995 1.30469ZM7.89995 2.44369C5.82945 2.44369 4.14445 4.12819 4.14445 6.19919C4.14445 8.26969 5.82945 9.95419 7.89995 9.95419C9.97045 9.95419 11.6549 8.26969 11.6549 6.19919C11.6549 4.12869 9.97045 2.44369 7.89995 2.44369Z" fill="black"/>
<path d="M11.8629 11.5842C12.5329 12.2547 13.0194 13.0882 13.2694 13.9957C13.3504 14.2902 13.1774 14.5942 12.8829 14.6762C12.8334 14.6902 12.7844 14.6962 12.7354 14.6962C12.4924 14.6962 12.2704 14.5347 12.2024 14.2897C12.0029 13.5667 11.6154 12.9017 11.0799 12.3672C10.8644 12.1512 10.8639 11.8002 11.0799 11.5842C11.2959 11.3682 11.6469 11.3682 11.8629 11.5842Z" fill="black"/>
</svg>
