<svg width="16" height="16" viewBox="0 0 16 16" fill="none" xmlns="http://www.w3.org/2000/svg">
<path fill-rule="evenodd" clip-rule="evenodd" d="M8.00072 1.40039C6.38068 1.40039 5.06738 2.71369 5.06738 4.33372C5.06738 5.95376 6.38068 7.26706 8.00072 7.26706C9.62075 7.26706 10.934 5.95376 10.934 4.33372C10.934 2.71369 9.62075 1.40039 8.00072 1.40039ZM6.26738 4.33372C6.26738 3.37643 7.04342 2.60039 8.00072 2.60039C8.95801 2.60039 9.73405 3.37643 9.73405 4.33372C9.73405 5.29102 8.95801 6.06706 8.00072 6.06706C7.04342 6.06706 6.26738 5.29102 6.26738 4.33372ZM5.50039 8.38281C3.23602 8.38281 1.40039 10.2184 1.40039 12.4828V13.9828C1.40039 14.3142 1.66902 14.5828 2.00039 14.5828H14.0004C14.3318 14.5828 14.6004 14.3142 14.6004 13.9828V12.4828C14.6004 10.2184 12.7648 8.38281 10.5004 8.38281H5.50039ZM2.60039 12.4828C2.60039 10.8812 3.89876 9.58281 5.50039 9.58281H10.5004C12.102 9.58281 13.4004 10.8812 13.4004 12.4828V13.3828H2.60039V12.4828Z" fill="black"/>
</svg>
