<svg width="16" height="16" viewBox="0 0 16 16" fill="none" xmlns="http://www.w3.org/2000/svg">
<path fill-rule="evenodd" clip-rule="evenodd" d="M7.604 8.32715C9.67507 8.32715 11.354 6.64822 11.354 4.57715C11.354 2.50608 9.67507 0.827148 7.604 0.827148C5.53294 0.827148 3.854 2.50608 3.854 4.57715C3.854 6.64822 5.53294 8.32715 7.604 8.32715ZM10.7157 8.8986C10.7157 9.42654 10.2877 9.85452 9.75976 9.85452C9.52624 9.85452 9.31227 9.77078 9.14625 9.63169C8.82161 10.0047 8.57828 10.4503 8.44385 10.941C8.79444 11.0827 9.04181 11.4263 9.04181 11.8276C9.04181 12.2289 8.79455 12.5724 8.44408 12.7142C8.57849 13.2043 8.82156 13.6494 9.14577 14.0221C9.31172 13.8833 9.52547 13.7997 9.75874 13.7997C10.2867 13.7997 10.7147 14.2277 10.7147 14.7556C10.7147 14.8483 10.7015 14.9379 10.6768 15.0227C10.9909 15.1203 11.3248 15.1729 11.6709 15.1729C12.0167 15.1729 12.3503 15.1204 12.664 15.023C12.6393 14.9382 12.6261 14.8484 12.6261 14.7556C12.6261 14.2277 13.0541 13.7997 13.582 13.7997C13.8156 13.7997 14.0296 13.8835 14.1956 14.0226C14.5196 13.6504 14.7626 13.2057 14.8972 12.7162C14.544 12.5758 14.2944 12.2309 14.2944 11.8276C14.2944 11.4243 14.5441 11.0793 14.8975 10.9389C14.763 10.4493 14.52 10.0045 14.196 9.63215C14.0301 9.77096 13.8163 9.85452 13.5831 9.85452C13.0551 9.85452 12.6271 9.42654 12.6271 8.8986C12.6271 8.80592 12.6403 8.71632 12.6649 8.63158C12.3509 8.53401 12.0171 8.48145 11.6709 8.48145C11.3251 8.48145 10.9916 8.53391 10.6778 8.63131C10.7025 8.71613 10.7157 8.80582 10.7157 8.8986ZM11.6709 13.0248C12.3309 13.0248 12.8658 12.4898 12.8658 11.8299C12.8658 11.1699 12.3309 10.635 11.6709 10.635C11.011 10.635 10.476 11.1699 10.476 11.8299C10.476 12.4898 11.011 13.0248 11.6709 13.0248ZM1.10156 14.3271H7.6015V9.32715H5.16425C4.49427 9.32715 3.0534 10.0451 2.29149 10.6653C1.52959 11.2856 1.10156 12.1269 1.10156 13.0041V14.3271Z" fill="black"/>
</svg>
