<svg width="16" height="16" viewBox="0 0 16 16" fill="none" xmlns="http://www.w3.org/2000/svg">
<path fill-rule="evenodd" clip-rule="evenodd" d="M1.89941 2.15039C1.89941 1.42877 2.508 0.900391 3.18691 0.900391H10.0619C10.2152 0.900391 10.3627 0.959077 10.4741 1.0644L13.9116 4.3144C14.0315 4.42774 14.0994 4.58542 14.0994 4.75039V13.8504C14.0994 14.572 13.4908 15.1004 12.8119 15.1004H3.18691C2.50801 15.1004 1.89941 14.572 1.89941 13.8504V2.15039ZM3.11298 2.12676C3.09947 2.13953 3.09941 2.14782 3.09941 2.15039V13.8504C3.09941 13.853 3.09948 13.8613 3.11298 13.874C3.12708 13.8873 3.15186 13.9004 3.18691 13.9004H12.8119C12.847 13.9004 12.8718 13.8873 12.8858 13.874C12.8994 13.8613 12.8994 13.853 12.8994 13.8504V5.00883L9.82318 2.10039H3.18691C3.15186 2.10039 3.12708 2.11343 3.11298 2.12676ZM5.19961 10.8004H10.7996V12.0004H5.19961V10.8004ZM8.49759 9.13331L10.4986 6.13331L9.50026 5.46745L7.99868 7.71871L6.49872 5.46767L5.50011 6.13309L7.49913 9.13309C7.61037 9.30003 7.79769 9.40033 7.9983 9.40038C8.19891 9.40042 8.38628 9.30021 8.49759 9.13331Z" fill="black"/>
</svg>
