<svg width="16" height="16" viewBox="0 0 16 16" fill="none" xmlns="http://www.w3.org/2000/svg">
<path fill-rule="evenodd" clip-rule="evenodd" d="M1.5 3.80039C1.5 3.02719 2.1268 2.40039 2.9 2.40039H13.1C13.8732 2.40039 14.5 3.02719 14.5 3.80039V10.2861C14.5 11.0593 13.8732 11.6861 13.1 11.6861H2.9C2.1268 11.6861 1.5 11.0593 1.5 10.2861V3.80039ZM12.6341 4.88833C12.8498 5.13993 12.8206 5.51871 12.569 5.73436L9.52068 8.34723C9.2152 8.60907 8.78254 8.66234 8.42268 8.4824L6.26131 7.40172L4.24568 9.41736C4.01136 9.65167 3.63146 9.65167 3.39715 9.41736C3.16283 9.18304 3.16283 8.80314 3.39715 8.56883L5.51471 6.45126C5.81907 6.1469 6.28405 6.07145 6.66903 6.26394L8.84056 7.3497L11.7881 4.82325C12.0397 4.6076 12.4185 4.63674 12.6341 4.88833Z" fill="black"/>
<path d="M5 12.7006C4.50294 12.7006 4.1 13.1035 4.1 13.6006C4.1 14.0976 4.50294 14.5006 5 14.5006H11C11.4971 14.5006 11.9 14.0976 11.9 13.6006C11.9 13.1035 11.4971 12.7006 11 12.7006H5Z" fill="black"/>
</svg>
