<svg width="16" height="16" viewBox="0 0 16 16" fill="none" xmlns="http://www.w3.org/2000/svg">
<path d="M2.5 1.7998C1.94772 1.7998 1.5 2.24752 1.5 2.7998V6.2998C1.5 6.85209 1.94772 7.2998 2.5 7.2998H6C6.55228 7.2998 7 6.85209 7 6.2998V2.7998C7 2.24752 6.55228 1.7998 6 1.7998H2.5Z" fill="black"/>
<path d="M8.9 5.0002C8.40294 5.0002 8 5.40314 8 5.9002C8 6.39725 8.40294 6.8002 8.9 6.8002H13.6C14.0971 6.8002 14.5 6.39725 14.5 5.9002C14.5 5.40314 14.0971 5.0002 13.6 5.0002H8.9Z" fill="black"/>
<path d="M8 3.0998C8 2.60275 8.40294 2.1998 8.9 2.1998H13.6C14.0971 2.1998 14.5 2.60275 14.5 3.0998C14.5 3.59686 14.0971 3.9998 13.6 3.9998H8.9C8.40294 3.9998 8 3.59686 8 3.0998Z" fill="black"/>
<path d="M2.5 8.69971C1.94772 8.69971 1.5 9.14742 1.5 9.69971V13.1997C1.5 13.752 1.94772 14.1997 2.5 14.1997H6C6.55228 14.1997 7 13.752 7 13.1997V9.69971C7 9.14742 6.55228 8.69971 6 8.69971H2.5Z" fill="black"/>
<path d="M8.9 11.9001C8.40294 11.9001 8 12.303 8 12.8001C8 13.2972 8.40294 13.7001 8.9 13.7001H13.6C14.0971 13.7001 14.5 13.2972 14.5 12.8001C14.5 12.303 14.0971 11.9001 13.6 11.9001H8.9Z" fill="black"/>
<path d="M8 9.99971C8 9.50265 8.40294 9.09971 8.9 9.09971H13.6C14.0971 9.09971 14.5 9.50265 14.5 9.99971C14.5 10.4968 14.0971 10.8997 13.6 10.8997H8.9C8.40294 10.8997 8 10.4968 8 9.99971Z" fill="black"/>
</svg>
