<svg width="16" height="16" viewBox="0 0 16 16" fill="none" xmlns="http://www.w3.org/2000/svg">
<path fill-rule="evenodd" clip-rule="evenodd" d="M8.13516 13.058C5.5631 14.7984 3.11182 15.3587 2.01199 14.2589C0.912143 13.1591 1.47247 10.7077 3.21297 8.13559C3.00604 7.82977 2.8158 7.52565 2.64305 7.22531C2.58716 7.23015 2.53059 7.23262 2.47344 7.23262C1.4008 7.23262 0.53125 6.36307 0.53125 5.29043C0.53125 4.59455 0.897231 3.98414 1.44721 3.64119C1.44047 2.96465 1.62168 2.40347 2.01234 2.01281C3.11212 0.913031 5.56322 1.47322 8.13516 3.21346C10.7072 1.47304 13.1585 0.912751 14.2583 2.01258C15.3581 3.11238 14.7979 5.56359 13.0575 8.13559C14.7982 10.7078 15.3585 13.1593 14.2587 14.2591C13.1588 15.359 10.7073 14.7986 8.13516 13.058ZM7.10273 12.2999C6.4609 12.7065 5.84118 13.0245 5.26939 13.2475C4.56451 13.5224 3.98713 13.6317 3.56117 13.6238C3.14334 13.6161 2.95167 13.5015 2.86052 13.4104C2.76937 13.3192 2.65476 13.1276 2.64707 12.7097C2.63923 12.2838 2.74848 11.7064 3.0234 11.0015C3.24642 10.4297 3.56443 9.80994 3.97101 9.16808C4.41305 9.72586 4.90716 10.2816 5.4485 10.823C5.98963 11.3641 6.54517 11.858 7.10273 12.2999ZM8.13518 11.582C7.52283 11.1182 6.90318 10.5806 6.29703 9.97445C5.69066 9.36807 5.1529 8.74818 4.68896 8.13562C5.15282 7.52321 5.69046 6.90348 6.29667 6.29726C6.90294 5.691 7.52272 5.15333 8.13518 4.68944C8.74773 5.15338 9.36762 5.69113 9.97398 6.29749C10.5801 6.90364 11.1177 7.52329 11.5815 8.13562C11.1176 8.74811 10.5799 9.36792 9.97363 9.97422C9.36738 10.5805 8.74762 11.1181 8.13518 11.582ZM2.66126 3.35721C2.6957 3.07828 2.78617 2.93604 2.86087 2.86134C2.95202 2.77019 3.14369 2.65558 3.56152 2.64789C3.98748 2.64005 4.56486 2.7493 5.26974 3.02422C5.84141 3.24718 6.461 3.56509 7.10268 3.97152C6.54502 4.41349 5.98938 4.9075 5.44815 5.44873C4.90696 5.98992 4.41298 6.54551 3.97105 7.10313C3.89596 6.98458 3.82389 6.86678 3.75489 6.7499C4.15996 6.39396 4.41563 5.87205 4.41563 5.29043C4.41563 4.28115 3.64577 3.45168 2.66126 3.35721ZM12.2995 9.16806C12.7061 9.81 13.0242 10.4298 13.2473 11.0017C13.5222 11.7066 13.6314 12.284 13.6236 12.71C13.6159 13.1278 13.5013 13.3195 13.4101 13.4106C13.319 13.5018 13.1273 13.6164 12.7095 13.6241C12.2835 13.6319 11.7062 13.5226 11.0013 13.2477C10.4294 13.0247 9.80955 12.7066 9.16761 12.3C9.72528 11.858 10.2809 11.364 10.8222 10.8227C11.3634 10.2815 11.8575 9.72577 12.2995 9.16806ZM12.2994 7.10316C12.706 6.46139 13.0239 5.84172 13.2469 5.26997C13.5218 4.56509 13.6311 3.98771 13.6232 3.56175C13.6155 3.14392 13.5009 2.95225 13.4098 2.8611C13.3186 2.76996 13.127 2.65535 12.7091 2.64766C12.2832 2.63982 11.7058 2.74907 11.0009 3.02399C10.4291 3.24699 9.80945 3.56497 9.16765 3.9715C9.72542 4.41353 10.2812 4.90763 10.8225 5.44896C11.3636 5.99008 11.8576 6.54561 12.2994 7.10316ZM1.73125 5.29043C1.73125 4.88053 2.06354 4.54824 2.47344 4.54824C2.88334 4.54824 3.21562 4.88053 3.21562 5.29043C3.21562 5.70033 2.88334 6.03262 2.47344 6.03262C2.06354 6.03262 1.73125 5.70033 1.73125 5.29043Z" fill="black"/>
</svg>
