<svg width="16" height="16" viewBox="0 0 16 16" fill="none" xmlns="http://www.w3.org/2000/svg">
<path d="M8.00028 6.84541C4.71836 6.84541 2.05859 5.55214 2.05859 3.95688C2.05859 2.36163 4.71879 1.06836 8.00028 1.06836C11.2818 1.06836 13.942 2.36163 13.942 3.95688C13.942 5.55214 11.2822 6.84541 8.00028 6.84541Z" fill="black"/>
<path fill-rule="evenodd" clip-rule="evenodd" d="M8.00028 7.56721C4.71836 7.56721 2.05859 6.37056 2.05859 4.77531V12.0445C2.05859 13.6397 4.71836 14.9326 8.00028 14.9326C11.2822 14.9326 13.942 13.6397 13.942 12.0445V4.77617C13.942 6.37056 11.2822 7.56721 8.00028 7.56721ZM8.45347 8.3878L10.657 10.2998L10.0985 10.8595L9.19694 10.0389V13.5622H8.45347V8.3878ZM7.54709 13.5899L5.34355 11.678L5.90202 11.1182L6.80362 11.9388V8.41553H7.54709V13.5899Z" fill="black"/>
</svg>
