<svg width="16" height="16" viewBox="0 0 16 16" fill="none" xmlns="http://www.w3.org/2000/svg">
<path d="M10.6369 12.2059C10.6501 12.2223 10.6657 12.2366 10.6831 12.2485C11.114 12.6521 11.4078 13.1804 11.5233 13.7593C11.5271 13.8223 11.5374 13.8848 11.554 13.9456C11.596 14.0999 11.6776 14.2405 11.7907 14.3534C12.15 14.7125 12.7324 14.7125 13.0915 14.3534C13.4508 13.9941 13.4508 13.4117 13.0915 13.0525C12.9428 12.9033 12.7471 12.81 12.5376 12.7883C11.9314 12.6757 11.3786 12.368 10.9635 11.9121H10.9634C10.9235 11.8722 10.8699 11.8492 10.8136 11.8477C10.7573 11.8463 10.7026 11.8664 10.6607 11.9041C10.6189 11.9418 10.593 11.9941 10.5886 12.0502C10.5841 12.1064 10.6014 12.1621 10.6368 12.2059" fill="#FB6500"/>
<path d="M13.5454 12.9127C13.5618 12.8994 13.5761 12.8838 13.5881 12.8664C13.9916 12.4355 14.5199 12.1417 15.0989 12.0263C15.1619 12.0224 15.2243 12.0121 15.2852 11.9954C15.4394 11.9534 15.5799 11.8718 15.6928 11.7587C16.052 11.3995 16.052 10.8171 15.6928 10.4579C15.3336 10.0987 14.7512 10.0987 14.392 10.4579C14.2428 10.6067 14.1495 10.8023 14.1277 11.0119C14.0151 11.618 13.7074 12.1708 13.2515 12.5859L13.2516 12.5861C13.2119 12.6259 13.189 12.6795 13.1876 12.7357C13.1861 12.7919 13.2063 12.8465 13.2439 12.8884C13.2815 12.9302 13.3337 12.956 13.3898 12.9605C13.4459 12.965 13.5015 12.9479 13.5453 12.9127" fill="#0082EF"/>
<path d="M14.2524 10.0048C14.2392 9.98841 14.2236 9.97404 14.2062 9.96212C13.7753 9.55858 13.4815 9.03028 13.366 8.45132C13.3622 8.3883 13.3519 8.32585 13.3353 8.26495C13.2933 8.11073 13.2117 7.97018 13.0986 7.85727C12.7393 7.4981 12.1569 7.4981 11.7977 7.85727C11.4385 8.21652 11.4385 8.79891 11.7977 9.15808C11.9465 9.3073 12.1421 9.40065 12.3517 9.42237C12.9579 9.535 13.5107 9.84271 13.9258 10.2986L13.9259 10.2985C13.9658 10.338 14.0193 10.3608 14.0755 10.3622C14.1316 10.3635 14.1861 10.3433 14.2279 10.3058C14.2696 10.2682 14.2954 10.2161 14.3 10.1602C14.3045 10.1042 14.2875 10.0486 14.2524 10.0048Z" fill="#2DBC00"/>
<path d="M11.3436 9.29759C11.3272 9.31087 11.3129 9.32644 11.3009 9.34381C10.8974 9.77473 10.3691 10.0685 9.79012 10.184C9.72713 10.1878 9.66471 10.1981 9.60384 10.2147C9.44959 10.2567 9.30901 10.3383 9.19608 10.4514C8.83698 10.8107 8.83698 11.3932 9.19608 11.7523C9.55533 12.1115 10.1378 12.1115 10.497 11.7523C10.6462 11.6036 10.7395 11.4079 10.7612 11.1983C10.8738 10.5921 11.1815 10.0394 11.6374 9.62426V9.6241C11.6771 9.58423 11.6999 9.53069 11.7013 9.47447C11.7027 9.41826 11.6826 9.36364 11.6449 9.32185C11.6073 9.28005 11.5551 9.25424 11.4991 9.24973C11.443 9.24522 11.3874 9.26235 11.3436 9.29759Z" fill="#FFCC00"/>
<path d="M12.7117 4.80349C12.4558 4.27778 12.112 3.78979 11.6899 3.35302C10.6232 2.24982 9.12996 1.53933 7.48511 1.35225C7.19627 1.3191 6.90579 1.30224 6.61505 1.30176C6.34633 1.30176 6.06619 1.31737 5.78224 1.34829C4.13003 1.52791 2.62842 2.23476 1.55392 3.33875C1.12983 3.77442 0.784214 4.26129 0.526588 4.78558C0.177247 5.4971 0 6.25238 0 7.03057C0 8.03222 0.304792 9.01992 0.881478 9.88698C1.20767 10.3773 1.76533 11.0111 2.2427 11.3994L1.97825 12.493L1.90215 12.8009C1.88868 12.8312 1.87837 12.8629 1.87108 12.896C1.86656 12.9161 1.86513 12.9373 1.86315 12.9583C1.86165 12.9742 1.8584 12.9896 1.8584 13.006C1.8584 13.141 1.91203 13.2705 2.0075 13.366C2.10297 13.4614 2.23245 13.5151 2.36747 13.5151C2.45942 13.5151 2.54448 13.4889 2.61891 13.4463L2.62596 13.4424C2.63682 13.436 2.64792 13.4302 2.65831 13.4231L4.54651 12.4754C4.953 12.592 5.35625 12.6666 5.78137 12.7133C6.05771 12.7438 6.33824 12.7592 6.61513 12.7592C6.89757 12.7592 7.19023 12.7421 7.48511 12.7086C8.05399 12.6436 8.61341 12.5129 9.15215 12.319C9.09382 12.2997 9.03757 12.2746 8.98426 12.2441C8.66044 12.0588 8.49271 11.7064 8.526 11.3576C8.14117 11.48 7.74533 11.5646 7.34409 11.6103C7.1021 11.6382 6.85872 11.6524 6.61513 11.6528C6.3835 11.6528 6.14871 11.6399 5.9174 11.6144C5.86904 11.6091 5.82101 11.6017 5.77289 11.5954C5.45518 11.553 5.14103 11.4882 4.83751 11.3993C4.77462 11.3794 4.70902 11.3694 4.64306 11.3696C4.53842 11.3696 4.43696 11.3973 4.33391 11.4506C4.32059 11.4575 4.30743 11.4633 4.29396 11.4711L3.08248 12.1851L3.08113 12.1859C3.05608 12.2005 3.04189 12.2059 3.02881 12.2059C2.98625 12.2059 2.95168 12.1699 2.95168 12.1257L2.99655 11.9447L3.04808 11.7481L3.22723 11.0658C3.2388 11.0239 3.25069 10.9737 3.25069 10.9172C3.25077 10.8406 3.23281 10.765 3.19826 10.6966C3.16371 10.6282 3.11353 10.5689 3.0518 10.5234C2.88175 10.3977 2.71963 10.2615 2.56635 10.1157C2.30342 9.86629 2.0725 9.594 1.87853 9.30228C1.42178 8.61565 1.18032 7.83659 1.18032 7.04896C1.18032 6.4378 1.32016 5.84343 1.5957 5.28252C1.80156 4.8635 2.07885 4.47334 2.41994 4.12281C3.30317 3.21533 4.54508 2.63349 5.91708 2.48422C6.14886 2.45862 6.38186 2.44555 6.61505 2.44506C6.85064 2.44506 7.0959 2.45933 7.34401 2.48755C8.70959 2.64292 9.94445 3.22761 10.8212 4.1343C11.1606 4.48554 11.4365 4.87658 11.6408 5.29663C11.9119 5.85397 12.0495 6.4435 12.0495 7.04888C12.0495 7.11182 12.0455 7.17453 12.0424 7.23731C12.3967 7.02051 12.8648 7.06307 13.1714 7.36969C13.187 7.38515 13.2 7.40219 13.2141 7.41844C13.2242 7.28947 13.2299 7.1601 13.2299 7.03042C13.2299 6.2596 13.0555 5.51034 12.7115 4.80349" fill="#0079DE"/>
</svg>
