<svg width="16" height="16" viewBox="0 0 16 16" fill="none" xmlns="http://www.w3.org/2000/svg">
<path fill-rule="evenodd" clip-rule="evenodd" d="M7.09004 4.85C6.49005 4.85 5.94005 4.5 5.64005 4.05C3.84005 4.9 2.69005 6.65 2.74005 8.65H1.89005C1.89005 6.35 3.24005 4.25 5.34004 3.35V3.2C5.34004 2.25 6.09005 1.5 7.04005 1.5C7.99005 1.5 8.79004 2.25 8.79004 3.15C8.79004 4.1 8.04004 4.85 7.09004 4.85ZM7.89005 3.15C7.89005 2.65 7.54005 2.3 7.04005 2.3C6.59005 2.3 6.19004 2.65 6.19004 3.15C6.19004 3.65 6.59005 4 7.04005 4C7.49005 4 7.89005 3.6 7.89005 3.15Z" fill="black"/>
<path fill-rule="evenodd" clip-rule="evenodd" d="M13.8401 8.6C13.8401 8.9 13.8401 9.15 13.7901 9.45C14.2401 9.75 14.5401 10.25 14.4401 10.85C14.4401 11.8 13.6901 12.55 12.7401 12.55C11.7901 12.55 11.0401 11.8 11.0401 10.85C11.0401 9.9 11.7901 9.15 12.7401 9.15H12.9401C12.9901 8.95 12.9901 8.8 12.9901 8.6C12.9901 6.75 11.8901 5.05 10.2401 4.15L10.6401 3.45C12.5901 4.45 13.8401 6.4 13.8401 8.6ZM11.9901 10.85C11.9901 11.35 12.3401 11.7 12.8401 11.7C13.2901 11.7 13.6901 11.35 13.6901 10.85C13.6901 10.35 13.2901 10 12.8401 10C12.3901 10 11.9901 10.4 11.9901 10.85Z" fill="black"/>
<path fill-rule="evenodd" clip-rule="evenodd" d="M7.89004 13.65C6.74004 13.65 5.59004 13.3 4.69004 12.6C4.84004 12.35 4.94004 12.1 4.94004 11.75C4.94004 10.8 4.19004 10.05 3.24004 10.05C2.29004 10.05 1.54004 10.8 1.54004 11.75C1.54004 12.7 2.29004 13.45 3.24004 13.45C3.59004 13.45 3.84004 13.35 4.14004 13.2C5.19004 14.05 6.54004 14.5 7.89004 14.5C8.99004 14.5 10.09 14.2 11.04 13.6L10.59 12.9C9.79004 13.45 8.84004 13.65 7.89004 13.65ZM3.14004 12.6C2.69004 12.6 2.29004 12.25 2.29004 11.75C2.29004 11.25 2.69004 10.9 3.14004 10.9C3.64004 10.9 3.99004 11.25 3.99004 11.75C3.99004 12.25 3.64004 12.6 3.14004 12.6Z" fill="black"/>
<path fill-rule="evenodd" clip-rule="evenodd" d="M6.84006 9C6.49006 8.7 6.24006 8.2 6.24006 7.7C6.24006 6.75 6.99006 5.95 7.94006 5.95C8.89006 5.95 9.69006 6.75 9.69006 7.7C9.69006 8.2 9.44006 8.7 9.09006 9C9.79006 9.4 10.2401 10.1 10.2401 10.95H9.49006C9.49006 10.15 8.84006 9.45 7.99006 9.45C7.19006 9.45 6.49006 10.1 6.49006 10.95H5.69006C5.69006 10.1 6.14006 9.4 6.84006 9ZM7.99006 8.7C8.54006 8.7 8.99006 8.25 8.99006 7.7C8.99006 7.15 8.54006 6.7 7.99006 6.7C7.44006 6.7 6.99006 7.15 6.99006 7.7C6.99006 8.25 7.44006 8.7 7.99006 8.7Z" fill="black"/>
</svg>
