<svg fill="none" viewBox="0 0 32 32" width="32" xmlns="http://www.w3.org/2000/svg">
  <mask fill="white" id="path-1-inside-1_18883_161247" color="red">
    <path
      d="M32 16C32 24.8366 24.8366 32 16 32C7.16344 32 0 24.8366 0 16C0 7.16344 7.16344 0 16 0C24.8366 0 32 7.16344 32 16ZM3 16C3 23.1797 8.8203 29 16 29C23.1797 29 29 23.1797 29 16C29 8.8203 23.1797 3 16 3C8.8203 3 3 8.8203 3 16Z" />
  </mask>
  <path
    d="M32 16C32 24.8366 24.8366 32 16 32C7.16344 32 0 24.8366 0 16C0 7.16344 7.16344 0 16 0C24.8366 0 32 7.16344 32 16ZM3 16C3 23.1797 8.8203 29 16 29C23.1797 29 29 23.1797 29 16C29 8.8203 23.1797 3 16 3C8.8203 3 3 8.8203 3 16Z"
    mask="url(#path-1-inside-1_18883_161247)" stroke="rgba(120, 85, 250,1)" stroke-opacity="0.4" stroke-width="6">
  </path>
  <path clipRule="evenodd"
    d="M25.1924 4.68641C25.7782 4.10062 26.7279 4.10062 27.3137 4.68641C30.0075 7.38024 31.6518 10.9469 31.9507 14.7448C32.2496 18.5427 31.1835 22.3226 28.9443 25.4047C26.705 28.4868 23.4395 30.6687 19.7351 31.558C16.0307 32.4474 12.1306 31.9858 8.73614 30.2562C7.99801 29.8801 7.70452 28.9769 8.08062 28.2387C8.45672 27.5006 9.35998 27.2071 10.0981 27.5832C12.8561 28.9885 16.025 29.3635 19.0348 28.6409C22.0446 27.9183 24.6978 26.1455 26.5172 23.6413C28.3366 21.1371 29.2028 18.066 28.9599 14.9802C28.7171 11.8944 27.3811 8.99647 25.1924 6.80773C24.6066 6.22194 24.6066 5.2722 25.1924 4.68641Z"
    fill="rgba(120, 85, 250,1)" fillRule="evenodd" />
</svg>